<?xml version="1.0" encoding="utf-8" standalone="no"?>
<!DOCTYPE svg PUBLIC "-//W3C//DTD SVG 1.1//EN"
  "http://www.w3.org/Graphics/SVG/1.1/DTD/svg11.dtd">
<svg xmlns:xlink="http://www.w3.org/1999/xlink" width="271.611633pt" height="192.48277pt" viewBox="0 0 271.611633 192.48277" xmlns="http://www.w3.org/2000/svg" version="1.1">
 <metadata>
  <rdf:RDF xmlns:dc="http://purl.org/dc/elements/1.1/" xmlns:cc="http://creativecommons.org/ns#" xmlns:rdf="http://www.w3.org/1999/02/22-rdf-syntax-ns#">
   <cc:Work>
    <dc:type rdf:resource="http://purl.org/dc/dcmitype/StillImage"/>
    <dc:date>2024-01-30T20:33:13.079972</dc:date>
    <dc:format>image/svg+xml</dc:format>
    <dc:creator>
     <cc:Agent>
      <dc:title>Matplotlib v3.8.0, https://matplotlib.org/</dc:title>
     </cc:Agent>
    </dc:creator>
   </cc:Work>
  </rdf:RDF>
 </metadata>
 <defs>
  <style type="text/css">*{stroke-linejoin: round; stroke-linecap: butt}</style>
 </defs>
 <g id="figure_1">
  <g id="patch_1">
   <path d="M 0 192.48277 
L 271.611633 192.48277 
L 271.611633 -0 
L 0 -0 
z
" style="fill: #ffffff"/>
  </g>
  <g id="axes_1">
   <g id="patch_2">
    <path d="M 25.466323 169.282926 
L 220.766323 169.282926 
L 220.766323 23.752926 
L 25.466323 23.752926 
z
" style="fill: #ffffff"/>
   </g>
   <g id="matplotlib.axis_1">
    <g id="xtick_1">
     <g id="line2d_1">
      <defs>
       <path id="m8ecd3836a9" d="M 0 0 
L 0 -3 
" style="stroke: #000000; stroke-width: 0.5"/>
      </defs>
      <g>
       <use xlink:href="#m8ecd3836a9" x="34.343596" y="169.282926" style="stroke: #000000; stroke-width: 0.5"/>
      </g>
     </g>
     <g id="line2d_2">
      <defs>
       <path id="mb0b292daa3" d="M 0 0 
L 0 3 
" style="stroke: #000000; stroke-width: 0.5"/>
      </defs>
      <g>
       <use xlink:href="#mb0b292daa3" x="34.343596" y="23.752926" style="stroke: #000000; stroke-width: 0.5"/>
      </g>
     </g>
     <g id="text_1">
      <!-- 2020 -->
      <g transform="translate(28.784456 176.974696) scale(0.06 -0.06)">
       <defs>
        <path id="LinLibertineT-32" d="M 390 2997 
C 390 2863 512 2747 646 2747 
C 755 2747 947 2863 947 3003 
C 947 3054 934 3093 922 3137 
C 909 3182 870 3239 870 3291 
C 870 3450 1037 3680 1504 3680 
C 1734 3680 2061 3521 2061 2908 
C 2061 2500 1914 2169 1536 1786 
L 1062 1320 
C 435 682 333 377 333 0 
C 333 0 659 0 864 0 
L 1984 0 
C 2189 0 2483 0 2483 0 
C 2566 337 2630 813 2637 1004 
C 2598 1036 2515 1048 2451 1036 
C 2342 582 2234 423 2003 423 
L 864 423 
C 864 730 1306 1164 1338 1196 
L 1984 1815 
C 2349 2167 2624 2448 2624 2933 
C 2624 3623 2061 3904 1542 3904 
C 832 3904 390 3380 390 2997 
z
" transform="scale(0.015625)"/>
        <path id="LinLibertineT-30" d="M 1485 3680 
C 1594 3680 1696 3641 1773 3571 
C 1971 3405 2144 2919 2144 2061 
C 2144 1472 2125 1069 2035 743 
C 1894 218 1581 160 1466 160 
C 870 160 806 1255 806 1811 
C 806 3386 1197 3680 1485 3680 
z
M 1459 -64 
C 1952 -64 2701 435 2701 1939 
C 2701 2573 2547 3117 2266 3488 
C 2099 3712 1830 3904 1485 3904 
C 851 3904 250 3150 250 1882 
C 250 1196 461 557 813 204 
C 992 26 1210 -64 1459 -64 
z
" transform="scale(0.015625)"/>
       </defs>
       <use xlink:href="#LinLibertineT-32" transform="scale(0.996264)"/>
       <use xlink:href="#LinLibertineT-30" transform="translate(46.326292 0) scale(0.996264)"/>
       <use xlink:href="#LinLibertineT-32" transform="translate(92.652583 0) scale(0.996264)"/>
       <use xlink:href="#LinLibertineT-30" transform="translate(138.978875 0) scale(0.996264)"/>
      </g>
     </g>
    </g>
    <g id="xtick_2">
     <g id="line2d_3">
      <g>
       <use xlink:href="#m8ecd3836a9" x="78.729959" y="169.282926" style="stroke: #000000; stroke-width: 0.5"/>
      </g>
     </g>
     <g id="line2d_4">
      <g>
       <use xlink:href="#mb0b292daa3" x="78.729959" y="23.752926" style="stroke: #000000; stroke-width: 0.5"/>
      </g>
     </g>
     <g id="text_2">
      <!-- 2040 -->
      <g transform="translate(73.170819 176.974696) scale(0.06 -0.06)">
       <defs>
        <path id="LinLibertineT-34" d="M 1734 3251 
L 1734 1408 
L 512 1408 
C 838 1933 1293 2649 1734 3251 
z
M 2752 1408 
L 2221 1408 
L 2221 3281 
C 2221 3602 2221 3852 2234 3904 
L 2221 3904 
L 2016 3904 
C 1971 3904 1939 3866 1914 3834 
C 1510 3342 768 2288 179 1375 
C 198 1278 237 1106 429 1106 
L 1734 1106 
L 1734 509 
C 1734 211 1491 211 1216 211 
C 1178 172 1178 39 1216 0 
C 1421 0 1677 0 1971 0 
C 2221 0 2464 0 2669 0 
C 2707 39 2707 171 2669 210 
C 2355 235 2221 223 2221 521 
L 2221 1106 
L 2662 1106 
C 2752 1106 2848 1228 2848 1305 
C 2848 1369 2822 1408 2752 1408 
z
" transform="scale(0.015625)"/>
       </defs>
       <use xlink:href="#LinLibertineT-32" transform="scale(0.996264)"/>
       <use xlink:href="#LinLibertineT-30" transform="translate(46.326292 0) scale(0.996264)"/>
       <use xlink:href="#LinLibertineT-34" transform="translate(92.652583 0) scale(0.996264)"/>
       <use xlink:href="#LinLibertineT-30" transform="translate(138.978875 0) scale(0.996264)"/>
      </g>
     </g>
    </g>
    <g id="xtick_3">
     <g id="line2d_5">
      <g>
       <use xlink:href="#m8ecd3836a9" x="123.116323" y="169.282926" style="stroke: #000000; stroke-width: 0.5"/>
      </g>
     </g>
     <g id="line2d_6">
      <g>
       <use xlink:href="#mb0b292daa3" x="123.116323" y="23.752926" style="stroke: #000000; stroke-width: 0.5"/>
      </g>
     </g>
     <g id="text_3">
      <!-- 2060 -->
      <g transform="translate(117.557183 176.974696) scale(0.06 -0.06)">
       <defs>
        <path id="LinLibertineT-36" d="M 864 1971 
C 1075 2112 1286 2112 1395 2112 
C 2022 2112 2163 1500 2163 1181 
C 2163 480 1894 161 1581 161 
C 1178 161 813 378 813 1473 
C 813 1619 826 1786 864 1971 
z
M 922 2202 
C 1094 2786 1504 3433 2355 3754 
C 2355 3831 2330 3889 2278 3921 
C 1632 3728 1235 3459 877 3043 
C 480 2582 282 1999 282 1493 
C 282 193 1018 -64 1510 -64 
C 2349 -64 2694 749 2694 1300 
C 2694 1850 2400 2343 1530 2343 
C 1363 2343 1114 2292 922 2202 
z
" transform="scale(0.015625)"/>
       </defs>
       <use xlink:href="#LinLibertineT-32" transform="scale(0.996264)"/>
       <use xlink:href="#LinLibertineT-30" transform="translate(46.326292 0) scale(0.996264)"/>
       <use xlink:href="#LinLibertineT-36" transform="translate(92.652583 0) scale(0.996264)"/>
       <use xlink:href="#LinLibertineT-30" transform="translate(138.978875 0) scale(0.996264)"/>
      </g>
     </g>
    </g>
    <g id="xtick_4">
     <g id="line2d_7">
      <g>
       <use xlink:href="#m8ecd3836a9" x="167.502686" y="169.282926" style="stroke: #000000; stroke-width: 0.5"/>
      </g>
     </g>
     <g id="line2d_8">
      <g>
       <use xlink:href="#mb0b292daa3" x="167.502686" y="23.752926" style="stroke: #000000; stroke-width: 0.5"/>
      </g>
     </g>
     <g id="text_4">
      <!-- 2080 -->
      <g transform="translate(161.943547 176.974696) scale(0.06 -0.06)">
       <defs>
        <path id="LinLibertineT-38" d="M 1498 3680 
C 1914 3680 2067 3405 2067 3110 
C 2067 2765 1728 2477 1555 2349 
L 1357 2471 
C 954 2733 909 2944 909 3142 
C 909 3437 1114 3680 1498 3680 
z
M 2515 3104 
C 2515 3565 2157 3904 1530 3904 
C 877 3904 454 3514 454 3020 
C 454 2662 627 2399 1018 2156 
L 1184 2054 
C 998 1958 826 1843 666 1702 
C 403 1471 294 1184 294 934 
C 294 281 755 -64 1434 -64 
C 2272 -64 2682 551 2682 1037 
C 2682 1408 2522 1734 2182 1939 
L 1728 2214 
C 2029 2362 2515 2694 2515 3104 
z
M 1446 160 
C 1158 160 723 359 723 934 
C 723 1127 806 1575 1357 1939 
L 1658 1760 
C 2054 1517 2214 1217 2214 909 
C 2214 269 1734 160 1446 160 
z
" transform="scale(0.015625)"/>
       </defs>
       <use xlink:href="#LinLibertineT-32" transform="scale(0.996264)"/>
       <use xlink:href="#LinLibertineT-30" transform="translate(46.326292 0) scale(0.996264)"/>
       <use xlink:href="#LinLibertineT-38" transform="translate(92.652583 0) scale(0.996264)"/>
       <use xlink:href="#LinLibertineT-30" transform="translate(138.978875 0) scale(0.996264)"/>
      </g>
     </g>
    </g>
    <g id="xtick_5">
     <g id="line2d_9">
      <g>
       <use xlink:href="#m8ecd3836a9" x="211.88905" y="169.282926" style="stroke: #000000; stroke-width: 0.5"/>
      </g>
     </g>
     <g id="line2d_10">
      <g>
       <use xlink:href="#mb0b292daa3" x="211.88905" y="23.752926" style="stroke: #000000; stroke-width: 0.5"/>
      </g>
     </g>
     <g id="text_5">
      <!-- 2100 -->
      <g transform="translate(206.32991 176.974696) scale(0.06 -0.06)">
       <defs>
        <path id="LinLibertineT-31" d="M 1843 779 
L 1843 3021 
C 1843 3409 1850 3802 1862 3886 
C 1862 3919 1850 3919 1824 3919 
C 1472 3700 1133 3540 570 3277 
C 582 3207 608 3141 666 3103 
C 960 3226 1101 3264 1222 3264 
C 1331 3264 1350 3109 1350 2889 
L 1350 780 
C 1350 243 1178 211 730 211 
C 691 172 691 39 730 0 
C 1043 0 1274 0 1619 0 
C 1926 0 2080 0 2400 0 
C 2438 39 2438 172 2400 211 
C 1952 211 1843 243 1843 779 
z
" transform="scale(0.015625)"/>
       </defs>
       <use xlink:href="#LinLibertineT-32" transform="scale(0.996264)"/>
       <use xlink:href="#LinLibertineT-31" transform="translate(46.326292 0) scale(0.996264)"/>
       <use xlink:href="#LinLibertineT-30" transform="translate(92.652583 0) scale(0.996264)"/>
       <use xlink:href="#LinLibertineT-30" transform="translate(138.978875 0) scale(0.996264)"/>
      </g>
     </g>
    </g>
    <g id="xtick_6">
     <g id="line2d_11">
      <defs>
       <path id="m3be72251ba" d="M 0 0 
L 0 -1.5 
" style="stroke: #000000; stroke-width: 0.5"/>
      </defs>
      <g>
       <use xlink:href="#m3be72251ba" x="45.440186" y="169.282926" style="stroke: #000000; stroke-width: 0.5"/>
      </g>
     </g>
     <g id="line2d_12">
      <defs>
       <path id="med504e2236" d="M 0 0 
L 0 1.5 
" style="stroke: #000000; stroke-width: 0.5"/>
      </defs>
      <g>
       <use xlink:href="#med504e2236" x="45.440186" y="23.752926" style="stroke: #000000; stroke-width: 0.5"/>
      </g>
     </g>
    </g>
    <g id="xtick_7">
     <g id="line2d_13">
      <g>
       <use xlink:href="#m3be72251ba" x="56.536777" y="169.282926" style="stroke: #000000; stroke-width: 0.5"/>
      </g>
     </g>
     <g id="line2d_14">
      <g>
       <use xlink:href="#med504e2236" x="56.536777" y="23.752926" style="stroke: #000000; stroke-width: 0.5"/>
      </g>
     </g>
    </g>
    <g id="xtick_8">
     <g id="line2d_15">
      <g>
       <use xlink:href="#m3be72251ba" x="67.633368" y="169.282926" style="stroke: #000000; stroke-width: 0.5"/>
      </g>
     </g>
     <g id="line2d_16">
      <g>
       <use xlink:href="#med504e2236" x="67.633368" y="23.752926" style="stroke: #000000; stroke-width: 0.5"/>
      </g>
     </g>
    </g>
    <g id="xtick_9">
     <g id="line2d_17">
      <g>
       <use xlink:href="#m3be72251ba" x="89.82655" y="169.282926" style="stroke: #000000; stroke-width: 0.5"/>
      </g>
     </g>
     <g id="line2d_18">
      <g>
       <use xlink:href="#med504e2236" x="89.82655" y="23.752926" style="stroke: #000000; stroke-width: 0.5"/>
      </g>
     </g>
    </g>
    <g id="xtick_10">
     <g id="line2d_19">
      <g>
       <use xlink:href="#m3be72251ba" x="100.923141" y="169.282926" style="stroke: #000000; stroke-width: 0.5"/>
      </g>
     </g>
     <g id="line2d_20">
      <g>
       <use xlink:href="#med504e2236" x="100.923141" y="23.752926" style="stroke: #000000; stroke-width: 0.5"/>
      </g>
     </g>
    </g>
    <g id="xtick_11">
     <g id="line2d_21">
      <g>
       <use xlink:href="#m3be72251ba" x="112.019732" y="169.282926" style="stroke: #000000; stroke-width: 0.5"/>
      </g>
     </g>
     <g id="line2d_22">
      <g>
       <use xlink:href="#med504e2236" x="112.019732" y="23.752926" style="stroke: #000000; stroke-width: 0.5"/>
      </g>
     </g>
    </g>
    <g id="xtick_12">
     <g id="line2d_23">
      <g>
       <use xlink:href="#m3be72251ba" x="134.212914" y="169.282926" style="stroke: #000000; stroke-width: 0.5"/>
      </g>
     </g>
     <g id="line2d_24">
      <g>
       <use xlink:href="#med504e2236" x="134.212914" y="23.752926" style="stroke: #000000; stroke-width: 0.5"/>
      </g>
     </g>
    </g>
    <g id="xtick_13">
     <g id="line2d_25">
      <g>
       <use xlink:href="#m3be72251ba" x="145.309505" y="169.282926" style="stroke: #000000; stroke-width: 0.5"/>
      </g>
     </g>
     <g id="line2d_26">
      <g>
       <use xlink:href="#med504e2236" x="145.309505" y="23.752926" style="stroke: #000000; stroke-width: 0.5"/>
      </g>
     </g>
    </g>
    <g id="xtick_14">
     <g id="line2d_27">
      <g>
       <use xlink:href="#m3be72251ba" x="156.406096" y="169.282926" style="stroke: #000000; stroke-width: 0.5"/>
      </g>
     </g>
     <g id="line2d_28">
      <g>
       <use xlink:href="#med504e2236" x="156.406096" y="23.752926" style="stroke: #000000; stroke-width: 0.5"/>
      </g>
     </g>
    </g>
    <g id="xtick_15">
     <g id="line2d_29">
      <g>
       <use xlink:href="#m3be72251ba" x="178.599277" y="169.282926" style="stroke: #000000; stroke-width: 0.5"/>
      </g>
     </g>
     <g id="line2d_30">
      <g>
       <use xlink:href="#med504e2236" x="178.599277" y="23.752926" style="stroke: #000000; stroke-width: 0.5"/>
      </g>
     </g>
    </g>
    <g id="xtick_16">
     <g id="line2d_31">
      <g>
       <use xlink:href="#m3be72251ba" x="189.695868" y="169.282926" style="stroke: #000000; stroke-width: 0.5"/>
      </g>
     </g>
     <g id="line2d_32">
      <g>
       <use xlink:href="#med504e2236" x="189.695868" y="23.752926" style="stroke: #000000; stroke-width: 0.5"/>
      </g>
     </g>
    </g>
    <g id="xtick_17">
     <g id="line2d_33">
      <g>
       <use xlink:href="#m3be72251ba" x="200.792459" y="169.282926" style="stroke: #000000; stroke-width: 0.5"/>
      </g>
     </g>
     <g id="line2d_34">
      <g>
       <use xlink:href="#med504e2236" x="200.792459" y="23.752926" style="stroke: #000000; stroke-width: 0.5"/>
      </g>
     </g>
    </g>
    <g id="text_6">
     <!-- Year -->
     <g transform="translate(116.909625 187.257866) scale(0.07 -0.07)">
      <defs>
       <path id="LinLibertineT-59" d="M 2157 777 
L 2157 1654 
C 2157 1847 2163 1950 2272 2143 
L 3034 3535 
C 3213 3864 3354 3921 3642 3947 
C 3680 3985 3680 4121 3642 4160 
C 3462 4160 3258 4160 3110 4160 
C 2963 4160 2733 4160 2528 4160 
C 2490 4120 2490 3981 2528 3942 
C 2810 3942 2912 3878 2778 3621 
L 2067 2281 
C 2016 2184 1984 2191 1926 2293 
L 1184 3608 
C 1030 3878 1056 3942 1414 3942 
C 1453 3981 1453 4120 1414 4160 
C 1184 4160 941 4160 685 4160 
C 435 4160 224 4160 32 4160 
C -6 4121 0 3985 38 3947 
C 307 3928 416 3889 640 3515 
L 1478 2092 
C 1594 1898 1613 1834 1613 1596 
L 1613 777 
C 1613 243 1504 211 992 211 
C 954 172 954 39 992 0 
C 1306 0 1638 0 1888 0 
C 2138 0 2458 0 2778 0 
C 2816 39 2816 172 2778 211 
C 2266 211 2157 243 2157 777 
z
" transform="scale(0.015625)"/>
       <path id="LinLibertineT-65" d="M 794 1831 
C 915 2547 1363 2604 1517 2604 
C 1760 2604 2048 2467 2048 1922 
C 2048 1863 2022 1831 1952 1831 
L 794 1831 
z
M 2470 600 
C 2234 354 2048 250 1677 250 
C 1446 250 1178 386 979 715 
C 851 929 774 1226 774 1600 
L 2477 1600 
C 2554 1600 2598 1638 2598 1708 
C 2598 2243 2406 2816 1517 2816 
C 960 2816 237 2281 237 1302 
C 237 941 326 593 538 348 
C 755 91 1056 -64 1517 -64 
C 2003 -64 2349 161 2605 497 
C 2586 562 2547 594 2470 600 
z
" transform="scale(0.015625)"/>
       <path id="LinLibertineT-61" d="M 1875 1495 
L 1875 648 
C 1875 564 1837 520 1786 481 
C 1619 346 1402 199 1222 199 
C 902 199 762 455 762 654 
C 762 944 896 1239 1370 1361 
L 1875 1495 
z
M 1875 308 
C 1914 109 1984 -64 2304 -64 
C 2547 -64 2778 45 2912 173 
C 2899 250 2874 309 2803 347 
C 2758 309 2650 244 2566 244 
C 2381 244 2374 494 2374 789 
L 2374 1732 
C 2374 2642 1875 2816 1408 2816 
C 883 2816 352 2469 352 2104 
C 352 1950 429 1873 576 1873 
C 762 1873 877 2007 877 2091 
C 877 2136 870 2181 858 2206 
C 851 2226 845 2264 845 2335 
C 845 2533 1114 2604 1357 2604 
C 1574 2604 1875 2495 1875 1770 
C 1875 1725 1856 1700 1837 1693 
L 1286 1559 
C 672 1405 230 1065 230 629 
C 230 103 589 -64 1037 -64 
C 1261 -64 1453 -13 1734 205 
L 1862 308 
L 1875 308 
z
" transform="scale(0.015625)"/>
       <path id="LinLibertineT-72" d="M 1126 2296 
C 1114 2553 1107 2719 1075 2784 
C 1062 2816 1050 2835 998 2835 
C 819 2764 653 2707 211 2649 
C 198 2610 211 2508 224 2469 
C 570 2436 640 2404 640 2031 
L 640 777 
C 640 244 563 218 166 218 
C 128 178 128 40 166 0 
C 390 0 640 0 896 0 
C 1152 0 1446 0 1670 0 
C 1709 39 1709 172 1670 211 
C 1222 243 1146 262 1146 791 
L 1146 1678 
C 1146 1844 1222 1990 1299 2106 
C 1370 2207 1517 2418 1594 2418 
C 1651 2418 1709 2405 1760 2335 
C 1805 2271 1882 2188 1990 2188 
C 2144 2188 2291 2348 2291 2508 
C 2291 2630 2176 2816 1907 2816 
C 1606 2816 1344 2533 1197 2283 
C 1158 2213 1126 2264 1126 2296 
z
" transform="scale(0.015625)"/>
      </defs>
      <use xlink:href="#LinLibertineT-59" transform="scale(0.996264)"/>
      <use xlink:href="#LinLibertineT-65" transform="translate(50.211654 0) scale(0.996264)"/>
      <use xlink:href="#LinLibertineT-61" transform="translate(94.744607 0) scale(0.996264)"/>
      <use xlink:href="#LinLibertineT-72" transform="translate(140.273839 0) scale(0.996264)"/>
     </g>
    </g>
   </g>
   <g id="matplotlib.axis_2">
    <g id="ytick_1">
     <g id="line2d_35">
      <defs>
       <path id="mb670e77269" d="M 0 0 
L 3 0 
" style="stroke: #000000; stroke-width: 0.5"/>
      </defs>
      <g>
       <use xlink:href="#mb670e77269" x="25.466323" y="166.733019" style="stroke: #000000; stroke-width: 0.5"/>
      </g>
     </g>
     <g id="line2d_36">
      <defs>
       <path id="m780f331419" d="M 0 0 
L -3 0 
" style="stroke: #000000; stroke-width: 0.5"/>
      </defs>
      <g>
       <use xlink:href="#m780f331419" x="220.766323" y="166.733019" style="stroke: #000000; stroke-width: 0.5"/>
      </g>
     </g>
     <g id="text_7">
      <!-- $\mathdefault{0.5}$ -->
      <g transform="translate(14.150159 168.828904) scale(0.06 -0.06)">
       <defs>
        <path id="LibertineMathMI-94" d="M 365 275 
C 365 90 518 -64 704 -64 
C 890 -64 1043 90 1043 275 
C 1043 461 890 614 704 614 
C 518 614 365 461 365 275 
z
" transform="scale(0.015625)"/>
        <path id="LinLibertineT-35" d="M 2042 1210 
C 2042 606 1722 161 1338 161 
C 1094 161 1011 320 915 448 
C 832 556 723 651 589 651 
C 467 651 346 543 346 414 
C 346 154 890 -64 1254 -64 
C 2048 -64 2611 523 2611 1325 
C 2611 1943 2182 2497 1466 2497 
C 1190 2497 954 2439 838 2394 
L 966 3461 
C 1203 3439 1408 3410 1715 3410 
C 1907 3410 2125 3410 2387 3436 
L 2490 3878 
L 2445 3904 
C 2080 3867 1734 3840 1395 3840 
C 1158 3840 928 3840 704 3865 
L 486 2024 
C 826 2150 1069 2176 1299 2176 
C 1715 2176 2042 1902 2042 1210 
z
" transform="scale(0.015625)"/>
       </defs>
       <use xlink:href="#LinLibertineT-30" transform="scale(0.996264)"/>
       <use xlink:href="#LibertineMathMI-94" transform="translate(47.92029 0) scale(0.996264)"/>
       <use xlink:href="#LinLibertineT-35" transform="translate(71.531789 0) scale(0.996264)"/>
      </g>
     </g>
    </g>
    <g id="ytick_2">
     <g id="line2d_37">
      <g>
       <use xlink:href="#mb670e77269" x="25.466323" y="147.644855" style="stroke: #000000; stroke-width: 0.5"/>
      </g>
     </g>
     <g id="line2d_38">
      <g>
       <use xlink:href="#m780f331419" x="220.766323" y="147.644855" style="stroke: #000000; stroke-width: 0.5"/>
      </g>
     </g>
     <g id="text_8">
      <!-- $\mathdefault{1.0}$ -->
      <g transform="translate(14.150159 149.74074) scale(0.06 -0.06)">
       <use xlink:href="#LinLibertineT-31" transform="scale(0.996264)"/>
       <use xlink:href="#LibertineMathMI-94" transform="translate(47.92029 0) scale(0.996264)"/>
       <use xlink:href="#LinLibertineT-30" transform="translate(71.531789 0) scale(0.996264)"/>
      </g>
     </g>
    </g>
    <g id="ytick_3">
     <g id="line2d_39">
      <g>
       <use xlink:href="#mb670e77269" x="25.466323" y="128.556692" style="stroke: #000000; stroke-width: 0.5"/>
      </g>
     </g>
     <g id="line2d_40">
      <g>
       <use xlink:href="#m780f331419" x="220.766323" y="128.556692" style="stroke: #000000; stroke-width: 0.5"/>
      </g>
     </g>
     <g id="text_9">
      <!-- $\mathdefault{1.5}$ -->
      <g transform="translate(14.150159 130.652577) scale(0.06 -0.06)">
       <use xlink:href="#LinLibertineT-31" transform="scale(0.996264)"/>
       <use xlink:href="#LibertineMathMI-94" transform="translate(47.92029 0) scale(0.996264)"/>
       <use xlink:href="#LinLibertineT-35" transform="translate(71.531789 0) scale(0.996264)"/>
      </g>
     </g>
    </g>
    <g id="ytick_4">
     <g id="line2d_41">
      <g>
       <use xlink:href="#mb670e77269" x="25.466323" y="109.468528" style="stroke: #000000; stroke-width: 0.5"/>
      </g>
     </g>
     <g id="line2d_42">
      <g>
       <use xlink:href="#m780f331419" x="220.766323" y="109.468528" style="stroke: #000000; stroke-width: 0.5"/>
      </g>
     </g>
     <g id="text_10">
      <!-- $\mathdefault{2.0}$ -->
      <g transform="translate(14.150159 111.564413) scale(0.06 -0.06)">
       <use xlink:href="#LinLibertineT-32" transform="scale(0.996264)"/>
       <use xlink:href="#LibertineMathMI-94" transform="translate(47.92029 0) scale(0.996264)"/>
       <use xlink:href="#LinLibertineT-30" transform="translate(71.531789 0) scale(0.996264)"/>
      </g>
     </g>
    </g>
    <g id="ytick_5">
     <g id="line2d_43">
      <g>
       <use xlink:href="#mb670e77269" x="25.466323" y="90.380364" style="stroke: #000000; stroke-width: 0.5"/>
      </g>
     </g>
     <g id="line2d_44">
      <g>
       <use xlink:href="#m780f331419" x="220.766323" y="90.380364" style="stroke: #000000; stroke-width: 0.5"/>
      </g>
     </g>
     <g id="text_11">
      <!-- $\mathdefault{2.5}$ -->
      <g transform="translate(14.150159 92.476249) scale(0.06 -0.06)">
       <use xlink:href="#LinLibertineT-32" transform="scale(0.996264)"/>
       <use xlink:href="#LibertineMathMI-94" transform="translate(47.92029 0) scale(0.996264)"/>
       <use xlink:href="#LinLibertineT-35" transform="translate(71.531789 0) scale(0.996264)"/>
      </g>
     </g>
    </g>
    <g id="ytick_6">
     <g id="line2d_45">
      <g>
       <use xlink:href="#mb670e77269" x="25.466323" y="71.2922" style="stroke: #000000; stroke-width: 0.5"/>
      </g>
     </g>
     <g id="line2d_46">
      <g>
       <use xlink:href="#m780f331419" x="220.766323" y="71.2922" style="stroke: #000000; stroke-width: 0.5"/>
      </g>
     </g>
     <g id="text_12">
      <!-- $\mathdefault{3.0}$ -->
      <g transform="translate(14.150159 73.388085) scale(0.06 -0.06)">
       <defs>
        <path id="LinLibertineT-33" d="M 1376 3680 
C 1651 3680 1907 3513 1907 3105 
C 1907 2784 1536 2292 902 2202 
L 934 1997 
C 1043 2010 1158 2010 1242 2010 
C 1606 2010 2080 1907 2080 1185 
C 2080 334 1510 160 1286 160 
C 960 160 902 308 826 422 
C 762 512 678 589 550 589 
C 416 589 282 467 282 365 
C 282 109 819 -64 1203 -64 
C 1965 -64 2643 429 2643 1273 
C 2643 1971 2118 2221 1741 2285 
L 1734 2298 
C 2259 2548 2406 2810 2406 3149 
C 2406 3341 2362 3495 2208 3654 
C 2067 3795 1843 3904 1510 3904 
C 570 3904 301 3290 301 3079 
C 301 2989 365 2861 518 2861 
C 742 2861 768 3072 768 3193 
C 768 3603 1210 3680 1376 3680 
z
" transform="scale(0.015625)"/>
       </defs>
       <use xlink:href="#LinLibertineT-33" transform="scale(0.996264)"/>
       <use xlink:href="#LibertineMathMI-94" transform="translate(47.92029 0) scale(0.996264)"/>
       <use xlink:href="#LinLibertineT-30" transform="translate(71.531789 0) scale(0.996264)"/>
      </g>
     </g>
    </g>
    <g id="ytick_7">
     <g id="line2d_47">
      <g>
       <use xlink:href="#mb670e77269" x="25.466323" y="52.204037" style="stroke: #000000; stroke-width: 0.5"/>
      </g>
     </g>
     <g id="line2d_48">
      <g>
       <use xlink:href="#m780f331419" x="220.766323" y="52.204037" style="stroke: #000000; stroke-width: 0.5"/>
      </g>
     </g>
     <g id="text_13">
      <!-- $\mathdefault{3.5}$ -->
      <g transform="translate(14.150159 54.299921) scale(0.06 -0.06)">
       <use xlink:href="#LinLibertineT-33" transform="scale(0.996264)"/>
       <use xlink:href="#LibertineMathMI-94" transform="translate(47.92029 0) scale(0.996264)"/>
       <use xlink:href="#LinLibertineT-35" transform="translate(71.531789 0) scale(0.996264)"/>
      </g>
     </g>
    </g>
    <g id="ytick_8">
     <g id="line2d_49">
      <g>
       <use xlink:href="#mb670e77269" x="25.466323" y="33.115873" style="stroke: #000000; stroke-width: 0.5"/>
      </g>
     </g>
     <g id="line2d_50">
      <g>
       <use xlink:href="#m780f331419" x="220.766323" y="33.115873" style="stroke: #000000; stroke-width: 0.5"/>
      </g>
     </g>
     <g id="text_14">
      <!-- $\mathdefault{4.0}$ -->
      <g transform="translate(14.150159 35.211758) scale(0.06 -0.06)">
       <use xlink:href="#LinLibertineT-34" transform="scale(0.996264)"/>
       <use xlink:href="#LibertineMathMI-94" transform="translate(47.92029 0) scale(0.996264)"/>
       <use xlink:href="#LinLibertineT-30" transform="translate(71.531789 0) scale(0.996264)"/>
      </g>
     </g>
    </g>
    <g id="ytick_9">
     <g id="line2d_51">
      <defs>
       <path id="m7cd2a7f069" d="M 0 0 
L 1.5 0 
" style="stroke: #000000; stroke-width: 0.5"/>
      </defs>
      <g>
       <use xlink:href="#m7cd2a7f069" x="25.466323" y="162.915386" style="stroke: #000000; stroke-width: 0.5"/>
      </g>
     </g>
     <g id="line2d_52">
      <defs>
       <path id="m952b990355" d="M 0 0 
L -1.5 0 
" style="stroke: #000000; stroke-width: 0.5"/>
      </defs>
      <g>
       <use xlink:href="#m952b990355" x="220.766323" y="162.915386" style="stroke: #000000; stroke-width: 0.5"/>
      </g>
     </g>
    </g>
    <g id="ytick_10">
     <g id="line2d_53">
      <g>
       <use xlink:href="#m7cd2a7f069" x="25.466323" y="159.097754" style="stroke: #000000; stroke-width: 0.5"/>
      </g>
     </g>
     <g id="line2d_54">
      <g>
       <use xlink:href="#m952b990355" x="220.766323" y="159.097754" style="stroke: #000000; stroke-width: 0.5"/>
      </g>
     </g>
    </g>
    <g id="ytick_11">
     <g id="line2d_55">
      <g>
       <use xlink:href="#m7cd2a7f069" x="25.466323" y="155.280121" style="stroke: #000000; stroke-width: 0.5"/>
      </g>
     </g>
     <g id="line2d_56">
      <g>
       <use xlink:href="#m952b990355" x="220.766323" y="155.280121" style="stroke: #000000; stroke-width: 0.5"/>
      </g>
     </g>
    </g>
    <g id="ytick_12">
     <g id="line2d_57">
      <g>
       <use xlink:href="#m7cd2a7f069" x="25.466323" y="151.462488" style="stroke: #000000; stroke-width: 0.5"/>
      </g>
     </g>
     <g id="line2d_58">
      <g>
       <use xlink:href="#m952b990355" x="220.766323" y="151.462488" style="stroke: #000000; stroke-width: 0.5"/>
      </g>
     </g>
    </g>
    <g id="ytick_13">
     <g id="line2d_59">
      <g>
       <use xlink:href="#m7cd2a7f069" x="25.466323" y="143.827223" style="stroke: #000000; stroke-width: 0.5"/>
      </g>
     </g>
     <g id="line2d_60">
      <g>
       <use xlink:href="#m952b990355" x="220.766323" y="143.827223" style="stroke: #000000; stroke-width: 0.5"/>
      </g>
     </g>
    </g>
    <g id="ytick_14">
     <g id="line2d_61">
      <g>
       <use xlink:href="#m7cd2a7f069" x="25.466323" y="140.00959" style="stroke: #000000; stroke-width: 0.5"/>
      </g>
     </g>
     <g id="line2d_62">
      <g>
       <use xlink:href="#m952b990355" x="220.766323" y="140.00959" style="stroke: #000000; stroke-width: 0.5"/>
      </g>
     </g>
    </g>
    <g id="ytick_15">
     <g id="line2d_63">
      <g>
       <use xlink:href="#m7cd2a7f069" x="25.466323" y="136.191957" style="stroke: #000000; stroke-width: 0.5"/>
      </g>
     </g>
     <g id="line2d_64">
      <g>
       <use xlink:href="#m952b990355" x="220.766323" y="136.191957" style="stroke: #000000; stroke-width: 0.5"/>
      </g>
     </g>
    </g>
    <g id="ytick_16">
     <g id="line2d_65">
      <g>
       <use xlink:href="#m7cd2a7f069" x="25.466323" y="132.374324" style="stroke: #000000; stroke-width: 0.5"/>
      </g>
     </g>
     <g id="line2d_66">
      <g>
       <use xlink:href="#m952b990355" x="220.766323" y="132.374324" style="stroke: #000000; stroke-width: 0.5"/>
      </g>
     </g>
    </g>
    <g id="ytick_17">
     <g id="line2d_67">
      <g>
       <use xlink:href="#m7cd2a7f069" x="25.466323" y="124.739059" style="stroke: #000000; stroke-width: 0.5"/>
      </g>
     </g>
     <g id="line2d_68">
      <g>
       <use xlink:href="#m952b990355" x="220.766323" y="124.739059" style="stroke: #000000; stroke-width: 0.5"/>
      </g>
     </g>
    </g>
    <g id="ytick_18">
     <g id="line2d_69">
      <g>
       <use xlink:href="#m7cd2a7f069" x="25.466323" y="120.921426" style="stroke: #000000; stroke-width: 0.5"/>
      </g>
     </g>
     <g id="line2d_70">
      <g>
       <use xlink:href="#m952b990355" x="220.766323" y="120.921426" style="stroke: #000000; stroke-width: 0.5"/>
      </g>
     </g>
    </g>
    <g id="ytick_19">
     <g id="line2d_71">
      <g>
       <use xlink:href="#m7cd2a7f069" x="25.466323" y="117.103793" style="stroke: #000000; stroke-width: 0.5"/>
      </g>
     </g>
     <g id="line2d_72">
      <g>
       <use xlink:href="#m952b990355" x="220.766323" y="117.103793" style="stroke: #000000; stroke-width: 0.5"/>
      </g>
     </g>
    </g>
    <g id="ytick_20">
     <g id="line2d_73">
      <g>
       <use xlink:href="#m7cd2a7f069" x="25.466323" y="113.286161" style="stroke: #000000; stroke-width: 0.5"/>
      </g>
     </g>
     <g id="line2d_74">
      <g>
       <use xlink:href="#m952b990355" x="220.766323" y="113.286161" style="stroke: #000000; stroke-width: 0.5"/>
      </g>
     </g>
    </g>
    <g id="ytick_21">
     <g id="line2d_75">
      <g>
       <use xlink:href="#m7cd2a7f069" x="25.466323" y="105.650895" style="stroke: #000000; stroke-width: 0.5"/>
      </g>
     </g>
     <g id="line2d_76">
      <g>
       <use xlink:href="#m952b990355" x="220.766323" y="105.650895" style="stroke: #000000; stroke-width: 0.5"/>
      </g>
     </g>
    </g>
    <g id="ytick_22">
     <g id="line2d_77">
      <g>
       <use xlink:href="#m7cd2a7f069" x="25.466323" y="101.833262" style="stroke: #000000; stroke-width: 0.5"/>
      </g>
     </g>
     <g id="line2d_78">
      <g>
       <use xlink:href="#m952b990355" x="220.766323" y="101.833262" style="stroke: #000000; stroke-width: 0.5"/>
      </g>
     </g>
    </g>
    <g id="ytick_23">
     <g id="line2d_79">
      <g>
       <use xlink:href="#m7cd2a7f069" x="25.466323" y="98.01563" style="stroke: #000000; stroke-width: 0.5"/>
      </g>
     </g>
     <g id="line2d_80">
      <g>
       <use xlink:href="#m952b990355" x="220.766323" y="98.01563" style="stroke: #000000; stroke-width: 0.5"/>
      </g>
     </g>
    </g>
    <g id="ytick_24">
     <g id="line2d_81">
      <g>
       <use xlink:href="#m7cd2a7f069" x="25.466323" y="94.197997" style="stroke: #000000; stroke-width: 0.5"/>
      </g>
     </g>
     <g id="line2d_82">
      <g>
       <use xlink:href="#m952b990355" x="220.766323" y="94.197997" style="stroke: #000000; stroke-width: 0.5"/>
      </g>
     </g>
    </g>
    <g id="ytick_25">
     <g id="line2d_83">
      <g>
       <use xlink:href="#m7cd2a7f069" x="25.466323" y="86.562731" style="stroke: #000000; stroke-width: 0.5"/>
      </g>
     </g>
     <g id="line2d_84">
      <g>
       <use xlink:href="#m952b990355" x="220.766323" y="86.562731" style="stroke: #000000; stroke-width: 0.5"/>
      </g>
     </g>
    </g>
    <g id="ytick_26">
     <g id="line2d_85">
      <g>
       <use xlink:href="#m7cd2a7f069" x="25.466323" y="82.745099" style="stroke: #000000; stroke-width: 0.5"/>
      </g>
     </g>
     <g id="line2d_86">
      <g>
       <use xlink:href="#m952b990355" x="220.766323" y="82.745099" style="stroke: #000000; stroke-width: 0.5"/>
      </g>
     </g>
    </g>
    <g id="ytick_27">
     <g id="line2d_87">
      <g>
       <use xlink:href="#m7cd2a7f069" x="25.466323" y="78.927466" style="stroke: #000000; stroke-width: 0.5"/>
      </g>
     </g>
     <g id="line2d_88">
      <g>
       <use xlink:href="#m952b990355" x="220.766323" y="78.927466" style="stroke: #000000; stroke-width: 0.5"/>
      </g>
     </g>
    </g>
    <g id="ytick_28">
     <g id="line2d_89">
      <g>
       <use xlink:href="#m7cd2a7f069" x="25.466323" y="75.109833" style="stroke: #000000; stroke-width: 0.5"/>
      </g>
     </g>
     <g id="line2d_90">
      <g>
       <use xlink:href="#m952b990355" x="220.766323" y="75.109833" style="stroke: #000000; stroke-width: 0.5"/>
      </g>
     </g>
    </g>
    <g id="ytick_29">
     <g id="line2d_91">
      <g>
       <use xlink:href="#m7cd2a7f069" x="25.466323" y="67.474568" style="stroke: #000000; stroke-width: 0.5"/>
      </g>
     </g>
     <g id="line2d_92">
      <g>
       <use xlink:href="#m952b990355" x="220.766323" y="67.474568" style="stroke: #000000; stroke-width: 0.5"/>
      </g>
     </g>
    </g>
    <g id="ytick_30">
     <g id="line2d_93">
      <g>
       <use xlink:href="#m7cd2a7f069" x="25.466323" y="63.656935" style="stroke: #000000; stroke-width: 0.5"/>
      </g>
     </g>
     <g id="line2d_94">
      <g>
       <use xlink:href="#m952b990355" x="220.766323" y="63.656935" style="stroke: #000000; stroke-width: 0.5"/>
      </g>
     </g>
    </g>
    <g id="ytick_31">
     <g id="line2d_95">
      <g>
       <use xlink:href="#m7cd2a7f069" x="25.466323" y="59.839302" style="stroke: #000000; stroke-width: 0.5"/>
      </g>
     </g>
     <g id="line2d_96">
      <g>
       <use xlink:href="#m952b990355" x="220.766323" y="59.839302" style="stroke: #000000; stroke-width: 0.5"/>
      </g>
     </g>
    </g>
    <g id="ytick_32">
     <g id="line2d_97">
      <g>
       <use xlink:href="#m7cd2a7f069" x="25.466323" y="56.021669" style="stroke: #000000; stroke-width: 0.5"/>
      </g>
     </g>
     <g id="line2d_98">
      <g>
       <use xlink:href="#m952b990355" x="220.766323" y="56.021669" style="stroke: #000000; stroke-width: 0.5"/>
      </g>
     </g>
    </g>
    <g id="ytick_33">
     <g id="line2d_99">
      <g>
       <use xlink:href="#m7cd2a7f069" x="25.466323" y="48.386404" style="stroke: #000000; stroke-width: 0.5"/>
      </g>
     </g>
     <g id="line2d_100">
      <g>
       <use xlink:href="#m952b990355" x="220.766323" y="48.386404" style="stroke: #000000; stroke-width: 0.5"/>
      </g>
     </g>
    </g>
    <g id="ytick_34">
     <g id="line2d_101">
      <g>
       <use xlink:href="#m7cd2a7f069" x="25.466323" y="44.568771" style="stroke: #000000; stroke-width: 0.5"/>
      </g>
     </g>
     <g id="line2d_102">
      <g>
       <use xlink:href="#m952b990355" x="220.766323" y="44.568771" style="stroke: #000000; stroke-width: 0.5"/>
      </g>
     </g>
    </g>
    <g id="ytick_35">
     <g id="line2d_103">
      <g>
       <use xlink:href="#m7cd2a7f069" x="25.466323" y="40.751138" style="stroke: #000000; stroke-width: 0.5"/>
      </g>
     </g>
     <g id="line2d_104">
      <g>
       <use xlink:href="#m952b990355" x="220.766323" y="40.751138" style="stroke: #000000; stroke-width: 0.5"/>
      </g>
     </g>
    </g>
    <g id="ytick_36">
     <g id="line2d_105">
      <g>
       <use xlink:href="#m7cd2a7f069" x="25.466323" y="36.933506" style="stroke: #000000; stroke-width: 0.5"/>
      </g>
     </g>
     <g id="line2d_106">
      <g>
       <use xlink:href="#m952b990355" x="220.766323" y="36.933506" style="stroke: #000000; stroke-width: 0.5"/>
      </g>
     </g>
    </g>
    <g id="ytick_37">
     <g id="line2d_107">
      <g>
       <use xlink:href="#m7cd2a7f069" x="25.466323" y="29.29824" style="stroke: #000000; stroke-width: 0.5"/>
      </g>
     </g>
     <g id="line2d_108">
      <g>
       <use xlink:href="#m952b990355" x="220.766323" y="29.29824" style="stroke: #000000; stroke-width: 0.5"/>
      </g>
     </g>
    </g>
    <g id="ytick_38">
     <g id="line2d_109">
      <g>
       <use xlink:href="#m7cd2a7f069" x="25.466323" y="25.480607" style="stroke: #000000; stroke-width: 0.5"/>
      </g>
     </g>
     <g id="line2d_110">
      <g>
       <use xlink:href="#m952b990355" x="220.766323" y="25.480607" style="stroke: #000000; stroke-width: 0.5"/>
      </g>
     </g>
    </g>
    <g id="text_15">
     <!-- kg / kg (battery) -->
     <g transform="translate(8.490398 119.535067) rotate(-90) scale(0.07 -0.07)">
      <defs>
       <path id="LinLibertineT-6b" d="M 550 794 
C 550 263 480 237 122 212 
C 83 173 83 39 122 0 
C 333 0 550 0 806 0 
C 1030 0 1242 0 1389 0 
C 1427 39 1427 171 1389 210 
C 1126 235 1056 260 1056 787 
L 1056 1339 
C 1178 1339 1267 1333 1331 1313 
C 1402 1262 1459 1205 1536 1103 
L 2003 478 
C 2189 230 2266 108 2272 32 
C 2272 13 2278 0 2298 0 
C 2426 0 2566 0 2694 0 
C 2893 0 3091 0 3219 0 
C 3258 39 3258 172 3219 211 
C 3002 236 2842 262 2669 478 
L 1824 1537 
C 1798 1569 1779 1595 1779 1627 
C 1779 1652 1779 1665 1805 1691 
L 2368 2271 
C 2560 2476 2784 2526 3040 2552 
C 3078 2590 3078 2724 3040 2762 
C 2893 2762 2714 2762 2483 2762 
C 2240 2762 2003 2762 1856 2762 
C 1818 2724 1818 2590 1856 2552 
C 2214 2526 2061 2304 2003 2227 
C 1856 2042 1658 1824 1491 1704 
C 1350 1601 1178 1525 1056 1506 
L 1056 3742 
C 1056 4159 1082 4416 1082 4416 
C 1082 4460 1056 4480 998 4480 
C 838 4414 358 4321 102 4301 
C 90 4247 102 4141 141 4101 
C 474 4101 550 4133 550 3594 
L 550 794 
z
" transform="scale(0.015625)"/>
       <path id="LinLibertineT-67" d="M 2042 1798 
C 2042 1209 1741 1088 1504 1088 
C 966 1088 909 1538 909 1944 
C 909 2389 1069 2617 1421 2617 
C 1824 2617 2042 2325 2042 1798 
z
M 845 -84 
C 915 -103 1018 -116 1101 -116 
C 1299 -116 1478 -71 1568 -71 
C 1888 -71 2157 -71 2342 -176 
C 2592 -319 2669 -411 2669 -581 
C 2669 -1051 1990 -1299 1414 -1299 
C 1184 -1299 646 -1115 646 -682 
C 646 -466 659 -307 845 -84 
z
M 2842 2463 
C 2963 2463 3078 2579 3078 2707 
C 3078 2841 2957 2944 2784 2944 
C 2618 2944 2310 2841 2144 2636 
C 2067 2687 1856 2816 1478 2816 
C 909 2816 384 2435 384 1850 
C 384 1506 538 1310 717 1138 
C 538 983 435 705 435 485 
C 435 252 563 71 730 -13 
C 384 -220 205 -519 205 -797 
C 205 -1361 730 -1536 1222 -1536 
C 2086 -1536 3021 -1115 3021 -414 
C 3021 -206 2925 -43 2739 113 
C 2490 320 2042 320 1805 320 
C 1690 320 1530 294 1376 256 
C 1280 256 1216 256 1184 256 
C 998 256 774 350 774 637 
C 774 770 813 911 890 1024 
C 1043 934 1222 889 1472 889 
C 2035 889 2554 1235 2554 1853 
C 2554 2148 2464 2318 2278 2507 
C 2323 2577 2451 2674 2534 2674 
C 2579 2674 2624 2653 2662 2590 
C 2688 2533 2771 2463 2842 2463 
z
" transform="scale(0.015625)"/>
       <path id="LinLibertineT-2f" d="M 1875 4128 
L 1613 4128 
L 96 -384 
L 358 -384 
L 1875 4128 
z
" transform="scale(0.015625)"/>
       <path id="LinLibertineT-28" d="M 282 1616 
C 282 1328 307 -154 1638 -1308 
C 1702 -1296 1754 -1251 1773 -1199 
C 1562 -956 813 -71 813 1616 
C 813 3303 1568 4188 1773 4419 
C 1754 4483 1709 4528 1638 4534 
C 877 3880 282 2809 282 1616 
z
" transform="scale(0.015625)"/>
       <path id="LinLibertineT-62" d="M 1114 2328 
C 1280 2476 1472 2533 1658 2533 
C 2048 2533 2368 2059 2368 1437 
C 2368 706 2074 154 1466 154 
C 1267 154 1133 295 1005 455 
L 1005 2059 
C 1005 2193 1030 2258 1114 2328 
z
M 1069 2527 
C 1030 2489 1005 2501 1005 2559 
L 1005 3741 
C 1005 4159 1030 4416 1030 4416 
C 1030 4460 1005 4480 947 4480 
C 787 4414 307 4320 51 4300 
C 38 4246 51 4140 90 4100 
C 422 4100 499 4132 499 3592 
L 499 456 
C 499 205 493 90 474 0 
C 506 -42 538 -64 614 -64 
C 653 -38 717 19 768 77 
C 832 154 870 154 941 96 
C 1088 -26 1280 -64 1504 -64 
C 2157 -64 2918 532 2918 1552 
C 2918 2335 2342 2816 1786 2816 
C 1510 2816 1267 2707 1069 2527 
z
" transform="scale(0.015625)"/>
       <path id="LinLibertineT-8b" d="M 576 2496 
L 576 570 
C 576 115 768 -64 1069 -64 
C 1389 -64 1683 122 1850 371 
C 1830 435 1805 461 1747 467 
C 1651 384 1472 288 1293 288 
C 1120 288 1082 480 1082 877 
L 1082 2496 
L 2432 2496 
L 2432 570 
C 2432 115 2630 -64 2925 -64 
C 3219 -64 3539 77 3789 358 
C 3776 422 3738 461 3674 467 
C 3507 339 3315 288 3149 288 
C 2976 288 2938 480 2938 877 
L 2938 2496 
L 3603 2496 
C 3667 2496 3757 2522 3757 2579 
L 3757 2708 
C 3757 2733 3738 2746 3706 2746 
L 2938 2746 
L 2938 2995 
C 2938 3411 2963 3667 2963 3667 
C 2963 3712 2938 3731 2880 3731 
L 2509 3565 
C 2470 3539 2413 3526 2419 3482 
C 2432 3334 2432 3277 2432 2746 
C 2163 2746 1760 2746 1082 2746 
L 1082 2931 
C 1082 3347 1107 3603 1107 3603 
C 1107 3648 1082 3667 1024 3667 
L 653 3501 
C 614 3475 557 3462 563 3418 
C 576 3270 576 3277 576 2746 
L 282 2746 
C 192 2746 166 2669 166 2618 
L 166 2534 
C 166 2502 173 2496 198 2496 
L 576 2496 
z
" transform="scale(0.015625)"/>
       <path id="LinLibertineT-79" d="M 1306 -1010 
C 1408 -830 1491 -650 1568 -458 
C 2080 781 2368 1443 2701 2161 
C 2829 2432 2918 2534 3219 2573 
C 3258 2611 3258 2746 3219 2784 
C 3091 2784 2944 2784 2765 2784 
C 2573 2784 2374 2784 2182 2784 
C 2144 2746 2144 2611 2182 2573 
C 2387 2553 2592 2515 2490 2284 
L 1856 815 
C 1811 713 1754 693 1702 822 
L 1133 2156 
C 1018 2425 986 2547 1344 2573 
C 1382 2611 1382 2746 1344 2784 
C 1107 2784 851 2784 621 2784 
C 403 2784 230 2784 102 2784 
C 64 2746 64 2611 102 2573 
C 358 2541 442 2483 608 2091 
L 1331 402 
C 1389 274 1485 -21 1421 -201 
C 1344 -413 1267 -593 1171 -792 
C 1101 -920 1011 -978 851 -978 
C 762 -978 736 -959 666 -959 
C 480 -959 384 -1151 384 -1235 
C 384 -1369 512 -1472 685 -1472 
C 819 -1472 1075 -1421 1306 -1010 
z
" transform="scale(0.015625)"/>
       <path id="LinLibertineT-29" d="M 1626 1616 
C 1626 1905 1600 3386 269 4541 
C 205 4528 154 4483 134 4432 
C 346 4188 1094 3303 1094 1616 
C 1094 -71 339 -956 134 -1187 
C 154 -1251 198 -1296 269 -1302 
C 1030 -648 1626 423 1626 1616 
z
" transform="scale(0.015625)"/>
      </defs>
      <use xlink:href="#LinLibertineT-6b" transform="scale(0.996264)"/>
      <use xlink:href="#LinLibertineT-67" transform="translate(51.008714 0) scale(0.996264)"/>
      <use xlink:href="#LinLibertineT-2f" transform="translate(125.728515 0) scale(0.996264)"/>
      <use xlink:href="#LinLibertineT-6b" transform="translate(182.814431 0) scale(0.996264)"/>
      <use xlink:href="#LinLibertineT-67" transform="translate(233.823145 0) scale(0.996264)"/>
      <use xlink:href="#LinLibertineT-28" transform="translate(308.542946 0) scale(0.996264)"/>
      <use xlink:href="#LinLibertineT-62" transform="translate(339.42716 0) scale(0.996264)"/>
      <use xlink:href="#LinLibertineT-61" transform="translate(388.542979 0) scale(0.996264)"/>
      <use xlink:href="#LinLibertineT-8b" transform="translate(434.072211 0) scale(0.996264)"/>
      <use xlink:href="#LinLibertineT-65" transform="translate(495.242845 0) scale(0.996264)"/>
      <use xlink:href="#LinLibertineT-72" transform="translate(539.775798 0) scale(0.996264)"/>
      <use xlink:href="#LinLibertineT-79" transform="translate(578.331212 0) scale(0.996264)"/>
      <use xlink:href="#LinLibertineT-29" transform="translate(627.945163 0) scale(0.996264)"/>
     </g>
    </g>
   </g>
   <g id="line2d_111">
    <path d="M 34.343596 109.959655 
L 78.729959 139.159075 
L 123.116323 149.466969 
L 167.502686 151.603718 
L 211.88905 153.381148 
" clip-path="url(#pc2ee4964f9)" style="fill: none; stroke-dasharray: 0.8,2.4; stroke-dashoffset: 0; stroke: #377eb8; stroke-width: 0.8"/>
    <defs>
     <path id="m76dff854dc" d="M 0 1.5 
C 0.397805 1.5 0.77937 1.341951 1.06066 1.06066 
C 1.341951 0.77937 1.5 0.397805 1.5 0 
C 1.5 -0.397805 1.341951 -0.77937 1.06066 -1.06066 
C 0.77937 -1.341951 0.397805 -1.5 0 -1.5 
C -0.397805 -1.5 -0.77937 -1.341951 -1.06066 -1.06066 
C -1.341951 -0.77937 -1.5 -0.397805 -1.5 0 
C -1.5 0.397805 -1.341951 0.77937 -1.06066 1.06066 
C -0.77937 1.341951 -0.397805 1.5 0 1.5 
z
" style="stroke: #377eb8; stroke-width: 0.25"/>
    </defs>
    <g clip-path="url(#pc2ee4964f9)">
     <use xlink:href="#m76dff854dc" x="34.343596" y="109.959655" style="fill-opacity: 0; stroke: #377eb8; stroke-width: 0.25"/>
     <use xlink:href="#m76dff854dc" x="78.729959" y="139.159075" style="fill-opacity: 0; stroke: #377eb8; stroke-width: 0.25"/>
     <use xlink:href="#m76dff854dc" x="123.116323" y="149.466969" style="fill-opacity: 0; stroke: #377eb8; stroke-width: 0.25"/>
     <use xlink:href="#m76dff854dc" x="167.502686" y="151.603718" style="fill-opacity: 0; stroke: #377eb8; stroke-width: 0.25"/>
     <use xlink:href="#m76dff854dc" x="211.88905" y="153.381148" style="fill-opacity: 0; stroke: #377eb8; stroke-width: 0.25"/>
    </g>
   </g>
   <g id="line2d_112">
    <path d="M 34.343596 127.007342 
L 78.729959 162.360923 
L 123.116323 162.641467 
L 167.502686 162.64122 
L 211.88905 162.667926 
" clip-path="url(#pc2ee4964f9)" style="fill: none; stroke-dasharray: 2.4,4; stroke-dashoffset: 0; stroke: #377eb8; stroke-width: 0.8"/>
    <defs>
     <path id="m93ea370168" d="M -1.5 1.5 
L 1.5 -1.5 
M -1.5 -1.5 
L 1.5 1.5 
" style="stroke: #377eb8; stroke-width: 0.25"/>
    </defs>
    <g clip-path="url(#pc2ee4964f9)">
     <use xlink:href="#m93ea370168" x="34.343596" y="127.007342" style="fill-opacity: 0; stroke: #377eb8; stroke-width: 0.25"/>
     <use xlink:href="#m93ea370168" x="78.729959" y="162.360923" style="fill-opacity: 0; stroke: #377eb8; stroke-width: 0.25"/>
     <use xlink:href="#m93ea370168" x="123.116323" y="162.641467" style="fill-opacity: 0; stroke: #377eb8; stroke-width: 0.25"/>
     <use xlink:href="#m93ea370168" x="167.502686" y="162.64122" style="fill-opacity: 0; stroke: #377eb8; stroke-width: 0.25"/>
     <use xlink:href="#m93ea370168" x="211.88905" y="162.667926" style="fill-opacity: 0; stroke: #377eb8; stroke-width: 0.25"/>
    </g>
   </g>
   <g id="line2d_113">
    <path d="M 34.343596 47.371298 
L 78.729959 94.247144 
L 123.116323 108.752531 
L 167.502686 111.794876 
L 211.88905 116.46752 
" clip-path="url(#pc2ee4964f9)" style="fill: none; stroke-dasharray: 0.8,2.4; stroke-dashoffset: 0; stroke: #ff7f00; stroke-width: 0.8"/>
    <defs>
     <path id="mab4a078f97" d="M 0 1.5 
C 0.397805 1.5 0.77937 1.341951 1.06066 1.06066 
C 1.341951 0.77937 1.5 0.397805 1.5 0 
C 1.5 -0.397805 1.341951 -0.77937 1.06066 -1.06066 
C 0.77937 -1.341951 0.397805 -1.5 0 -1.5 
C -0.397805 -1.5 -0.77937 -1.341951 -1.06066 -1.06066 
C -1.341951 -0.77937 -1.5 -0.397805 -1.5 0 
C -1.5 0.397805 -1.341951 0.77937 -1.06066 1.06066 
C -0.77937 1.341951 -0.397805 1.5 0 1.5 
z
" style="stroke: #ff7f00; stroke-width: 0.25"/>
    </defs>
    <g clip-path="url(#pc2ee4964f9)">
     <use xlink:href="#mab4a078f97" x="34.343596" y="47.371298" style="fill-opacity: 0; stroke: #ff7f00; stroke-width: 0.25"/>
     <use xlink:href="#mab4a078f97" x="78.729959" y="94.247144" style="fill-opacity: 0; stroke: #ff7f00; stroke-width: 0.25"/>
     <use xlink:href="#mab4a078f97" x="123.116323" y="108.752531" style="fill-opacity: 0; stroke: #ff7f00; stroke-width: 0.25"/>
     <use xlink:href="#mab4a078f97" x="167.502686" y="111.794876" style="fill-opacity: 0; stroke: #ff7f00; stroke-width: 0.25"/>
     <use xlink:href="#mab4a078f97" x="211.88905" y="116.46752" style="fill-opacity: 0; stroke: #ff7f00; stroke-width: 0.25"/>
    </g>
   </g>
   <g id="line2d_114">
    <path d="M 34.343596 90.373462 
L 78.729959 142.950821 
L 123.116323 143.213158 
L 167.502686 143.161356 
L 211.88905 143.205037 
" clip-path="url(#pc2ee4964f9)" style="fill: none; stroke-dasharray: 2.4,4; stroke-dashoffset: 0; stroke: #ff7f00; stroke-width: 0.8"/>
    <defs>
     <path id="m148f564772" d="M -1.5 1.5 
L 1.5 -1.5 
M -1.5 -1.5 
L 1.5 1.5 
" style="stroke: #ff7f00; stroke-width: 0.25"/>
    </defs>
    <g clip-path="url(#pc2ee4964f9)">
     <use xlink:href="#m148f564772" x="34.343596" y="90.373462" style="fill-opacity: 0; stroke: #ff7f00; stroke-width: 0.25"/>
     <use xlink:href="#m148f564772" x="78.729959" y="142.950821" style="fill-opacity: 0; stroke: #ff7f00; stroke-width: 0.25"/>
     <use xlink:href="#m148f564772" x="123.116323" y="143.213158" style="fill-opacity: 0; stroke: #ff7f00; stroke-width: 0.25"/>
     <use xlink:href="#m148f564772" x="167.502686" y="143.161356" style="fill-opacity: 0; stroke: #ff7f00; stroke-width: 0.25"/>
     <use xlink:href="#m148f564772" x="211.88905" y="143.205037" style="fill-opacity: 0; stroke: #ff7f00; stroke-width: 0.25"/>
    </g>
   </g>
   <g id="line2d_115">
    <path d="M 34.343596 30.367926 
L 78.729959 82.412042 
L 123.116323 98.24708 
L 167.502686 101.691127 
L 211.88905 107.469485 
" clip-path="url(#pc2ee4964f9)" style="fill: none; stroke-dasharray: 0.8,2.4; stroke-dashoffset: 0; stroke: #4daf4a; stroke-width: 0.8"/>
    <defs>
     <path id="mcd1d4c90fe" d="M 0 1.5 
C 0.397805 1.5 0.77937 1.341951 1.06066 1.06066 
C 1.341951 0.77937 1.5 0.397805 1.5 0 
C 1.5 -0.397805 1.341951 -0.77937 1.06066 -1.06066 
C 0.77937 -1.341951 0.397805 -1.5 0 -1.5 
C -0.397805 -1.5 -0.77937 -1.341951 -1.06066 -1.06066 
C -1.341951 -0.77937 -1.5 -0.397805 -1.5 0 
C -1.5 0.397805 -1.341951 0.77937 -1.06066 1.06066 
C -0.77937 1.341951 -0.397805 1.5 0 1.5 
z
" style="stroke: #4daf4a; stroke-width: 0.25"/>
    </defs>
    <g clip-path="url(#pc2ee4964f9)">
     <use xlink:href="#mcd1d4c90fe" x="34.343596" y="30.367926" style="fill-opacity: 0; stroke: #4daf4a; stroke-width: 0.25"/>
     <use xlink:href="#mcd1d4c90fe" x="78.729959" y="82.412042" style="fill-opacity: 0; stroke: #4daf4a; stroke-width: 0.25"/>
     <use xlink:href="#mcd1d4c90fe" x="123.116323" y="98.24708" style="fill-opacity: 0; stroke: #4daf4a; stroke-width: 0.25"/>
     <use xlink:href="#mcd1d4c90fe" x="167.502686" y="101.691127" style="fill-opacity: 0; stroke: #4daf4a; stroke-width: 0.25"/>
     <use xlink:href="#mcd1d4c90fe" x="211.88905" y="107.469485" style="fill-opacity: 0; stroke: #4daf4a; stroke-width: 0.25"/>
    </g>
   </g>
   <g id="line2d_116">
    <path d="M 34.343596 82.823633 
L 78.729959 140.476028 
L 123.116323 140.685074 
L 167.502686 140.622288 
L 211.88905 140.676264 
" clip-path="url(#pc2ee4964f9)" style="fill: none; stroke-dasharray: 2.4,4; stroke-dashoffset: 0; stroke: #4daf4a; stroke-width: 0.8"/>
    <defs>
     <path id="m9c555cc8f1" d="M -1.5 1.5 
L 1.5 -1.5 
M -1.5 -1.5 
L 1.5 1.5 
" style="stroke: #4daf4a; stroke-width: 0.25"/>
    </defs>
    <g clip-path="url(#pc2ee4964f9)">
     <use xlink:href="#m9c555cc8f1" x="34.343596" y="82.823633" style="fill-opacity: 0; stroke: #4daf4a; stroke-width: 0.25"/>
     <use xlink:href="#m9c555cc8f1" x="78.729959" y="140.476028" style="fill-opacity: 0; stroke: #4daf4a; stroke-width: 0.25"/>
     <use xlink:href="#m9c555cc8f1" x="123.116323" y="140.685074" style="fill-opacity: 0; stroke: #4daf4a; stroke-width: 0.25"/>
     <use xlink:href="#m9c555cc8f1" x="167.502686" y="140.622288" style="fill-opacity: 0; stroke: #4daf4a; stroke-width: 0.25"/>
     <use xlink:href="#m9c555cc8f1" x="211.88905" y="140.676264" style="fill-opacity: 0; stroke: #4daf4a; stroke-width: 0.25"/>
    </g>
   </g>
   <g id="line2d_117">
    <path d="M 34.343596 39.938375 
L 78.729959 88.905825 
L 123.116323 103.925771 
L 167.502686 107.121048 
L 211.88905 112.198488 
" clip-path="url(#pc2ee4964f9)" style="fill: none; stroke-dasharray: 0.8,2.4; stroke-dashoffset: 0; stroke: #e41a1c; stroke-width: 0.8"/>
    <defs>
     <path id="m9446f4bd88" d="M 0 1.5 
C 0.397805 1.5 0.77937 1.341951 1.06066 1.06066 
C 1.341951 0.77937 1.5 0.397805 1.5 0 
C 1.5 -0.397805 1.341951 -0.77937 1.06066 -1.06066 
C 0.77937 -1.341951 0.397805 -1.5 0 -1.5 
C -0.397805 -1.5 -0.77937 -1.341951 -1.06066 -1.06066 
C -1.341951 -0.77937 -1.5 -0.397805 -1.5 0 
C -1.5 0.397805 -1.341951 0.77937 -1.06066 1.06066 
C -0.77937 1.341951 -0.397805 1.5 0 1.5 
z
" style="stroke: #e41a1c; stroke-width: 0.25"/>
    </defs>
    <g clip-path="url(#pc2ee4964f9)">
     <use xlink:href="#m9446f4bd88" x="34.343596" y="39.938375" style="fill-opacity: 0; stroke: #e41a1c; stroke-width: 0.25"/>
     <use xlink:href="#m9446f4bd88" x="78.729959" y="88.905825" style="fill-opacity: 0; stroke: #e41a1c; stroke-width: 0.25"/>
     <use xlink:href="#m9446f4bd88" x="123.116323" y="103.925771" style="fill-opacity: 0; stroke: #e41a1c; stroke-width: 0.25"/>
     <use xlink:href="#m9446f4bd88" x="167.502686" y="107.121048" style="fill-opacity: 0; stroke: #e41a1c; stroke-width: 0.25"/>
     <use xlink:href="#m9446f4bd88" x="211.88905" y="112.198488" style="fill-opacity: 0; stroke: #e41a1c; stroke-width: 0.25"/>
    </g>
   </g>
   <g id="line2d_118">
    <path d="M 34.343596 86.31599 
L 78.729959 141.127261 
L 123.116323 141.376846 
L 167.502686 141.321207 
L 211.88905 141.368889 
" clip-path="url(#pc2ee4964f9)" style="fill: none; stroke-dasharray: 2.4,4; stroke-dashoffset: 0; stroke: #e41a1c; stroke-width: 0.8"/>
    <defs>
     <path id="m7a513f95b8" d="M -1.5 1.5 
L 1.5 -1.5 
M -1.5 -1.5 
L 1.5 1.5 
" style="stroke: #e41a1c; stroke-width: 0.25"/>
    </defs>
    <g clip-path="url(#pc2ee4964f9)">
     <use xlink:href="#m7a513f95b8" x="34.343596" y="86.31599" style="fill-opacity: 0; stroke: #e41a1c; stroke-width: 0.25"/>
     <use xlink:href="#m7a513f95b8" x="78.729959" y="141.127261" style="fill-opacity: 0; stroke: #e41a1c; stroke-width: 0.25"/>
     <use xlink:href="#m7a513f95b8" x="123.116323" y="141.376846" style="fill-opacity: 0; stroke: #e41a1c; stroke-width: 0.25"/>
     <use xlink:href="#m7a513f95b8" x="167.502686" y="141.321207" style="fill-opacity: 0; stroke: #e41a1c; stroke-width: 0.25"/>
     <use xlink:href="#m7a513f95b8" x="211.88905" y="141.368889" style="fill-opacity: 0; stroke: #e41a1c; stroke-width: 0.25"/>
    </g>
   </g>
   <g id="line2d_119">
    <path d="M 34.343596 85.349993 
L 78.729959 118.26456 
L 123.116323 129.130288 
L 167.502686 131.390903 
L 211.88905 134.232073 
" clip-path="url(#pc2ee4964f9)" style="fill: none; stroke-dasharray: 0.8,2.4; stroke-dashoffset: 0; stroke: #984ea3; stroke-width: 0.8"/>
    <defs>
     <path id="mdfd28882a1" d="M 0 1.5 
C 0.397805 1.5 0.77937 1.341951 1.06066 1.06066 
C 1.341951 0.77937 1.5 0.397805 1.5 0 
C 1.5 -0.397805 1.341951 -0.77937 1.06066 -1.06066 
C 0.77937 -1.341951 0.397805 -1.5 0 -1.5 
C -0.397805 -1.5 -0.77937 -1.341951 -1.06066 -1.06066 
C -1.341951 -0.77937 -1.5 -0.397805 -1.5 0 
C -1.5 0.397805 -1.341951 0.77937 -1.06066 1.06066 
C -0.77937 1.341951 -0.397805 1.5 0 1.5 
z
" style="stroke: #984ea3; stroke-width: 0.25"/>
    </defs>
    <g clip-path="url(#pc2ee4964f9)">
     <use xlink:href="#mdfd28882a1" x="34.343596" y="85.349993" style="fill-opacity: 0; stroke: #984ea3; stroke-width: 0.25"/>
     <use xlink:href="#mdfd28882a1" x="78.729959" y="118.26456" style="fill-opacity: 0; stroke: #984ea3; stroke-width: 0.25"/>
     <use xlink:href="#mdfd28882a1" x="123.116323" y="129.130288" style="fill-opacity: 0; stroke: #984ea3; stroke-width: 0.25"/>
     <use xlink:href="#mdfd28882a1" x="167.502686" y="131.390903" style="fill-opacity: 0; stroke: #984ea3; stroke-width: 0.25"/>
     <use xlink:href="#mdfd28882a1" x="211.88905" y="134.232073" style="fill-opacity: 0; stroke: #984ea3; stroke-width: 0.25"/>
    </g>
   </g>
   <g id="line2d_120">
    <path d="M 34.343596 111.921833 
L 78.729959 149.102665 
L 123.116323 149.448884 
L 167.502686 149.419384 
L 211.88905 149.445204 
" clip-path="url(#pc2ee4964f9)" style="fill: none; stroke-dasharray: 2.4,4; stroke-dashoffset: 0; stroke: #984ea3; stroke-width: 0.8"/>
    <defs>
     <path id="m1ea01100c1" d="M -1.5 1.5 
L 1.5 -1.5 
M -1.5 -1.5 
L 1.5 1.5 
" style="stroke: #984ea3; stroke-width: 0.25"/>
    </defs>
    <g clip-path="url(#pc2ee4964f9)">
     <use xlink:href="#m1ea01100c1" x="34.343596" y="111.921833" style="fill-opacity: 0; stroke: #984ea3; stroke-width: 0.25"/>
     <use xlink:href="#m1ea01100c1" x="78.729959" y="149.102665" style="fill-opacity: 0; stroke: #984ea3; stroke-width: 0.25"/>
     <use xlink:href="#m1ea01100c1" x="123.116323" y="149.448884" style="fill-opacity: 0; stroke: #984ea3; stroke-width: 0.25"/>
     <use xlink:href="#m1ea01100c1" x="167.502686" y="149.419384" style="fill-opacity: 0; stroke: #984ea3; stroke-width: 0.25"/>
     <use xlink:href="#m1ea01100c1" x="211.88905" y="149.445204" style="fill-opacity: 0; stroke: #984ea3; stroke-width: 0.25"/>
    </g>
   </g>
   <g id="patch_3">
    <path d="M 25.466323 169.282926 
L 25.466323 23.752926 
" style="fill: none; stroke: #000000; stroke-width: 0.5; stroke-linejoin: miter; stroke-linecap: square"/>
   </g>
   <g id="patch_4">
    <path d="M 220.766323 169.282926 
L 220.766323 23.752926 
" style="fill: none; stroke: #000000; stroke-width: 0.5; stroke-linejoin: miter; stroke-linecap: square"/>
   </g>
   <g id="patch_5">
    <path d="M 25.466323 169.282926 
L 220.766323 169.282926 
" style="fill: none; stroke: #000000; stroke-width: 0.5; stroke-linejoin: miter; stroke-linecap: square"/>
   </g>
   <g id="patch_6">
    <path d="M 25.466323 23.752926 
L 220.766323 23.752926 
" style="fill: none; stroke: #000000; stroke-width: 0.5; stroke-linejoin: miter; stroke-linecap: square"/>
   </g>
   <g id="text_16">
    <!-- WasteAndMaterialFootprint -->
    <g transform="translate(77.435689 9.189042) scale(0.08 -0.08)">
     <defs>
      <path id="LinLibertineT-57" d="M 5184 3597 
L 4186 821 
L 4166 828 
L 3283 3527 
C 3174 3873 3398 3892 3616 3911 
C 3654 3948 3654 4083 3616 4122 
C 3354 4122 3072 4122 2816 4122 
C 2605 4122 2381 4122 2176 4122 
C 2138 4082 2138 3943 2176 3904 
C 2515 3904 2656 3705 2714 3538 
L 2861 3114 
C 2886 3037 2906 2973 2906 2915 
C 2906 2851 2899 2800 2848 2690 
L 2022 808 
L 1990 815 
L 1056 3648 
C 979 3872 1152 3904 1376 3904 
C 1414 3943 1414 4082 1376 4122 
C 1165 4122 883 4122 634 4122 
C 410 4122 224 4122 38 4122 
C 0 4082 0 3943 38 3904 
C 326 3904 371 3897 493 3551 
L 1696 77 
C 1728 -25 1766 -96 1837 -96 
C 1920 -96 1958 -32 2003 77 
L 2957 2225 
C 3014 2353 3034 2385 3066 2385 
C 3091 2385 3117 2315 3155 2206 
L 3891 77 
C 3930 -32 3962 -96 4038 -96 
C 4109 -96 4154 -25 4186 71 
L 5472 3532 
C 5555 3756 5670 3904 6022 3904 
C 6061 3943 6061 4082 6022 4122 
C 5837 4122 5632 4122 5466 4122 
C 5299 4122 5018 4122 4762 4122 
C 4723 4083 4723 3948 4762 3911 
C 5024 3892 5280 3873 5184 3597 
z
" transform="scale(0.015625)"/>
      <path id="LinLibertineT-73" d="M 307 886 
C 333 572 352 269 352 0 
C 416 13 480 19 512 19 
C 557 19 595 19 640 6 
C 813 -38 986 -64 1222 -64 
C 1581 -64 2240 109 2240 744 
C 2240 1180 1926 1437 1491 1597 
C 1107 1745 851 1841 851 2193 
C 851 2456 1082 2604 1299 2604 
C 1440 2604 1811 2553 1894 2007 
C 1933 1969 2061 1969 2099 2008 
C 2118 2241 2131 2480 2138 2694 
C 1939 2726 1632 2816 1299 2816 
C 826 2816 397 2508 397 2097 
C 397 1629 608 1430 1101 1225 
C 1632 1007 1754 872 1754 596 
C 1754 282 1446 148 1210 148 
C 960 148 819 230 755 300 
C 614 447 544 727 506 885 
C 467 924 346 924 307 886 
z
" transform="scale(0.015625)"/>
      <path id="LinLibertineT-74" d="M 275 2752 
C 186 2752 160 2675 160 2623 
L 160 2540 
C 160 2509 166 2502 192 2502 
L 570 2502 
L 570 571 
C 570 115 768 -64 1062 -64 
C 1357 -64 1677 77 1926 360 
C 1914 424 1875 463 1811 469 
C 1645 340 1453 289 1286 289 
C 1114 289 1075 481 1075 879 
L 1075 2502 
L 1741 2502 
C 1805 2502 1894 2528 1894 2586 
L 1894 2714 
C 1894 2740 1875 2752 1843 2752 
L 1075 2752 
L 1075 3006 
C 1075 3426 1101 3685 1101 3685 
C 1101 3725 1082 3744 1050 3744 
C 1024 3744 966 3718 909 3685 
C 838 3647 774 3614 691 3594 
C 614 3569 550 3549 550 3504 
C 550 3426 570 3471 570 2752 
L 275 2752 
z
" transform="scale(0.015625)"/>
      <path id="LinLibertineT-41" d="M 1683 1805 
C 1542 1805 1498 1824 1523 1888 
L 2176 3560 
L 2214 3560 
L 2816 1805 
L 1683 1805 
z
M 992 512 
L 1344 1429 
C 1376 1510 1414 1536 1568 1536 
L 2918 1536 
L 3290 454 
C 3366 237 3123 211 2816 211 
C 2778 172 2778 39 2816 0 
C 3053 0 3405 0 3654 0 
C 3917 0 4160 0 4384 0 
C 4422 39 4422 173 4384 212 
C 4134 236 3917 256 3808 564 
L 2490 4224 
C 2394 4166 2221 4096 2138 4096 
L 685 648 
C 518 250 326 211 45 211 
C 6 172 6 39 45 0 
C 211 0 422 0 614 0 
C 877 0 1197 0 1434 0 
C 1472 38 1472 170 1434 209 
C 1190 228 890 253 992 512 
z
" transform="scale(0.015625)"/>
      <path id="LinLibertineT-6e" d="M 1178 2309 
C 1139 2264 1101 2251 1101 2309 
C 1094 2482 1082 2733 1050 2798 
C 1037 2830 1024 2849 973 2849 
C 794 2778 627 2721 186 2663 
C 173 2624 186 2522 198 2483 
C 544 2451 614 2419 614 2047 
L 614 795 
C 614 270 550 244 166 212 
C 128 173 128 39 166 0 
C 358 0 614 0 870 0 
C 1126 0 1318 0 1510 0 
C 1549 39 1549 173 1510 212 
C 1184 244 1120 270 1120 795 
L 1120 1848 
C 1120 1983 1178 2060 1229 2118 
C 1472 2355 1760 2496 2010 2496 
C 2138 2496 2272 2413 2349 2265 
C 2413 2137 2426 1964 2426 1771 
L 2426 795 
C 2426 270 2362 244 2029 212 
C 1997 173 1997 39 2029 0 
C 2221 0 2426 0 2682 0 
C 2938 0 3168 0 3360 0 
C 3392 39 3392 173 3360 212 
C 3002 244 2931 270 2931 795 
L 2931 1752 
C 2931 2105 2906 2413 2758 2612 
C 2650 2753 2451 2830 2227 2830 
C 1914 2830 1555 2746 1178 2309 
z
" transform="scale(0.015625)"/>
      <path id="LinLibertineT-64" d="M 2208 795 
C 2208 673 2195 622 2106 545 
C 1869 340 1664 237 1504 237 
C 1158 237 800 616 800 1417 
C 800 1879 890 2136 986 2270 
C 1184 2572 1453 2591 1581 2591 
C 1811 2591 1971 2508 2099 2360 
C 2189 2258 2208 2213 2208 2014 
L 2208 795 
z
M 2138 321 
C 2170 346 2227 359 2234 314 
C 2253 160 2304 -64 2304 -64 
C 2355 -83 2387 -77 2426 -64 
C 2566 51 2790 148 3181 192 
C 3219 231 3219 327 3181 366 
C 2771 398 2714 520 2714 835 
L 2714 3741 
C 2714 4159 2739 4416 2739 4416 
C 2739 4460 2714 4480 2656 4480 
C 2496 4414 2016 4320 1760 4300 
C 1747 4246 1760 4140 1798 4100 
C 2131 4100 2208 4132 2208 3590 
L 2208 2765 
C 2208 2719 2195 2707 2150 2707 
C 2125 2707 1862 2816 1651 2816 
C 1229 2816 947 2674 691 2431 
C 416 2155 250 1777 250 1302 
C 250 513 646 -64 1338 -64 
C 1587 -64 1824 64 2138 321 
z
" transform="scale(0.015625)"/>
      <path id="LinLibertineT-4d" d="M 4243 741 
C 4275 218 4250 218 3834 218 
C 3795 178 3795 40 3834 0 
C 4070 0 4326 0 4518 0 
C 4710 0 5005 0 5216 0 
C 5254 40 5254 178 5216 218 
C 4781 218 4762 244 4723 784 
L 4531 3492 
C 4506 3850 4538 3942 4973 3942 
C 5011 3981 5011 4120 4973 4160 
L 4134 4160 
L 2778 893 
C 2752 829 2733 803 2720 803 
C 2707 803 2688 835 2669 887 
L 1357 4160 
L 429 4160 
C 390 4120 390 3981 429 3942 
C 870 3942 909 3930 864 3434 
L 608 790 
C 570 404 493 244 128 212 
C 90 173 90 39 128 0 
C 320 0 525 0 678 0 
C 832 0 1088 0 1280 0 
C 1318 39 1318 173 1280 212 
C 858 244 826 443 858 802 
L 1101 3376 
L 1114 3376 
L 2438 32 
C 2458 -13 2496 -64 2534 -64 
C 2573 -64 2598 -19 2624 32 
L 4064 3440 
L 4077 3440 
L 4243 741 
z
" transform="scale(0.015625)"/>
      <path id="LinLibertineT-69" d="M 576 3852 
C 576 3685 730 3518 883 3518 
C 1062 3518 1216 3691 1216 3826 
C 1216 3980 1082 4160 909 4160 
C 755 4160 576 4006 576 3852 
z
M 1158 779 
L 1158 2064 
C 1158 2386 1184 2799 1184 2799 
C 1184 2825 1152 2844 1101 2844 
C 922 2773 666 2716 224 2658 
C 211 2619 224 2517 237 2478 
C 589 2446 653 2408 653 2043 
L 653 794 
C 653 263 582 244 192 212 
C 154 173 154 39 192 0 
C 403 0 653 0 909 0 
C 1165 0 1408 0 1619 0 
C 1658 40 1658 178 1619 218 
C 1229 218 1158 244 1158 779 
z
" transform="scale(0.015625)"/>
      <path id="LinLibertineT-6c" d="M 608 778 
C 608 243 538 211 147 211 
C 109 172 109 39 147 0 
C 371 0 608 0 864 0 
C 1120 0 1363 0 1574 0 
C 1613 39 1613 172 1574 211 
C 1184 211 1114 243 1114 776 
L 1114 3740 
C 1114 4158 1139 4416 1139 4416 
C 1139 4460 1114 4480 1056 4480 
C 896 4414 416 4321 160 4301 
C 147 4247 160 4141 198 4101 
C 570 4101 608 4081 608 3597 
L 608 778 
z
" transform="scale(0.015625)"/>
      <path id="LinLibertineT-46" d="M 1811 2061 
C 2355 2061 2374 1917 2394 1637 
C 2432 1600 2566 1600 2605 1637 
C 2598 1798 2592 1984 2592 2202 
C 2592 2420 2598 2587 2605 2753 
C 2566 2793 2432 2793 2394 2753 
C 2374 2391 2355 2304 1811 2304 
L 1216 2304 
L 1216 3474 
C 1216 3825 1293 3890 1574 3890 
L 1862 3890 
C 2541 3890 2701 3633 2842 3187 
C 2918 3187 2989 3200 3040 3219 
C 3008 3485 2912 4108 2899 4160 
C 2899 4160 2893 4160 2874 4160 
C 2765 4160 2733 4160 2573 4160 
L 941 4160 
C 736 4160 371 4160 115 4160 
C 77 4119 77 3975 115 3935 
C 563 3935 672 3903 672 3366 
L 672 779 
C 672 243 563 211 115 211 
C 77 172 77 39 115 0 
C 339 0 659 0 947 0 
C 1235 0 1549 0 1773 0 
C 1811 39 1811 172 1773 211 
C 1325 211 1216 243 1216 774 
L 1216 2061 
L 1811 2061 
z
" transform="scale(0.015625)"/>
      <path id="LinLibertineT-6f" d="M 262 1315 
C 262 661 698 -64 1606 -64 
C 2016 -64 2330 83 2547 295 
C 2835 577 2963 981 2963 1373 
C 2963 2040 2598 2816 1619 2816 
C 1197 2816 851 2642 614 2367 
C 384 2091 262 1719 262 1315 
z
M 1523 2591 
C 2074 2591 2413 2091 2413 1167 
C 2413 359 1997 160 1696 160 
C 1030 160 813 968 813 1462 
C 813 2020 947 2591 1523 2591 
z
" transform="scale(0.015625)"/>
      <path id="LinLibertineT-70" d="M 1120 2162 
C 1286 2367 1581 2560 1766 2560 
C 2176 2560 2528 2098 2528 1373 
C 2528 846 2342 192 1626 192 
C 1510 192 1286 224 1171 327 
C 1043 442 1018 481 1018 711 
L 1018 1880 
C 1018 2014 1043 2072 1120 2162 
z
M 998 2400 
C 992 2592 979 2758 947 2823 
C 934 2855 922 2874 870 2874 
C 691 2803 525 2746 83 2688 
C 70 2649 83 2546 96 2507 
C 442 2474 512 2442 512 2067 
L 512 -693 
C 512 -1229 442 -1261 51 -1261 
C 13 -1300 13 -1433 51 -1472 
C 275 -1472 512 -1472 768 -1472 
C 1024 -1472 1331 -1472 1542 -1472 
C 1581 -1433 1581 -1300 1542 -1261 
C 1088 -1261 1018 -1235 1018 -687 
L 1018 25 
C 1018 109 1043 102 1107 70 
C 1267 12 1459 -26 1664 -26 
C 2022 -26 2342 83 2605 333 
C 2906 628 3078 1026 3078 1546 
C 3078 2226 2598 2855 1946 2855 
C 1651 2855 1325 2656 1069 2375 
C 1030 2336 1005 2336 998 2400 
z
" transform="scale(0.015625)"/>
     </defs>
     <use xlink:href="#LinLibertineT-57" transform="scale(0.996264)"/>
     <use xlink:href="#LinLibertineT-61" transform="translate(88.767099 0) scale(0.996264)"/>
     <use xlink:href="#LinLibertineT-73" transform="translate(134.296331 0) scale(0.996264)"/>
     <use xlink:href="#LinLibertineT-74" transform="translate(173.150658 0) scale(0.996264)"/>
     <use xlink:href="#LinLibertineT-65" transform="translate(204.632591 0) scale(0.996264)"/>
     <use xlink:href="#LinLibertineT-41" transform="translate(245.180488 0) scale(0.996264)"/>
     <use xlink:href="#LinLibertineT-6e" transform="translate(314.420806 0) scale(0.996264)"/>
     <use xlink:href="#LinLibertineT-64" transform="translate(368.418297 0) scale(0.996264)"/>
     <use xlink:href="#LinLibertineT-4d" transform="translate(418.829201 0) scale(0.996264)"/>
     <use xlink:href="#LinLibertineT-61" transform="translate(502.415715 0) scale(0.996264)"/>
     <use xlink:href="#LinLibertineT-74" transform="translate(547.944947 0) scale(0.996264)"/>
     <use xlink:href="#LinLibertineT-65" transform="translate(579.426881 0) scale(0.996264)"/>
     <use xlink:href="#LinLibertineT-72" transform="translate(623.959833 0) scale(0.996264)"/>
     <use xlink:href="#LinLibertineT-69" transform="translate(661.020821 0) scale(0.996264)"/>
     <use xlink:href="#LinLibertineT-61" transform="translate(688.019567 0) scale(0.996264)"/>
     <use xlink:href="#LinLibertineT-6c" transform="translate(733.548798 0) scale(0.996264)"/>
     <use xlink:href="#LinLibertineT-46" transform="translate(759.850162 0) scale(0.996264)"/>
     <use xlink:href="#LinLibertineT-6f" transform="translate(808.168921 0) scale(0.996264)"/>
     <use xlink:href="#LinLibertineT-6f" transform="translate(859.077972 0) scale(0.996264)"/>
     <use xlink:href="#LinLibertineT-74" transform="translate(909.289642 0) scale(0.996264)"/>
     <use xlink:href="#LinLibertineT-70" transform="translate(940.771576 0) scale(0.996264)"/>
     <use xlink:href="#LinLibertineT-72" transform="translate(992.477672 0) scale(0.996264)"/>
     <use xlink:href="#LinLibertineT-69" transform="translate(1029.538659 0) scale(0.996264)"/>
     <use xlink:href="#LinLibertineT-6e" transform="translate(1056.537405 0) scale(0.996264)"/>
     <use xlink:href="#LinLibertineT-74" transform="translate(1110.534896 0) scale(0.996264)"/>
    </g>
    <!-- Coal (black) -->
    <g transform="translate(103.657312 17.752926) scale(0.08 -0.08)">
     <defs>
      <path id="LinLibertineT-43" d="M 2285 -64 
C 2906 -64 3475 231 3910 803 
C 3878 860 3834 899 3763 899 
C 3309 398 2874 199 2278 199 
C 1414 199 819 1175 819 2112 
C 819 2665 966 3126 1197 3415 
C 1517 3807 1888 3987 2221 3987 
C 3104 3987 3456 3461 3622 2909 
C 3699 2884 3763 2903 3834 2941 
C 3802 3275 3757 3583 3693 3936 
C 3366 3968 3078 4224 2291 4224 
C 1747 4224 1293 4025 915 3678 
C 493 3287 237 2658 237 1990 
C 237 873 909 -64 2285 -64 
z
" transform="scale(0.015625)"/>
      <path id="LinLibertineT-63" d="M 2547 584 
C 2522 641 2470 667 2413 673 
C 2195 391 1920 250 1645 250 
C 1178 250 787 725 787 1475 
C 787 2181 1094 2604 1517 2604 
C 1894 2604 1946 2379 1971 2155 
C 1990 1982 2080 1924 2214 1924 
C 2349 1924 2528 2007 2528 2206 
C 2528 2559 2163 2816 1549 2816 
C 915 2816 237 2245 237 1334 
C 237 507 698 -64 1504 -64 
C 1888 -64 2227 58 2547 584 
z
" transform="scale(0.015625)"/>
     </defs>
     <use xlink:href="#LinLibertineT-43" transform="scale(0.996264)"/>
     <use xlink:href="#LinLibertineT-6f" transform="translate(64.358646 0) scale(0.996264)"/>
     <use xlink:href="#LinLibertineT-61" transform="translate(114.570316 0) scale(0.996264)"/>
     <use xlink:href="#LinLibertineT-6c" transform="translate(160.099547 0) scale(0.996264)"/>
     <use xlink:href="#LinLibertineT-28" transform="translate(211.307511 0) scale(0.996264)"/>
     <use xlink:href="#LinLibertineT-62" transform="translate(242.191726 0) scale(0.996264)"/>
     <use xlink:href="#LinLibertineT-6c" transform="translate(291.307545 0) scale(0.996264)"/>
     <use xlink:href="#LinLibertineT-61" transform="translate(317.608909 0) scale(0.996264)"/>
     <use xlink:href="#LinLibertineT-63" transform="translate(363.13814 0) scale(0.996264)"/>
     <use xlink:href="#LinLibertineT-6b" transform="translate(405.778273 0) scale(0.996264)"/>
     <use xlink:href="#LinLibertineT-29" transform="translate(456.786988 0) scale(0.996264)"/>
    </g>
   </g>
   <g id="legend_1">
    <g id="text_17">
     <!-- Activity: -->
     <g transform="translate(233.347444 54.589819) scale(0.07 -0.07)">
      <defs>
       <path id="LinLibertineT-76" d="M 2080 2573 
C 2426 2547 2464 2470 2330 2143 
L 1811 886 
C 1709 636 1677 636 1574 905 
L 1114 2143 
C 998 2451 973 2528 1312 2573 
C 1350 2611 1350 2746 1312 2784 
C 1101 2784 877 2784 666 2784 
C 454 2784 262 2784 70 2784 
C 32 2746 32 2611 70 2572 
C 410 2533 454 2431 582 2102 
L 1402 71 
C 1440 -25 1478 -64 1562 -64 
C 1626 -64 1670 -25 1715 84 
L 2566 2096 
C 2688 2379 2758 2540 3117 2572 
C 3155 2611 3155 2746 3117 2784 
C 2989 2784 2835 2784 2669 2784 
C 2458 2784 2240 2784 2080 2784 
C 2042 2746 2042 2611 2080 2573 
z
" transform="scale(0.015625)"/>
       <path id="LinLibertineT-3a" d="M 448 2284 
C 448 2098 602 1944 787 1944 
C 973 1944 1126 2098 1126 2284 
C 1126 2470 973 2624 787 2624 
C 602 2624 448 2470 448 2284 
z
M 448 468 
C 448 282 602 128 787 128 
C 973 128 1126 282 1126 468 
C 1126 654 973 808 787 808 
C 602 808 448 654 448 468 
z
" transform="scale(0.015625)"/>
      </defs>
      <use xlink:href="#LinLibertineT-41" transform="scale(0.996264)"/>
      <use xlink:href="#LinLibertineT-63" transform="translate(68.044789 0) scale(0.996264)"/>
      <use xlink:href="#LinLibertineT-74" transform="translate(110.684922 0) scale(0.996264)"/>
      <use xlink:href="#LinLibertineT-69" transform="translate(142.166856 0) scale(0.996264)"/>
      <use xlink:href="#LinLibertineT-76" transform="translate(169.165602 0) scale(0.996264)"/>
      <use xlink:href="#LinLibertineT-69" transform="translate(218.679889 0) scale(0.996264)"/>
      <use xlink:href="#LinLibertineT-74" transform="translate(245.678635 0) scale(0.996264)"/>
      <use xlink:href="#LinLibertineT-79" transform="translate(277.160569 0) scale(0.996264)"/>
      <use xlink:href="#LinLibertineT-3a" transform="translate(328.468195 0) scale(0.996264)"/>
     </g>
    </g>
    <g id="line2d_121">
     <defs>
      <path id="m0bd7c84e8a" d="M -1.5 1.5 
L 1.5 1.5 
L 1.5 -1.5 
L -1.5 -1.5 
z
" style="stroke: #377eb8; stroke-linejoin: miter"/>
     </defs>
     <g>
      <use xlink:href="#m0bd7c84e8a" x="234.172323" y="60.464722" style="fill: #377eb8; stroke: #377eb8; stroke-linejoin: miter"/>
     </g>
    </g>
    <g id="text_18">
     <!-- LiMn2O4 -->
     <g transform="translate(243.172323 62.214722) scale(0.05 -0.05)">
      <defs>
       <path id="LinLibertineT-4c" d="M 954 0 
L 2317 0 
C 2490 0 3078 0 3078 0 
C 3142 320 3206 735 3245 1067 
C 3181 1099 3110 1112 3034 1099 
C 2906 636 2669 256 1990 256 
L 1587 256 
C 1338 256 1222 379 1222 707 
L 1222 3374 
C 1222 3910 1331 3942 1779 3942 
C 1818 3981 1818 4120 1779 4160 
C 1491 4160 1190 4160 947 4160 
C 717 4160 416 4160 122 4160 
C 83 4120 83 3981 122 3942 
C 570 3942 678 3910 678 3372 
L 678 780 
C 678 243 570 211 122 211 
C 83 172 83 39 122 0 
C 371 0 736 0 954 0 
z
" transform="scale(0.015625)"/>
       <path id="LinLibertineT-4f" d="M 2118 3993 
C 2963 3993 3648 3287 3648 1990 
C 3648 841 3098 167 2368 167 
C 1587 167 851 867 851 2099 
C 851 3447 1485 3993 2118 3993 
z
M 4262 2112 
C 4262 3441 3347 4224 2202 4224 
C 960 4224 237 3235 237 1990 
C 237 726 1152 -64 2240 -64 
C 2950 -64 3514 244 3866 745 
C 4122 1111 4262 1573 4262 2112 
z
" transform="scale(0.015625)"/>
      </defs>
      <use xlink:href="#LinLibertineT-4c" transform="scale(0.996264)"/>
      <use xlink:href="#LinLibertineT-69" transform="translate(52.602728 0) scale(0.996264)"/>
      <use xlink:href="#LinLibertineT-4d" transform="translate(79.601473 0) scale(0.996264)"/>
      <use xlink:href="#LinLibertineT-6e" transform="translate(163.187987 0) scale(0.996264)"/>
      <use xlink:href="#LinLibertineT-32" transform="translate(217.185478 0) scale(0.996264)"/>
      <use xlink:href="#LinLibertineT-4f" transform="translate(263.51177 0) scale(0.996264)"/>
      <use xlink:href="#LinLibertineT-34" transform="translate(333.44947 0) scale(0.996264)"/>
     </g>
    </g>
    <g id="line2d_122">
     <defs>
      <path id="m78960accf5" d="M -1.5 1.5 
L 1.5 1.5 
L 1.5 -1.5 
L -1.5 -1.5 
z
" style="stroke: #ff7f00; stroke-linejoin: miter"/>
     </defs>
     <g>
      <use xlink:href="#m78960accf5" x="234.172323" y="67.625363" style="fill: #ff7f00; stroke: #ff7f00; stroke-linejoin: miter"/>
     </g>
    </g>
    <g id="text_19">
     <!-- NMC811 -->
     <g transform="translate(243.172323 69.375363) scale(0.05 -0.05)">
      <defs>
       <path id="LinLibertineT-4e" d="M 3558 3256 
L 3558 1158 
C 3558 1036 3558 965 3514 965 
C 3488 965 3392 1082 3206 1320 
L 1011 4122 
L 147 4122 
C 109 4082 109 3943 147 3904 
C 422 3904 614 3674 653 3505 
L 653 828 
C 653 257 544 219 96 174 
C 58 135 58 1 96 -38 
C 371 -38 659 -38 813 -38 
C 960 -38 1254 -38 1523 -38 
C 1562 1 1562 135 1523 174 
C 1075 219 966 244 966 829 
L 966 2793 
C 966 3011 966 3107 1018 3107 
C 1056 3107 1126 3036 1235 2894 
L 3469 58 
C 3539 -38 3622 -96 3725 -96 
C 3814 -96 3872 -19 3872 103 
L 3872 3255 
C 3872 3827 3981 3865 4429 3910 
C 4467 3948 4467 4083 4429 4122 
C 4166 4122 3866 4122 3712 4122 
C 3578 4122 3283 4122 3002 4122 
C 2963 4083 2963 3948 3002 3910 
C 3450 3865 3558 3839 3558 3256 
z
" transform="scale(0.015625)"/>
      </defs>
      <use xlink:href="#LinLibertineT-4e" transform="scale(0.996264)"/>
      <use xlink:href="#LinLibertineT-4d" transform="translate(69.638879 0) scale(0.996264)"/>
      <use xlink:href="#LinLibertineT-43" transform="translate(153.225393 0) scale(0.996264)"/>
      <use xlink:href="#LinLibertineT-38" transform="translate(217.584038 0) scale(0.996264)"/>
      <use xlink:href="#LinLibertineT-31" transform="translate(263.91033 0) scale(0.996264)"/>
      <use xlink:href="#LinLibertineT-31" transform="translate(310.236622 0) scale(0.996264)"/>
     </g>
    </g>
    <g id="line2d_123">
     <defs>
      <path id="m9e2d3743d6" d="M -1.5 1.5 
L 1.5 1.5 
L 1.5 -1.5 
L -1.5 -1.5 
z
" style="stroke: #4daf4a; stroke-linejoin: miter"/>
     </defs>
     <g>
      <use xlink:href="#m9e2d3743d6" x="234.172323" y="74.786004" style="fill: #4daf4a; stroke: #4daf4a; stroke-linejoin: miter"/>
     </g>
    </g>
    <g id="text_20">
     <!-- NMC111 -->
     <g transform="translate(243.172323 76.536004) scale(0.05 -0.05)">
      <use xlink:href="#LinLibertineT-4e" transform="scale(0.996264)"/>
      <use xlink:href="#LinLibertineT-4d" transform="translate(69.638879 0) scale(0.996264)"/>
      <use xlink:href="#LinLibertineT-43" transform="translate(153.225393 0) scale(0.996264)"/>
      <use xlink:href="#LinLibertineT-31" transform="translate(217.584038 0) scale(0.996264)"/>
      <use xlink:href="#LinLibertineT-31" transform="translate(263.91033 0) scale(0.996264)"/>
      <use xlink:href="#LinLibertineT-31" transform="translate(310.236622 0) scale(0.996264)"/>
     </g>
    </g>
    <g id="line2d_124">
     <defs>
      <path id="mc58a7c9271" d="M -1.5 1.5 
L 1.5 1.5 
L 1.5 -1.5 
L -1.5 -1.5 
z
" style="stroke: #e41a1c; stroke-linejoin: miter"/>
     </defs>
     <g>
      <use xlink:href="#mc58a7c9271" x="234.172323" y="81.946645" style="fill: #e41a1c; stroke: #e41a1c; stroke-linejoin: miter"/>
     </g>
    </g>
    <g id="text_21">
     <!-- NCA -->
     <g transform="translate(243.172323 83.696645) scale(0.05 -0.05)">
      <use xlink:href="#LinLibertineT-4e" transform="scale(0.996264)"/>
      <use xlink:href="#LinLibertineT-43" transform="translate(69.638879 0) scale(0.996264)"/>
      <use xlink:href="#LinLibertineT-41" transform="translate(133.997525 0) scale(0.996264)"/>
     </g>
    </g>
    <g id="line2d_125">
     <defs>
      <path id="mcf18736739" d="M -1.5 1.5 
L 1.5 1.5 
L 1.5 -1.5 
L -1.5 -1.5 
z
" style="stroke: #984ea3; stroke-linejoin: miter"/>
     </defs>
     <g>
      <use xlink:href="#mcf18736739" x="234.172323" y="89.107285" style="fill: #984ea3; stroke: #984ea3; stroke-linejoin: miter"/>
     </g>
    </g>
    <g id="text_22">
     <!-- LFP -->
     <g transform="translate(243.172323 90.857285) scale(0.05 -0.05)">
      <defs>
       <path id="LinLibertineT-50" d="M 1210 3559 
C 1210 3744 1306 3968 1766 3968 
C 2208 3968 2650 3821 2650 3014 
C 2650 2328 2317 2048 1696 2048 
C 1536 2048 1280 2048 1210 2074 
L 1210 3559 
z
M 666 3372 
L 666 780 
C 666 243 557 211 109 211 
C 70 172 70 39 109 0 
C 397 0 710 0 941 0 
C 1165 0 1542 0 1862 0 
C 1901 39 1901 172 1862 211 
C 1363 211 1210 237 1210 778 
L 1210 1888 
C 1350 1843 1504 1824 1728 1824 
C 2893 1824 3245 2583 3245 3126 
C 3245 3502 2995 4186 1811 4186 
C 1568 4186 1190 4160 934 4160 
C 698 4160 365 4160 109 4160 
C 70 4120 70 3981 109 3942 
C 557 3942 666 3910 666 3372 
z
" transform="scale(0.015625)"/>
      </defs>
      <use xlink:href="#LinLibertineT-4c" transform="scale(0.996264)"/>
      <use xlink:href="#LinLibertineT-46" transform="translate(52.602728 0) scale(0.996264)"/>
      <use xlink:href="#LinLibertineT-50" transform="translate(100.921486 0) scale(0.996264)"/>
     </g>
    </g>
   </g>
   <g id="legend_2">
    <g id="text_23">
     <!-- Scenario: -->
     <g transform="translate(234.543953 105.908324) scale(0.07 -0.07)">
      <defs>
       <path id="LinLibertineT-53" d="M 2528 4051 
C 2157 4102 2170 4224 1542 4224 
C 896 4224 326 3794 326 3114 
C 326 2439 883 2131 1446 1913 
C 1830 1766 2304 1585 2304 957 
C 2304 436 2016 167 1504 167 
C 909 167 525 443 384 1078 
C 301 1104 237 1091 173 1059 
C 198 564 224 398 301 83 
C 704 83 883 -64 1453 -64 
C 1741 -64 2016 6 2240 148 
C 2611 378 2842 771 2842 1181 
C 2842 1862 2330 2163 1805 2362 
C 1421 2504 781 2748 781 3287 
C 781 3647 1107 4006 1485 4006 
C 2106 4006 2304 3607 2432 3184 
C 2502 3171 2586 3178 2643 3223 
C 2618 3531 2592 3710 2528 4051 
z
" transform="scale(0.015625)"/>
      </defs>
      <use xlink:href="#LinLibertineT-53" transform="scale(0.996264)"/>
      <use xlink:href="#LinLibertineT-63" transform="translate(48.318759 0) scale(0.996264)"/>
      <use xlink:href="#LinLibertineT-65" transform="translate(90.958892 0) scale(0.996264)"/>
      <use xlink:href="#LinLibertineT-6e" transform="translate(135.491845 0) scale(0.996264)"/>
      <use xlink:href="#LinLibertineT-61" transform="translate(189.489336 0) scale(0.996264)"/>
      <use xlink:href="#LinLibertineT-72" transform="translate(235.018567 0) scale(0.996264)"/>
      <use xlink:href="#LinLibertineT-69" transform="translate(272.079555 0) scale(0.996264)"/>
      <use xlink:href="#LinLibertineT-6f" transform="translate(299.078301 0) scale(0.996264)"/>
      <use xlink:href="#LinLibertineT-3a" transform="translate(349.28997 0) scale(0.996264)"/>
     </g>
     <!-- (SSP2) -->
     <g transform="translate(234.543953 113.401706) scale(0.07 -0.07)">
      <use xlink:href="#LinLibertineT-28" transform="scale(0.996264)"/>
      <use xlink:href="#LinLibertineT-53" transform="translate(29.688701 0) scale(0.996264)"/>
      <use xlink:href="#LinLibertineT-53" transform="translate(78.00746 0) scale(0.996264)"/>
      <use xlink:href="#LinLibertineT-50" transform="translate(126.326219 0) scale(0.996264)"/>
      <use xlink:href="#LinLibertineT-32" transform="translate(180.224138 0) scale(0.996264)"/>
      <use xlink:href="#LinLibertineT-29" transform="translate(226.55043 0) scale(0.996264)"/>
     </g>
    </g>
    <g id="line2d_126">
     <path d="M 229.172323 119.276609 
L 234.172323 119.276609 
L 239.172323 119.276609 
" style="fill: none; stroke-dasharray: 0.8,2.4; stroke-dashoffset: 0; stroke: #000000; stroke-width: 0.8"/>
     <defs>
      <path id="mb67fddda92" d="M 0 1 
C 0.265203 1 0.51958 0.894634 0.707107 0.707107 
C 0.894634 0.51958 1 0.265203 1 0 
C 1 -0.265203 0.894634 -0.51958 0.707107 -0.707107 
C 0.51958 -0.894634 0.265203 -1 0 -1 
C -0.265203 -1 -0.51958 -0.894634 -0.707107 -0.707107 
C -0.894634 -0.51958 -1 -0.265203 -1 0 
C -1 0.265203 -0.894634 0.51958 -0.707107 0.707107 
C -0.51958 0.894634 -0.265203 1 0 1 
z
" style="stroke: #000000; stroke-width: 0.3"/>
     </defs>
     <g>
      <use xlink:href="#mb67fddda92" x="234.172323" y="119.276609" style="fill-opacity: 0; stroke: #000000; stroke-width: 0.3"/>
     </g>
    </g>
    <g id="text_24">
     <!-- Base -->
     <g transform="translate(243.172323 121.026609) scale(0.05 -0.05)">
      <defs>
       <path id="LinLibertineT-42" d="M 1222 3546 
C 1222 3884 1222 3949 1779 3949 
C 2138 3949 2605 3756 2605 3104 
C 2605 2561 2227 2368 1696 2368 
L 1222 2368 
L 1222 3546 
z
M 1222 2150 
L 1664 2150 
C 2541 2150 2906 1652 2906 1071 
C 2906 599 2726 205 1754 205 
C 1306 205 1222 373 1222 767 
L 1222 2150 
z
M 122 4160 
C 83 4121 83 3987 122 3949 
C 570 3949 678 3917 678 3377 
L 678 776 
C 678 237 570 205 122 205 
C 83 167 83 38 122 0 
C 371 0 717 0 954 0 
C 1184 0 1350 0 1888 0 
C 3162 0 3501 644 3501 1197 
C 3501 1815 3072 2169 2515 2330 
L 2515 2343 
C 2835 2502 3123 2834 3123 3178 
C 3123 3605 2938 4160 1747 4160 
C 1523 4160 1178 4160 947 4160 
C 717 4160 371 4160 122 4160 
z
" transform="scale(0.015625)"/>
      </defs>
      <use xlink:href="#LinLibertineT-42" transform="scale(0.996264)"/>
      <use xlink:href="#LinLibertineT-61" transform="translate(58.580342 0) scale(0.996264)"/>
      <use xlink:href="#LinLibertineT-73" transform="translate(104.109574 0) scale(0.996264)"/>
      <use xlink:href="#LinLibertineT-65" transform="translate(142.963901 0) scale(0.996264)"/>
     </g>
    </g>
    <g id="line2d_127">
     <path d="M 229.172323 126.43725 
L 234.172323 126.43725 
L 239.172323 126.43725 
" style="fill: none; stroke-dasharray: 2.4,4; stroke-dashoffset: 0; stroke: #000000; stroke-width: 0.8"/>
     <defs>
      <path id="m3c7051aa27" d="M -1 1 
L 1 -1 
M -1 -1 
L 1 1 
" style="stroke: #000000; stroke-width: 0.3"/>
     </defs>
     <g>
      <use xlink:href="#m3c7051aa27" x="234.172323" y="126.43725" style="fill-opacity: 0; stroke: #000000; stroke-width: 0.3"/>
     </g>
    </g>
    <g id="text_25">
     <!-- PkBudg500 -->
     <g transform="translate(243.172323 128.18725) scale(0.05 -0.05)">
      <defs>
       <path id="LinLibertineT-75" d="M 1389 -64 
C 1638 -64 1939 64 2253 320 
C 2285 345 2342 358 2349 313 
C 2368 154 2419 -64 2419 -64 
C 2470 -83 2502 -77 2541 -64 
C 2682 51 2906 148 3296 191 
C 3334 230 3334 326 3296 365 
C 2886 397 2829 519 2829 832 
L 2829 2060 
C 2829 2253 2854 2720 2854 2720 
C 2854 2739 2835 2758 2803 2758 
C 2771 2752 2675 2752 2579 2752 
C 2374 2752 2144 2752 1926 2752 
C 1888 2713 1888 2573 1926 2534 
C 2240 2534 2323 2457 2323 2034 
L 2323 795 
C 2323 673 2310 622 2221 545 
C 1984 340 1741 237 1581 237 
C 1389 237 1069 327 1069 896 
L 1069 2061 
C 1069 2253 1094 2720 1094 2720 
C 1094 2739 1075 2758 1043 2758 
C 1011 2752 915 2752 819 2752 
C 614 2752 384 2752 166 2752 
C 128 2714 128 2580 166 2542 
C 474 2516 563 2445 563 2031 
L 563 804 
C 563 364 755 -64 1389 -64 
z
" transform="scale(0.015625)"/>
      </defs>
      <use xlink:href="#LinLibertineT-50" transform="scale(0.996264)"/>
      <use xlink:href="#LinLibertineT-6b" transform="translate(55.093433 0) scale(0.996264)"/>
      <use xlink:href="#LinLibertineT-42" transform="translate(106.102147 0) scale(0.996264)"/>
      <use xlink:href="#LinLibertineT-75" transform="translate(164.682489 0) scale(0.996264)"/>
      <use xlink:href="#LinLibertineT-64" transform="translate(217.584115 0) scale(0.996264)"/>
      <use xlink:href="#LinLibertineT-67" transform="translate(267.995019 0) scale(0.996264)"/>
      <use xlink:href="#LinLibertineT-35" transform="translate(317.808219 0) scale(0.996264)"/>
      <use xlink:href="#LinLibertineT-30" transform="translate(364.134511 0) scale(0.996264)"/>
      <use xlink:href="#LinLibertineT-30" transform="translate(410.460803 0) scale(0.996264)"/>
     </g>
    </g>
   </g>
  </g>
 </g>
 <defs>
  <clipPath id="pc2ee4964f9">
   <rect x="25.466323" y="23.752926" width="195.3" height="145.53"/>
  </clipPath>
 </defs>
</svg>
