<?xml version="1.0" encoding="utf-8" standalone="no"?>
<!DOCTYPE svg PUBLIC "-//W3C//DTD SVG 1.1//EN"
  "http://www.w3.org/Graphics/SVG/1.1/DTD/svg11.dtd">
<svg xmlns:xlink="http://www.w3.org/1999/xlink" width="216.531735pt" height="219.761161pt" viewBox="0 0 216.531735 219.761161" xmlns="http://www.w3.org/2000/svg" version="1.1">
 <metadata>
  <rdf:RDF xmlns:dc="http://purl.org/dc/elements/1.1/" xmlns:cc="http://creativecommons.org/ns#" xmlns:rdf="http://www.w3.org/1999/02/22-rdf-syntax-ns#">
   <cc:Work>
    <dc:type rdf:resource="http://purl.org/dc/dcmitype/StillImage"/>
    <dc:date>2024-01-24T04:06:35.511937</dc:date>
    <dc:format>image/svg+xml</dc:format>
    <dc:creator>
     <cc:Agent>
      <dc:title>Matplotlib v3.8.0, https://matplotlib.org/</dc:title>
     </cc:Agent>
    </dc:creator>
   </cc:Work>
  </rdf:RDF>
 </metadata>
 <defs>
  <style type="text/css">*{stroke-linejoin: round; stroke-linecap: butt}</style>
 </defs>
 <g id="figure_1">
  <g id="patch_1">
   <path d="M 0 219.761161 
L 216.531735 219.761161 
L 216.531735 0 
L 0 0 
z
" style="fill: #ffffff"/>
  </g>
  <g id="axes_1">
   <g id="patch_2">
    <path d="M 17.631735 168.98059 
L 212.931735 168.98059 
L 212.931735 23.45059 
L 17.631735 23.45059 
z
" style="fill: #ffffff"/>
   </g>
   <g id="patch_3">
    <path d="M 19.584735 168.98059 
L 54.738735 168.98059 
L 54.738735 140.967898 
L 19.584735 140.967898 
z
" clip-path="url(#p7ecd1366c2)" style="fill: #4c72b0"/>
   </g>
   <g id="patch_4">
    <path d="M 19.584735 140.967898 
L 54.738735 140.967898 
L 54.738735 113.336149 
L 19.584735 113.336149 
z
" clip-path="url(#p7ecd1366c2)" style="fill: #dd8452"/>
   </g>
   <g id="patch_5">
    <path d="M 19.584735 113.336149 
L 54.738735 113.336149 
L 54.738735 105.17773 
L 19.584735 105.17773 
z
" clip-path="url(#p7ecd1366c2)" style="fill: #55a868"/>
   </g>
   <g id="patch_6">
    <path d="M 19.584735 105.17773 
L 54.738735 105.17773 
L 54.738735 100.304977 
L 19.584735 100.304977 
z
" clip-path="url(#p7ecd1366c2)" style="fill: #c44e52"/>
   </g>
   <g id="patch_7">
    <path d="M 19.584735 100.304977 
L 54.738735 100.304977 
L 54.738735 95.498836 
L 19.584735 95.498836 
z
" clip-path="url(#p7ecd1366c2)" style="fill: #8172b3"/>
   </g>
   <g id="patch_8">
    <path d="M 58.644735 168.98059 
L 93.798735 168.98059 
L 93.798735 140.720541 
L 58.644735 140.720541 
z
" clip-path="url(#p7ecd1366c2)" style="fill: #4c72b0"/>
   </g>
   <g id="patch_9">
    <path d="M 58.644735 140.720541 
L 93.798735 140.720541 
L 93.798735 112.844953 
L 58.644735 112.844953 
z
" clip-path="url(#p7ecd1366c2)" style="fill: #dd8452"/>
   </g>
   <g id="patch_10">
    <path d="M 58.644735 112.844953 
L 93.798735 112.844953 
L 93.798735 104.630313 
L 58.644735 104.630313 
z
" clip-path="url(#p7ecd1366c2)" style="fill: #55a868"/>
   </g>
   <g id="patch_11">
    <path d="M 58.644735 104.630313 
L 93.798735 104.630313 
L 93.798735 99.711042 
L 58.644735 99.711042 
z
" clip-path="url(#p7ecd1366c2)" style="fill: #c44e52"/>
   </g>
   <g id="patch_12">
    <path d="M 58.644735 99.711042 
L 93.798735 99.711042 
L 93.798735 94.859042 
L 58.644735 94.859042 
z
" clip-path="url(#p7ecd1366c2)" style="fill: #8172b3"/>
   </g>
   <g id="patch_13">
    <path d="M 97.704735 168.98059 
L 132.858735 168.98059 
L 132.858735 140.618092 
L 97.704735 140.618092 
z
" clip-path="url(#p7ecd1366c2)" style="fill: #4c72b0"/>
   </g>
   <g id="patch_14">
    <path d="M 97.704735 140.618092 
L 132.858735 140.618092 
L 132.858735 112.641492 
L 97.704735 112.641492 
z
" clip-path="url(#p7ecd1366c2)" style="fill: #dd8452"/>
   </g>
   <g id="patch_15">
    <path d="M 97.704735 112.641492 
L 132.858735 112.641492 
L 132.858735 104.267039 
L 97.704735 104.267039 
z
" clip-path="url(#p7ecd1366c2)" style="fill: #55a868"/>
   </g>
   <g id="patch_16">
    <path d="M 97.704735 104.267039 
L 132.858735 104.267039 
L 132.858735 99.328812 
L 97.704735 99.328812 
z
" clip-path="url(#p7ecd1366c2)" style="fill: #c44e52"/>
   </g>
   <g id="patch_17">
    <path d="M 97.704735 99.328812 
L 132.858735 99.328812 
L 132.858735 94.458121 
L 97.704735 94.458121 
z
" clip-path="url(#p7ecd1366c2)" style="fill: #8172b3"/>
   </g>
   <g id="patch_18">
    <path d="M 136.764735 168.98059 
L 171.918735 168.98059 
L 171.918735 140.592105 
L 136.764735 140.592105 
z
" clip-path="url(#p7ecd1366c2)" style="fill: #4c72b0"/>
   </g>
   <g id="patch_19">
    <path d="M 136.764735 140.592105 
L 171.918735 140.592105 
L 171.918735 112.589871 
L 136.764735 112.589871 
z
" clip-path="url(#p7ecd1366c2)" style="fill: #dd8452"/>
   </g>
   <g id="patch_20">
    <path d="M 136.764735 112.589871 
L 171.918735 112.589871 
L 171.918735 104.20624 
L 136.764735 104.20624 
z
" clip-path="url(#p7ecd1366c2)" style="fill: #55a868"/>
   </g>
   <g id="patch_21">
    <path d="M 136.764735 104.20624 
L 171.918735 104.20624 
L 171.918735 99.263502 
L 136.764735 99.263502 
z
" clip-path="url(#p7ecd1366c2)" style="fill: #c44e52"/>
   </g>
   <g id="patch_22">
    <path d="M 136.764735 99.263502 
L 171.918735 99.263502 
L 171.918735 94.388362 
L 136.764735 94.388362 
z
" clip-path="url(#p7ecd1366c2)" style="fill: #8172b3"/>
   </g>
   <g id="patch_23">
    <path d="M 175.824735 168.98059 
L 210.978735 168.98059 
L 210.978735 140.59305 
L 175.824735 140.59305 
z
" clip-path="url(#p7ecd1366c2)" style="fill: #4c72b0"/>
   </g>
   <g id="patch_24">
    <path d="M 175.824735 140.59305 
L 210.978735 140.59305 
L 210.978735 112.591748 
L 175.824735 112.591748 
z
" clip-path="url(#p7ecd1366c2)" style="fill: #dd8452"/>
   </g>
   <g id="patch_25">
    <path d="M 175.824735 112.591748 
L 210.978735 112.591748 
L 210.978735 104.212702 
L 175.824735 104.212702 
z
" clip-path="url(#p7ecd1366c2)" style="fill: #55a868"/>
   </g>
   <g id="patch_26">
    <path d="M 175.824735 104.212702 
L 210.978735 104.212702 
L 210.978735 99.270117 
L 175.824735 99.270117 
z
" clip-path="url(#p7ecd1366c2)" style="fill: #c44e52"/>
   </g>
   <g id="patch_27">
    <path d="M 175.824735 99.270117 
L 210.978735 99.270117 
L 210.978735 94.395128 
L 175.824735 94.395128 
z
" clip-path="url(#p7ecd1366c2)" style="fill: #8172b3"/>
   </g>
   <g id="matplotlib.axis_1">
    <g id="xtick_1">
     <g id="line2d_1"/>
     <g id="line2d_2"/>
     <g id="text_1">
      <!-- 2020 -->
      <g transform="translate(33.455631 175.275103) scale(0.04 -0.04)">
       <defs>
        <path id="LinLibertineT-32" d="M 390 2997 
C 390 2863 512 2747 646 2747 
C 755 2747 947 2863 947 3003 
C 947 3054 934 3093 922 3137 
C 909 3182 870 3239 870 3291 
C 870 3450 1037 3680 1504 3680 
C 1734 3680 2061 3521 2061 2908 
C 2061 2500 1914 2169 1536 1786 
L 1062 1320 
C 435 682 333 377 333 0 
C 333 0 659 0 864 0 
L 1984 0 
C 2189 0 2483 0 2483 0 
C 2566 337 2630 813 2637 1004 
C 2598 1036 2515 1048 2451 1036 
C 2342 582 2234 423 2003 423 
L 864 423 
C 864 730 1306 1164 1338 1196 
L 1984 1815 
C 2349 2167 2624 2448 2624 2933 
C 2624 3623 2061 3904 1542 3904 
C 832 3904 390 3380 390 2997 
z
" transform="scale(0.015625)"/>
        <path id="LinLibertineT-30" d="M 1485 3680 
C 1594 3680 1696 3641 1773 3571 
C 1971 3405 2144 2919 2144 2061 
C 2144 1472 2125 1069 2035 743 
C 1894 218 1581 160 1466 160 
C 870 160 806 1255 806 1811 
C 806 3386 1197 3680 1485 3680 
z
M 1459 -64 
C 1952 -64 2701 435 2701 1939 
C 2701 2573 2547 3117 2266 3488 
C 2099 3712 1830 3904 1485 3904 
C 851 3904 250 3150 250 1882 
C 250 1196 461 557 813 204 
C 992 26 1210 -64 1459 -64 
z
" transform="scale(0.015625)"/>
       </defs>
       <use xlink:href="#LinLibertineT-32" transform="scale(0.996264)"/>
       <use xlink:href="#LinLibertineT-30" transform="translate(46.326292 0) scale(0.996264)"/>
       <use xlink:href="#LinLibertineT-32" transform="translate(92.652583 0) scale(0.996264)"/>
       <use xlink:href="#LinLibertineT-30" transform="translate(138.978875 0) scale(0.996264)"/>
      </g>
     </g>
    </g>
    <g id="xtick_2">
     <g id="line2d_3"/>
     <g id="line2d_4"/>
     <g id="text_2">
      <!-- 2040 -->
      <g transform="translate(72.515631 175.275103) scale(0.04 -0.04)">
       <defs>
        <path id="LinLibertineT-34" d="M 1734 3251 
L 1734 1408 
L 512 1408 
C 838 1933 1293 2649 1734 3251 
z
M 2752 1408 
L 2221 1408 
L 2221 3281 
C 2221 3602 2221 3852 2234 3904 
L 2221 3904 
L 2016 3904 
C 1971 3904 1939 3866 1914 3834 
C 1510 3342 768 2288 179 1375 
C 198 1278 237 1106 429 1106 
L 1734 1106 
L 1734 509 
C 1734 211 1491 211 1216 211 
C 1178 172 1178 39 1216 0 
C 1421 0 1677 0 1971 0 
C 2221 0 2464 0 2669 0 
C 2707 39 2707 171 2669 210 
C 2355 235 2221 223 2221 521 
L 2221 1106 
L 2662 1106 
C 2752 1106 2848 1228 2848 1305 
C 2848 1369 2822 1408 2752 1408 
z
" transform="scale(0.015625)"/>
       </defs>
       <use xlink:href="#LinLibertineT-32" transform="scale(0.996264)"/>
       <use xlink:href="#LinLibertineT-30" transform="translate(46.326292 0) scale(0.996264)"/>
       <use xlink:href="#LinLibertineT-34" transform="translate(92.652583 0) scale(0.996264)"/>
       <use xlink:href="#LinLibertineT-30" transform="translate(138.978875 0) scale(0.996264)"/>
      </g>
     </g>
    </g>
    <g id="xtick_3">
     <g id="line2d_5"/>
     <g id="line2d_6"/>
     <g id="text_3">
      <!-- 2060 -->
      <g transform="translate(111.575631 175.275103) scale(0.04 -0.04)">
       <defs>
        <path id="LinLibertineT-36" d="M 864 1971 
C 1075 2112 1286 2112 1395 2112 
C 2022 2112 2163 1500 2163 1181 
C 2163 480 1894 161 1581 161 
C 1178 161 813 378 813 1473 
C 813 1619 826 1786 864 1971 
z
M 922 2202 
C 1094 2786 1504 3433 2355 3754 
C 2355 3831 2330 3889 2278 3921 
C 1632 3728 1235 3459 877 3043 
C 480 2582 282 1999 282 1493 
C 282 193 1018 -64 1510 -64 
C 2349 -64 2694 749 2694 1300 
C 2694 1850 2400 2343 1530 2343 
C 1363 2343 1114 2292 922 2202 
z
" transform="scale(0.015625)"/>
       </defs>
       <use xlink:href="#LinLibertineT-32" transform="scale(0.996264)"/>
       <use xlink:href="#LinLibertineT-30" transform="translate(46.326292 0) scale(0.996264)"/>
       <use xlink:href="#LinLibertineT-36" transform="translate(92.652583 0) scale(0.996264)"/>
       <use xlink:href="#LinLibertineT-30" transform="translate(138.978875 0) scale(0.996264)"/>
      </g>
     </g>
    </g>
    <g id="xtick_4">
     <g id="line2d_7"/>
     <g id="line2d_8"/>
     <g id="text_4">
      <!-- 2080 -->
      <g transform="translate(150.635631 175.275103) scale(0.04 -0.04)">
       <defs>
        <path id="LinLibertineT-38" d="M 1498 3680 
C 1914 3680 2067 3405 2067 3110 
C 2067 2765 1728 2477 1555 2349 
L 1357 2471 
C 954 2733 909 2944 909 3142 
C 909 3437 1114 3680 1498 3680 
z
M 2515 3104 
C 2515 3565 2157 3904 1530 3904 
C 877 3904 454 3514 454 3020 
C 454 2662 627 2399 1018 2156 
L 1184 2054 
C 998 1958 826 1843 666 1702 
C 403 1471 294 1184 294 934 
C 294 281 755 -64 1434 -64 
C 2272 -64 2682 551 2682 1037 
C 2682 1408 2522 1734 2182 1939 
L 1728 2214 
C 2029 2362 2515 2694 2515 3104 
z
M 1446 160 
C 1158 160 723 359 723 934 
C 723 1127 806 1575 1357 1939 
L 1658 1760 
C 2054 1517 2214 1217 2214 909 
C 2214 269 1734 160 1446 160 
z
" transform="scale(0.015625)"/>
       </defs>
       <use xlink:href="#LinLibertineT-32" transform="scale(0.996264)"/>
       <use xlink:href="#LinLibertineT-30" transform="translate(46.326292 0) scale(0.996264)"/>
       <use xlink:href="#LinLibertineT-38" transform="translate(92.652583 0) scale(0.996264)"/>
       <use xlink:href="#LinLibertineT-30" transform="translate(138.978875 0) scale(0.996264)"/>
      </g>
     </g>
    </g>
    <g id="xtick_5">
     <g id="line2d_9"/>
     <g id="line2d_10"/>
     <g id="text_5">
      <!-- 2100 -->
      <g transform="translate(189.695631 175.275103) scale(0.04 -0.04)">
       <defs>
        <path id="LinLibertineT-31" d="M 1843 779 
L 1843 3021 
C 1843 3409 1850 3802 1862 3886 
C 1862 3919 1850 3919 1824 3919 
C 1472 3700 1133 3540 570 3277 
C 582 3207 608 3141 666 3103 
C 960 3226 1101 3264 1222 3264 
C 1331 3264 1350 3109 1350 2889 
L 1350 780 
C 1350 243 1178 211 730 211 
C 691 172 691 39 730 0 
C 1043 0 1274 0 1619 0 
C 1926 0 2080 0 2400 0 
C 2438 39 2438 172 2400 211 
C 1952 211 1843 243 1843 779 
z
" transform="scale(0.015625)"/>
       </defs>
       <use xlink:href="#LinLibertineT-32" transform="scale(0.996264)"/>
       <use xlink:href="#LinLibertineT-31" transform="translate(46.326292 0) scale(0.996264)"/>
       <use xlink:href="#LinLibertineT-30" transform="translate(92.652583 0) scale(0.996264)"/>
       <use xlink:href="#LinLibertineT-30" transform="translate(138.978875 0) scale(0.996264)"/>
      </g>
     </g>
    </g>
    <g id="xtick_6">
     <g id="line2d_11"/>
     <g id="line2d_12"/>
    </g>
    <g id="xtick_7">
     <g id="line2d_13"/>
     <g id="line2d_14"/>
    </g>
    <g id="xtick_8">
     <g id="line2d_15"/>
     <g id="line2d_16"/>
    </g>
    <g id="xtick_9">
     <g id="line2d_17"/>
     <g id="line2d_18"/>
    </g>
    <g id="xtick_10">
     <g id="line2d_19"/>
     <g id="line2d_20"/>
    </g>
    <g id="xtick_11">
     <g id="line2d_21"/>
     <g id="line2d_22"/>
    </g>
    <g id="xtick_12">
     <g id="line2d_23"/>
     <g id="line2d_24"/>
    </g>
    <g id="xtick_13">
     <g id="line2d_25"/>
     <g id="line2d_26"/>
    </g>
    <g id="xtick_14">
     <g id="line2d_27"/>
     <g id="line2d_28"/>
    </g>
    <g id="xtick_15">
     <g id="line2d_29"/>
     <g id="line2d_30"/>
    </g>
    <g id="xtick_16">
     <g id="line2d_31"/>
     <g id="line2d_32"/>
    </g>
    <g id="xtick_17">
     <g id="line2d_33"/>
     <g id="line2d_34"/>
    </g>
    <g id="xtick_18">
     <g id="line2d_35"/>
     <g id="line2d_36"/>
    </g>
    <g id="xtick_19">
     <g id="line2d_37"/>
     <g id="line2d_38"/>
    </g>
    <g id="xtick_20">
     <g id="line2d_39"/>
     <g id="line2d_40"/>
    </g>
    <g id="xtick_21">
     <g id="line2d_41"/>
     <g id="line2d_42"/>
    </g>
    <g id="text_6">
     <!-- Year -->
     <g transform="translate(109.961704 184.395383) scale(0.06 -0.06)">
      <defs>
       <path id="LinLibertineT-59" d="M 2157 777 
L 2157 1654 
C 2157 1847 2163 1950 2272 2143 
L 3034 3535 
C 3213 3864 3354 3921 3642 3947 
C 3680 3985 3680 4121 3642 4160 
C 3462 4160 3258 4160 3110 4160 
C 2963 4160 2733 4160 2528 4160 
C 2490 4120 2490 3981 2528 3942 
C 2810 3942 2912 3878 2778 3621 
L 2067 2281 
C 2016 2184 1984 2191 1926 2293 
L 1184 3608 
C 1030 3878 1056 3942 1414 3942 
C 1453 3981 1453 4120 1414 4160 
C 1184 4160 941 4160 685 4160 
C 435 4160 224 4160 32 4160 
C -6 4121 0 3985 38 3947 
C 307 3928 416 3889 640 3515 
L 1478 2092 
C 1594 1898 1613 1834 1613 1596 
L 1613 777 
C 1613 243 1504 211 992 211 
C 954 172 954 39 992 0 
C 1306 0 1638 0 1888 0 
C 2138 0 2458 0 2778 0 
C 2816 39 2816 172 2778 211 
C 2266 211 2157 243 2157 777 
z
" transform="scale(0.015625)"/>
       <path id="LinLibertineT-65" d="M 794 1831 
C 915 2547 1363 2604 1517 2604 
C 1760 2604 2048 2467 2048 1922 
C 2048 1863 2022 1831 1952 1831 
L 794 1831 
z
M 2470 600 
C 2234 354 2048 250 1677 250 
C 1446 250 1178 386 979 715 
C 851 929 774 1226 774 1600 
L 2477 1600 
C 2554 1600 2598 1638 2598 1708 
C 2598 2243 2406 2816 1517 2816 
C 960 2816 237 2281 237 1302 
C 237 941 326 593 538 348 
C 755 91 1056 -64 1517 -64 
C 2003 -64 2349 161 2605 497 
C 2586 562 2547 594 2470 600 
z
" transform="scale(0.015625)"/>
       <path id="LinLibertineT-61" d="M 1875 1495 
L 1875 648 
C 1875 564 1837 520 1786 481 
C 1619 346 1402 199 1222 199 
C 902 199 762 455 762 654 
C 762 944 896 1239 1370 1361 
L 1875 1495 
z
M 1875 308 
C 1914 109 1984 -64 2304 -64 
C 2547 -64 2778 45 2912 173 
C 2899 250 2874 309 2803 347 
C 2758 309 2650 244 2566 244 
C 2381 244 2374 494 2374 789 
L 2374 1732 
C 2374 2642 1875 2816 1408 2816 
C 883 2816 352 2469 352 2104 
C 352 1950 429 1873 576 1873 
C 762 1873 877 2007 877 2091 
C 877 2136 870 2181 858 2206 
C 851 2226 845 2264 845 2335 
C 845 2533 1114 2604 1357 2604 
C 1574 2604 1875 2495 1875 1770 
C 1875 1725 1856 1700 1837 1693 
L 1286 1559 
C 672 1405 230 1065 230 629 
C 230 103 589 -64 1037 -64 
C 1261 -64 1453 -13 1734 205 
L 1862 308 
L 1875 308 
z
" transform="scale(0.015625)"/>
       <path id="LinLibertineT-72" d="M 1126 2296 
C 1114 2553 1107 2719 1075 2784 
C 1062 2816 1050 2835 998 2835 
C 819 2764 653 2707 211 2649 
C 198 2610 211 2508 224 2469 
C 570 2436 640 2404 640 2031 
L 640 777 
C 640 244 563 218 166 218 
C 128 178 128 40 166 0 
C 390 0 640 0 896 0 
C 1152 0 1446 0 1670 0 
C 1709 39 1709 172 1670 211 
C 1222 243 1146 262 1146 791 
L 1146 1678 
C 1146 1844 1222 1990 1299 2106 
C 1370 2207 1517 2418 1594 2418 
C 1651 2418 1709 2405 1760 2335 
C 1805 2271 1882 2188 1990 2188 
C 2144 2188 2291 2348 2291 2508 
C 2291 2630 2176 2816 1907 2816 
C 1606 2816 1344 2533 1197 2283 
C 1158 2213 1126 2264 1126 2296 
z
" transform="scale(0.015625)"/>
      </defs>
      <use xlink:href="#LinLibertineT-59" transform="scale(0.996264)"/>
      <use xlink:href="#LinLibertineT-65" transform="translate(50.211654 0) scale(0.996264)"/>
      <use xlink:href="#LinLibertineT-61" transform="translate(94.744607 0) scale(0.996264)"/>
      <use xlink:href="#LinLibertineT-72" transform="translate(140.273839 0) scale(0.996264)"/>
     </g>
    </g>
   </g>
   <g id="matplotlib.axis_2">
    <g id="ytick_1">
     <g id="line2d_43">
      <defs>
       <path id="maafa9ef65d" d="M 0 0 
L 3 0 
" style="stroke: #000000; stroke-width: 0.5"/>
      </defs>
      <g>
       <use xlink:href="#maafa9ef65d" x="17.631735" y="168.98059" style="stroke: #000000; stroke-width: 0.5"/>
      </g>
     </g>
     <g id="line2d_44">
      <defs>
       <path id="m213160d045" d="M 0 0 
L -3 0 
" style="stroke: #000000; stroke-width: 0.5"/>
      </defs>
      <g>
       <use xlink:href="#m213160d045" x="212.931735" y="168.98059" style="stroke: #000000; stroke-width: 0.5"/>
      </g>
     </g>
     <g id="text_7">
      <!-- $\mathdefault{0}$ -->
      <g transform="translate(12.278683 170.377846) scale(0.04 -0.04)">
       <use xlink:href="#LinLibertineT-30" transform="scale(0.996264)"/>
      </g>
     </g>
    </g>
    <g id="ytick_2">
     <g id="line2d_45">
      <g>
       <use xlink:href="#maafa9ef65d" x="17.631735" y="147.686376" style="stroke: #000000; stroke-width: 0.5"/>
      </g>
     </g>
     <g id="line2d_46">
      <g>
       <use xlink:href="#m213160d045" x="212.931735" y="147.686376" style="stroke: #000000; stroke-width: 0.5"/>
      </g>
     </g>
     <g id="text_8">
      <!-- $\mathdefault{1}$ -->
      <g transform="translate(12.278683 149.083633) scale(0.04 -0.04)">
       <use xlink:href="#LinLibertineT-31" transform="scale(0.996264)"/>
      </g>
     </g>
    </g>
    <g id="ytick_3">
     <g id="line2d_47">
      <g>
       <use xlink:href="#maafa9ef65d" x="17.631735" y="126.392162" style="stroke: #000000; stroke-width: 0.5"/>
      </g>
     </g>
     <g id="line2d_48">
      <g>
       <use xlink:href="#m213160d045" x="212.931735" y="126.392162" style="stroke: #000000; stroke-width: 0.5"/>
      </g>
     </g>
     <g id="text_9">
      <!-- $\mathdefault{2}$ -->
      <g transform="translate(12.278683 127.789419) scale(0.04 -0.04)">
       <use xlink:href="#LinLibertineT-32" transform="scale(0.996264)"/>
      </g>
     </g>
    </g>
    <g id="ytick_4">
     <g id="line2d_49">
      <g>
       <use xlink:href="#maafa9ef65d" x="17.631735" y="105.097948" style="stroke: #000000; stroke-width: 0.5"/>
      </g>
     </g>
     <g id="line2d_50">
      <g>
       <use xlink:href="#m213160d045" x="212.931735" y="105.097948" style="stroke: #000000; stroke-width: 0.5"/>
      </g>
     </g>
     <g id="text_10">
      <!-- $\mathdefault{3}$ -->
      <g transform="translate(12.278683 106.495205) scale(0.04 -0.04)">
       <defs>
        <path id="LinLibertineT-33" d="M 1376 3680 
C 1651 3680 1907 3513 1907 3105 
C 1907 2784 1536 2292 902 2202 
L 934 1997 
C 1043 2010 1158 2010 1242 2010 
C 1606 2010 2080 1907 2080 1185 
C 2080 334 1510 160 1286 160 
C 960 160 902 308 826 422 
C 762 512 678 589 550 589 
C 416 589 282 467 282 365 
C 282 109 819 -64 1203 -64 
C 1965 -64 2643 429 2643 1273 
C 2643 1971 2118 2221 1741 2285 
L 1734 2298 
C 2259 2548 2406 2810 2406 3149 
C 2406 3341 2362 3495 2208 3654 
C 2067 3795 1843 3904 1510 3904 
C 570 3904 301 3290 301 3079 
C 301 2989 365 2861 518 2861 
C 742 2861 768 3072 768 3193 
C 768 3603 1210 3680 1376 3680 
z
" transform="scale(0.015625)"/>
       </defs>
       <use xlink:href="#LinLibertineT-33" transform="scale(0.996264)"/>
      </g>
     </g>
    </g>
    <g id="ytick_5">
     <g id="line2d_51">
      <g>
       <use xlink:href="#maafa9ef65d" x="17.631735" y="83.803734" style="stroke: #000000; stroke-width: 0.5"/>
      </g>
     </g>
     <g id="line2d_52">
      <g>
       <use xlink:href="#m213160d045" x="212.931735" y="83.803734" style="stroke: #000000; stroke-width: 0.5"/>
      </g>
     </g>
     <g id="text_11">
      <!-- $\mathdefault{4}$ -->
      <g transform="translate(12.278683 85.200991) scale(0.04 -0.04)">
       <use xlink:href="#LinLibertineT-34" transform="scale(0.996264)"/>
      </g>
     </g>
    </g>
    <g id="ytick_6">
     <g id="line2d_53">
      <g>
       <use xlink:href="#maafa9ef65d" x="17.631735" y="62.50952" style="stroke: #000000; stroke-width: 0.5"/>
      </g>
     </g>
     <g id="line2d_54">
      <g>
       <use xlink:href="#m213160d045" x="212.931735" y="62.50952" style="stroke: #000000; stroke-width: 0.5"/>
      </g>
     </g>
     <g id="text_12">
      <!-- $\mathdefault{5}$ -->
      <g transform="translate(12.278683 63.906777) scale(0.04 -0.04)">
       <defs>
        <path id="LinLibertineT-35" d="M 2042 1210 
C 2042 606 1722 161 1338 161 
C 1094 161 1011 320 915 448 
C 832 556 723 651 589 651 
C 467 651 346 543 346 414 
C 346 154 890 -64 1254 -64 
C 2048 -64 2611 523 2611 1325 
C 2611 1943 2182 2497 1466 2497 
C 1190 2497 954 2439 838 2394 
L 966 3461 
C 1203 3439 1408 3410 1715 3410 
C 1907 3410 2125 3410 2387 3436 
L 2490 3878 
L 2445 3904 
C 2080 3867 1734 3840 1395 3840 
C 1158 3840 928 3840 704 3865 
L 486 2024 
C 826 2150 1069 2176 1299 2176 
C 1715 2176 2042 1902 2042 1210 
z
" transform="scale(0.015625)"/>
       </defs>
       <use xlink:href="#LinLibertineT-35" transform="scale(0.996264)"/>
      </g>
     </g>
    </g>
    <g id="ytick_7">
     <g id="line2d_55">
      <g>
       <use xlink:href="#maafa9ef65d" x="17.631735" y="41.215307" style="stroke: #000000; stroke-width: 0.5"/>
      </g>
     </g>
     <g id="line2d_56">
      <g>
       <use xlink:href="#m213160d045" x="212.931735" y="41.215307" style="stroke: #000000; stroke-width: 0.5"/>
      </g>
     </g>
     <g id="text_13">
      <!-- $\mathdefault{6}$ -->
      <g transform="translate(12.278683 42.612563) scale(0.04 -0.04)">
       <use xlink:href="#LinLibertineT-36" transform="scale(0.996264)"/>
      </g>
     </g>
    </g>
    <g id="ytick_8">
     <g id="line2d_57">
      <defs>
       <path id="m4eb897eb67" d="M 0 0 
L 1.5 0 
" style="stroke: #000000; stroke-width: 0.5"/>
      </defs>
      <g>
       <use xlink:href="#m4eb897eb67" x="17.631735" y="164.721747" style="stroke: #000000; stroke-width: 0.5"/>
      </g>
     </g>
     <g id="line2d_58">
      <defs>
       <path id="m140140d628" d="M 0 0 
L -1.5 0 
" style="stroke: #000000; stroke-width: 0.5"/>
      </defs>
      <g>
       <use xlink:href="#m140140d628" x="212.931735" y="164.721747" style="stroke: #000000; stroke-width: 0.5"/>
      </g>
     </g>
    </g>
    <g id="ytick_9">
     <g id="line2d_59">
      <g>
       <use xlink:href="#m4eb897eb67" x="17.631735" y="160.462904" style="stroke: #000000; stroke-width: 0.5"/>
      </g>
     </g>
     <g id="line2d_60">
      <g>
       <use xlink:href="#m140140d628" x="212.931735" y="160.462904" style="stroke: #000000; stroke-width: 0.5"/>
      </g>
     </g>
    </g>
    <g id="ytick_10">
     <g id="line2d_61">
      <g>
       <use xlink:href="#m4eb897eb67" x="17.631735" y="156.204061" style="stroke: #000000; stroke-width: 0.5"/>
      </g>
     </g>
     <g id="line2d_62">
      <g>
       <use xlink:href="#m140140d628" x="212.931735" y="156.204061" style="stroke: #000000; stroke-width: 0.5"/>
      </g>
     </g>
    </g>
    <g id="ytick_11">
     <g id="line2d_63">
      <g>
       <use xlink:href="#m4eb897eb67" x="17.631735" y="151.945219" style="stroke: #000000; stroke-width: 0.5"/>
      </g>
     </g>
     <g id="line2d_64">
      <g>
       <use xlink:href="#m140140d628" x="212.931735" y="151.945219" style="stroke: #000000; stroke-width: 0.5"/>
      </g>
     </g>
    </g>
    <g id="ytick_12">
     <g id="line2d_65">
      <g>
       <use xlink:href="#m4eb897eb67" x="17.631735" y="143.427533" style="stroke: #000000; stroke-width: 0.5"/>
      </g>
     </g>
     <g id="line2d_66">
      <g>
       <use xlink:href="#m140140d628" x="212.931735" y="143.427533" style="stroke: #000000; stroke-width: 0.5"/>
      </g>
     </g>
    </g>
    <g id="ytick_13">
     <g id="line2d_67">
      <g>
       <use xlink:href="#m4eb897eb67" x="17.631735" y="139.16869" style="stroke: #000000; stroke-width: 0.5"/>
      </g>
     </g>
     <g id="line2d_68">
      <g>
       <use xlink:href="#m140140d628" x="212.931735" y="139.16869" style="stroke: #000000; stroke-width: 0.5"/>
      </g>
     </g>
    </g>
    <g id="ytick_14">
     <g id="line2d_69">
      <g>
       <use xlink:href="#m4eb897eb67" x="17.631735" y="134.909848" style="stroke: #000000; stroke-width: 0.5"/>
      </g>
     </g>
     <g id="line2d_70">
      <g>
       <use xlink:href="#m140140d628" x="212.931735" y="134.909848" style="stroke: #000000; stroke-width: 0.5"/>
      </g>
     </g>
    </g>
    <g id="ytick_15">
     <g id="line2d_71">
      <g>
       <use xlink:href="#m4eb897eb67" x="17.631735" y="130.651005" style="stroke: #000000; stroke-width: 0.5"/>
      </g>
     </g>
     <g id="line2d_72">
      <g>
       <use xlink:href="#m140140d628" x="212.931735" y="130.651005" style="stroke: #000000; stroke-width: 0.5"/>
      </g>
     </g>
    </g>
    <g id="ytick_16">
     <g id="line2d_73">
      <g>
       <use xlink:href="#m4eb897eb67" x="17.631735" y="122.133319" style="stroke: #000000; stroke-width: 0.5"/>
      </g>
     </g>
     <g id="line2d_74">
      <g>
       <use xlink:href="#m140140d628" x="212.931735" y="122.133319" style="stroke: #000000; stroke-width: 0.5"/>
      </g>
     </g>
    </g>
    <g id="ytick_17">
     <g id="line2d_75">
      <g>
       <use xlink:href="#m4eb897eb67" x="17.631735" y="117.874476" style="stroke: #000000; stroke-width: 0.5"/>
      </g>
     </g>
     <g id="line2d_76">
      <g>
       <use xlink:href="#m140140d628" x="212.931735" y="117.874476" style="stroke: #000000; stroke-width: 0.5"/>
      </g>
     </g>
    </g>
    <g id="ytick_18">
     <g id="line2d_77">
      <g>
       <use xlink:href="#m4eb897eb67" x="17.631735" y="113.615634" style="stroke: #000000; stroke-width: 0.5"/>
      </g>
     </g>
     <g id="line2d_78">
      <g>
       <use xlink:href="#m140140d628" x="212.931735" y="113.615634" style="stroke: #000000; stroke-width: 0.5"/>
      </g>
     </g>
    </g>
    <g id="ytick_19">
     <g id="line2d_79">
      <g>
       <use xlink:href="#m4eb897eb67" x="17.631735" y="109.356791" style="stroke: #000000; stroke-width: 0.5"/>
      </g>
     </g>
     <g id="line2d_80">
      <g>
       <use xlink:href="#m140140d628" x="212.931735" y="109.356791" style="stroke: #000000; stroke-width: 0.5"/>
      </g>
     </g>
    </g>
    <g id="ytick_20">
     <g id="line2d_81">
      <g>
       <use xlink:href="#m4eb897eb67" x="17.631735" y="100.839105" style="stroke: #000000; stroke-width: 0.5"/>
      </g>
     </g>
     <g id="line2d_82">
      <g>
       <use xlink:href="#m140140d628" x="212.931735" y="100.839105" style="stroke: #000000; stroke-width: 0.5"/>
      </g>
     </g>
    </g>
    <g id="ytick_21">
     <g id="line2d_83">
      <g>
       <use xlink:href="#m4eb897eb67" x="17.631735" y="96.580263" style="stroke: #000000; stroke-width: 0.5"/>
      </g>
     </g>
     <g id="line2d_84">
      <g>
       <use xlink:href="#m140140d628" x="212.931735" y="96.580263" style="stroke: #000000; stroke-width: 0.5"/>
      </g>
     </g>
    </g>
    <g id="ytick_22">
     <g id="line2d_85">
      <g>
       <use xlink:href="#m4eb897eb67" x="17.631735" y="92.32142" style="stroke: #000000; stroke-width: 0.5"/>
      </g>
     </g>
     <g id="line2d_86">
      <g>
       <use xlink:href="#m140140d628" x="212.931735" y="92.32142" style="stroke: #000000; stroke-width: 0.5"/>
      </g>
     </g>
    </g>
    <g id="ytick_23">
     <g id="line2d_87">
      <g>
       <use xlink:href="#m4eb897eb67" x="17.631735" y="88.062577" style="stroke: #000000; stroke-width: 0.5"/>
      </g>
     </g>
     <g id="line2d_88">
      <g>
       <use xlink:href="#m140140d628" x="212.931735" y="88.062577" style="stroke: #000000; stroke-width: 0.5"/>
      </g>
     </g>
    </g>
    <g id="ytick_24">
     <g id="line2d_89">
      <g>
       <use xlink:href="#m4eb897eb67" x="17.631735" y="79.544892" style="stroke: #000000; stroke-width: 0.5"/>
      </g>
     </g>
     <g id="line2d_90">
      <g>
       <use xlink:href="#m140140d628" x="212.931735" y="79.544892" style="stroke: #000000; stroke-width: 0.5"/>
      </g>
     </g>
    </g>
    <g id="ytick_25">
     <g id="line2d_91">
      <g>
       <use xlink:href="#m4eb897eb67" x="17.631735" y="75.286049" style="stroke: #000000; stroke-width: 0.5"/>
      </g>
     </g>
     <g id="line2d_92">
      <g>
       <use xlink:href="#m140140d628" x="212.931735" y="75.286049" style="stroke: #000000; stroke-width: 0.5"/>
      </g>
     </g>
    </g>
    <g id="ytick_26">
     <g id="line2d_93">
      <g>
       <use xlink:href="#m4eb897eb67" x="17.631735" y="71.027206" style="stroke: #000000; stroke-width: 0.5"/>
      </g>
     </g>
     <g id="line2d_94">
      <g>
       <use xlink:href="#m140140d628" x="212.931735" y="71.027206" style="stroke: #000000; stroke-width: 0.5"/>
      </g>
     </g>
    </g>
    <g id="ytick_27">
     <g id="line2d_95">
      <g>
       <use xlink:href="#m4eb897eb67" x="17.631735" y="66.768363" style="stroke: #000000; stroke-width: 0.5"/>
      </g>
     </g>
     <g id="line2d_96">
      <g>
       <use xlink:href="#m140140d628" x="212.931735" y="66.768363" style="stroke: #000000; stroke-width: 0.5"/>
      </g>
     </g>
    </g>
    <g id="ytick_28">
     <g id="line2d_97">
      <g>
       <use xlink:href="#m4eb897eb67" x="17.631735" y="58.250678" style="stroke: #000000; stroke-width: 0.5"/>
      </g>
     </g>
     <g id="line2d_98">
      <g>
       <use xlink:href="#m140140d628" x="212.931735" y="58.250678" style="stroke: #000000; stroke-width: 0.5"/>
      </g>
     </g>
    </g>
    <g id="ytick_29">
     <g id="line2d_99">
      <g>
       <use xlink:href="#m4eb897eb67" x="17.631735" y="53.991835" style="stroke: #000000; stroke-width: 0.5"/>
      </g>
     </g>
     <g id="line2d_100">
      <g>
       <use xlink:href="#m140140d628" x="212.931735" y="53.991835" style="stroke: #000000; stroke-width: 0.5"/>
      </g>
     </g>
    </g>
    <g id="ytick_30">
     <g id="line2d_101">
      <g>
       <use xlink:href="#m4eb897eb67" x="17.631735" y="49.732992" style="stroke: #000000; stroke-width: 0.5"/>
      </g>
     </g>
     <g id="line2d_102">
      <g>
       <use xlink:href="#m140140d628" x="212.931735" y="49.732992" style="stroke: #000000; stroke-width: 0.5"/>
      </g>
     </g>
    </g>
    <g id="ytick_31">
     <g id="line2d_103">
      <g>
       <use xlink:href="#m4eb897eb67" x="17.631735" y="45.474149" style="stroke: #000000; stroke-width: 0.5"/>
      </g>
     </g>
     <g id="line2d_104">
      <g>
       <use xlink:href="#m140140d628" x="212.931735" y="45.474149" style="stroke: #000000; stroke-width: 0.5"/>
      </g>
     </g>
    </g>
    <g id="ytick_32">
     <g id="line2d_105">
      <g>
       <use xlink:href="#m4eb897eb67" x="17.631735" y="36.956464" style="stroke: #000000; stroke-width: 0.5"/>
      </g>
     </g>
     <g id="line2d_106">
      <g>
       <use xlink:href="#m140140d628" x="212.931735" y="36.956464" style="stroke: #000000; stroke-width: 0.5"/>
      </g>
     </g>
    </g>
    <g id="ytick_33">
     <g id="line2d_107">
      <g>
       <use xlink:href="#m4eb897eb67" x="17.631735" y="32.697621" style="stroke: #000000; stroke-width: 0.5"/>
      </g>
     </g>
     <g id="line2d_108">
      <g>
       <use xlink:href="#m140140d628" x="212.931735" y="32.697621" style="stroke: #000000; stroke-width: 0.5"/>
      </g>
     </g>
    </g>
    <g id="ytick_34">
     <g id="line2d_109">
      <g>
       <use xlink:href="#m4eb897eb67" x="17.631735" y="28.438778" style="stroke: #000000; stroke-width: 0.5"/>
      </g>
     </g>
     <g id="line2d_110">
      <g>
       <use xlink:href="#m140140d628" x="212.931735" y="28.438778" style="stroke: #000000; stroke-width: 0.5"/>
      </g>
     </g>
    </g>
    <g id="ytick_35">
     <g id="line2d_111">
      <g>
       <use xlink:href="#m4eb897eb67" x="17.631735" y="24.179935" style="stroke: #000000; stroke-width: 0.5"/>
      </g>
     </g>
     <g id="line2d_112">
      <g>
       <use xlink:href="#m140140d628" x="212.931735" y="24.179935" style="stroke: #000000; stroke-width: 0.5"/>
      </g>
     </g>
    </g>
    <g id="text_14">
     <!-- Score: kilowatt hour / kg -->
     <g transform="translate(7.093142 121.489967) rotate(-90) scale(0.05 -0.05)">
      <defs>
       <path id="LinLibertineT-53" d="M 2528 4051 
C 2157 4102 2170 4224 1542 4224 
C 896 4224 326 3794 326 3114 
C 326 2439 883 2131 1446 1913 
C 1830 1766 2304 1585 2304 957 
C 2304 436 2016 167 1504 167 
C 909 167 525 443 384 1078 
C 301 1104 237 1091 173 1059 
C 198 564 224 398 301 83 
C 704 83 883 -64 1453 -64 
C 1741 -64 2016 6 2240 148 
C 2611 378 2842 771 2842 1181 
C 2842 1862 2330 2163 1805 2362 
C 1421 2504 781 2748 781 3287 
C 781 3647 1107 4006 1485 4006 
C 2106 4006 2304 3607 2432 3184 
C 2502 3171 2586 3178 2643 3223 
C 2618 3531 2592 3710 2528 4051 
z
" transform="scale(0.015625)"/>
       <path id="LinLibertineT-63" d="M 2547 584 
C 2522 641 2470 667 2413 673 
C 2195 391 1920 250 1645 250 
C 1178 250 787 725 787 1475 
C 787 2181 1094 2604 1517 2604 
C 1894 2604 1946 2379 1971 2155 
C 1990 1982 2080 1924 2214 1924 
C 2349 1924 2528 2007 2528 2206 
C 2528 2559 2163 2816 1549 2816 
C 915 2816 237 2245 237 1334 
C 237 507 698 -64 1504 -64 
C 1888 -64 2227 58 2547 584 
z
" transform="scale(0.015625)"/>
       <path id="LinLibertineT-6f" d="M 262 1315 
C 262 661 698 -64 1606 -64 
C 2016 -64 2330 83 2547 295 
C 2835 577 2963 981 2963 1373 
C 2963 2040 2598 2816 1619 2816 
C 1197 2816 851 2642 614 2367 
C 384 2091 262 1719 262 1315 
z
M 1523 2591 
C 2074 2591 2413 2091 2413 1167 
C 2413 359 1997 160 1696 160 
C 1030 160 813 968 813 1462 
C 813 2020 947 2591 1523 2591 
z
" transform="scale(0.015625)"/>
       <path id="LinLibertineT-3a" d="M 448 2284 
C 448 2098 602 1944 787 1944 
C 973 1944 1126 2098 1126 2284 
C 1126 2470 973 2624 787 2624 
C 602 2624 448 2470 448 2284 
z
M 448 468 
C 448 282 602 128 787 128 
C 973 128 1126 282 1126 468 
C 1126 654 973 808 787 808 
C 602 808 448 654 448 468 
z
" transform="scale(0.015625)"/>
       <path id="LinLibertineT-6b" d="M 550 794 
C 550 263 480 237 122 212 
C 83 173 83 39 122 0 
C 333 0 550 0 806 0 
C 1030 0 1242 0 1389 0 
C 1427 39 1427 171 1389 210 
C 1126 235 1056 260 1056 787 
L 1056 1339 
C 1178 1339 1267 1333 1331 1313 
C 1402 1262 1459 1205 1536 1103 
L 2003 478 
C 2189 230 2266 108 2272 32 
C 2272 13 2278 0 2298 0 
C 2426 0 2566 0 2694 0 
C 2893 0 3091 0 3219 0 
C 3258 39 3258 172 3219 211 
C 3002 236 2842 262 2669 478 
L 1824 1537 
C 1798 1569 1779 1595 1779 1627 
C 1779 1652 1779 1665 1805 1691 
L 2368 2271 
C 2560 2476 2784 2526 3040 2552 
C 3078 2590 3078 2724 3040 2762 
C 2893 2762 2714 2762 2483 2762 
C 2240 2762 2003 2762 1856 2762 
C 1818 2724 1818 2590 1856 2552 
C 2214 2526 2061 2304 2003 2227 
C 1856 2042 1658 1824 1491 1704 
C 1350 1601 1178 1525 1056 1506 
L 1056 3742 
C 1056 4159 1082 4416 1082 4416 
C 1082 4460 1056 4480 998 4480 
C 838 4414 358 4321 102 4301 
C 90 4247 102 4141 141 4101 
C 474 4101 550 4133 550 3594 
L 550 794 
z
" transform="scale(0.015625)"/>
       <path id="LinLibertineT-69" d="M 576 3852 
C 576 3685 730 3518 883 3518 
C 1062 3518 1216 3691 1216 3826 
C 1216 3980 1082 4160 909 4160 
C 755 4160 576 4006 576 3852 
z
M 1158 779 
L 1158 2064 
C 1158 2386 1184 2799 1184 2799 
C 1184 2825 1152 2844 1101 2844 
C 922 2773 666 2716 224 2658 
C 211 2619 224 2517 237 2478 
C 589 2446 653 2408 653 2043 
L 653 794 
C 653 263 582 244 192 212 
C 154 173 154 39 192 0 
C 403 0 653 0 909 0 
C 1165 0 1408 0 1619 0 
C 1658 40 1658 178 1619 218 
C 1229 218 1158 244 1158 779 
z
" transform="scale(0.015625)"/>
       <path id="LinLibertineT-6c" d="M 608 778 
C 608 243 538 211 147 211 
C 109 172 109 39 147 0 
C 371 0 608 0 864 0 
C 1120 0 1363 0 1574 0 
C 1613 39 1613 172 1574 211 
C 1184 211 1114 243 1114 776 
L 1114 3740 
C 1114 4158 1139 4416 1139 4416 
C 1139 4460 1114 4480 1056 4480 
C 896 4414 416 4321 160 4301 
C 147 4247 160 4141 198 4101 
C 570 4101 608 4081 608 3597 
L 608 778 
z
" transform="scale(0.015625)"/>
       <path id="LinLibertineT-77" d="M 1299 2560 
C 1338 2599 1338 2739 1299 2778 
C 1107 2778 883 2778 653 2778 
C 410 2778 237 2778 70 2778 
C 32 2740 32 2605 70 2567 
C 371 2535 442 2470 576 2137 
L 1414 64 
C 1453 -25 1504 -64 1568 -64 
C 1626 -64 1677 -25 1722 77 
L 2368 1660 
L 3027 64 
C 3066 -25 3117 -64 3181 -64 
C 3238 -64 3290 -25 3328 72 
L 4166 2116 
C 4269 2380 4378 2560 4704 2560 
C 4742 2599 4742 2739 4704 2778 
C 4576 2778 4435 2778 4243 2778 
C 4051 2778 3782 2778 3590 2778 
C 3552 2739 3552 2599 3590 2560 
C 4070 2560 4006 2374 3917 2150 
L 3379 815 
C 3315 655 3290 655 3238 790 
L 2688 2194 
C 2566 2496 2579 2560 2918 2584 
C 2957 2619 2957 2743 2918 2778 
C 2726 2778 2470 2778 2278 2778 
C 2118 2778 1907 2778 1715 2778 
C 1677 2740 1677 2606 1715 2568 
C 2016 2542 2093 2357 2208 2069 
L 2246 1968 
L 1798 833 
C 1715 621 1702 614 1619 820 
L 1107 2144 
C 986 2456 992 2560 1299 2560 
z
" transform="scale(0.015625)"/>
       <path id="LinLibertineT-8b" d="M 576 2496 
L 576 570 
C 576 115 768 -64 1069 -64 
C 1389 -64 1683 122 1850 371 
C 1830 435 1805 461 1747 467 
C 1651 384 1472 288 1293 288 
C 1120 288 1082 480 1082 877 
L 1082 2496 
L 2432 2496 
L 2432 570 
C 2432 115 2630 -64 2925 -64 
C 3219 -64 3539 77 3789 358 
C 3776 422 3738 461 3674 467 
C 3507 339 3315 288 3149 288 
C 2976 288 2938 480 2938 877 
L 2938 2496 
L 3603 2496 
C 3667 2496 3757 2522 3757 2579 
L 3757 2708 
C 3757 2733 3738 2746 3706 2746 
L 2938 2746 
L 2938 2995 
C 2938 3411 2963 3667 2963 3667 
C 2963 3712 2938 3731 2880 3731 
L 2509 3565 
C 2470 3539 2413 3526 2419 3482 
C 2432 3334 2432 3277 2432 2746 
C 2163 2746 1760 2746 1082 2746 
L 1082 2931 
C 1082 3347 1107 3603 1107 3603 
C 1107 3648 1082 3667 1024 3667 
L 653 3501 
C 614 3475 557 3462 563 3418 
C 576 3270 576 3277 576 2746 
L 282 2746 
C 192 2746 166 2669 166 2618 
L 166 2534 
C 166 2502 173 2496 198 2496 
L 576 2496 
z
" transform="scale(0.015625)"/>
       <path id="LinLibertineT-68" d="M 1069 1837 
C 1069 1972 1126 2048 1178 2106 
C 1421 2342 1747 2482 1997 2482 
C 2125 2482 2259 2399 2336 2252 
C 2400 2125 2413 1953 2413 1761 
L 2413 791 
C 2413 269 2349 243 2016 211 
C 1984 172 1984 39 2016 0 
C 2195 0 2413 0 2669 0 
C 2925 0 3136 0 3347 0 
C 3379 39 3379 172 3347 211 
C 2989 243 2918 269 2918 791 
L 2918 1743 
C 2918 2094 2893 2407 2746 2599 
C 2637 2739 2438 2816 2214 2816 
C 1901 2816 1517 2732 1126 2296 
C 1107 2270 1062 2206 1062 2296 
L 1069 3741 
C 1069 4158 1094 4416 1094 4416 
C 1094 4460 1069 4480 1011 4480 
C 851 4414 371 4320 115 4300 
C 102 4246 115 4140 154 4100 
C 486 4100 563 4132 563 3591 
L 563 778 
C 563 244 486 218 115 218 
C 77 178 77 40 115 0 
C 326 0 563 0 819 0 
C 1062 0 1274 0 1453 0 
C 1491 39 1491 172 1453 211 
C 1126 236 1069 262 1069 791 
L 1069 1837 
z
" transform="scale(0.015625)"/>
       <path id="LinLibertineT-75" d="M 1389 -64 
C 1638 -64 1939 64 2253 320 
C 2285 345 2342 358 2349 313 
C 2368 154 2419 -64 2419 -64 
C 2470 -83 2502 -77 2541 -64 
C 2682 51 2906 148 3296 191 
C 3334 230 3334 326 3296 365 
C 2886 397 2829 519 2829 832 
L 2829 2060 
C 2829 2253 2854 2720 2854 2720 
C 2854 2739 2835 2758 2803 2758 
C 2771 2752 2675 2752 2579 2752 
C 2374 2752 2144 2752 1926 2752 
C 1888 2713 1888 2573 1926 2534 
C 2240 2534 2323 2457 2323 2034 
L 2323 795 
C 2323 673 2310 622 2221 545 
C 1984 340 1741 237 1581 237 
C 1389 237 1069 327 1069 896 
L 1069 2061 
C 1069 2253 1094 2720 1094 2720 
C 1094 2739 1075 2758 1043 2758 
C 1011 2752 915 2752 819 2752 
C 614 2752 384 2752 166 2752 
C 128 2714 128 2580 166 2542 
C 474 2516 563 2445 563 2031 
L 563 804 
C 563 364 755 -64 1389 -64 
z
" transform="scale(0.015625)"/>
       <path id="LinLibertineT-2f" d="M 1875 4128 
L 1613 4128 
L 96 -384 
L 358 -384 
L 1875 4128 
z
" transform="scale(0.015625)"/>
       <path id="LinLibertineT-67" d="M 2042 1798 
C 2042 1209 1741 1088 1504 1088 
C 966 1088 909 1538 909 1944 
C 909 2389 1069 2617 1421 2617 
C 1824 2617 2042 2325 2042 1798 
z
M 845 -84 
C 915 -103 1018 -116 1101 -116 
C 1299 -116 1478 -71 1568 -71 
C 1888 -71 2157 -71 2342 -176 
C 2592 -319 2669 -411 2669 -581 
C 2669 -1051 1990 -1299 1414 -1299 
C 1184 -1299 646 -1115 646 -682 
C 646 -466 659 -307 845 -84 
z
M 2842 2463 
C 2963 2463 3078 2579 3078 2707 
C 3078 2841 2957 2944 2784 2944 
C 2618 2944 2310 2841 2144 2636 
C 2067 2687 1856 2816 1478 2816 
C 909 2816 384 2435 384 1850 
C 384 1506 538 1310 717 1138 
C 538 983 435 705 435 485 
C 435 252 563 71 730 -13 
C 384 -220 205 -519 205 -797 
C 205 -1361 730 -1536 1222 -1536 
C 2086 -1536 3021 -1115 3021 -414 
C 3021 -206 2925 -43 2739 113 
C 2490 320 2042 320 1805 320 
C 1690 320 1530 294 1376 256 
C 1280 256 1216 256 1184 256 
C 998 256 774 350 774 637 
C 774 770 813 911 890 1024 
C 1043 934 1222 889 1472 889 
C 2035 889 2554 1235 2554 1853 
C 2554 2148 2464 2318 2278 2507 
C 2323 2577 2451 2674 2534 2674 
C 2579 2674 2624 2653 2662 2590 
C 2688 2533 2771 2463 2842 2463 
z
" transform="scale(0.015625)"/>
      </defs>
      <use xlink:href="#LinLibertineT-53" transform="scale(0.996264)"/>
      <use xlink:href="#LinLibertineT-63" transform="translate(48.318759 0) scale(0.996264)"/>
      <use xlink:href="#LinLibertineT-6f" transform="translate(90.958892 0) scale(0.996264)"/>
      <use xlink:href="#LinLibertineT-72" transform="translate(141.170562 0) scale(0.996264)"/>
      <use xlink:href="#LinLibertineT-65" transform="translate(177.434489 0) scale(0.996264)"/>
      <use xlink:href="#LinLibertineT-3a" transform="translate(221.967442 0) scale(0.996264)"/>
      <use xlink:href="#LinLibertineT-6b" transform="translate(274.540329 0) scale(0.996264)"/>
      <use xlink:href="#LinLibertineT-69" transform="translate(325.549043 0) scale(0.996264)"/>
      <use xlink:href="#LinLibertineT-6c" transform="translate(352.547788 0) scale(0.996264)"/>
      <use xlink:href="#LinLibertineT-6f" transform="translate(378.849152 0) scale(0.996264)"/>
      <use xlink:href="#LinLibertineT-77" transform="translate(428.36344 0) scale(0.996264)"/>
      <use xlink:href="#LinLibertineT-61" transform="translate(502.784328 0) scale(0.996264)"/>
      <use xlink:href="#LinLibertineT-8b" transform="translate(548.31356 0) scale(0.996264)"/>
      <use xlink:href="#LinLibertineT-68" transform="translate(634.390795 0) scale(0.996264)"/>
      <use xlink:href="#LinLibertineT-6f" transform="translate(687.989801 0) scale(0.996264)"/>
      <use xlink:href="#LinLibertineT-75" transform="translate(738.201471 0) scale(0.996264)"/>
      <use xlink:href="#LinLibertineT-72" transform="translate(791.103096 0) scale(0.996264)"/>
      <use xlink:href="#LinLibertineT-2f" transform="translate(853.070684 0) scale(0.996264)"/>
      <use xlink:href="#LinLibertineT-6b" transform="translate(910.1566 0) scale(0.996264)"/>
      <use xlink:href="#LinLibertineT-67" transform="translate(961.165314 0) scale(0.996264)"/>
     </g>
    </g>
   </g>
   <g id="line2d_113">
    <defs>
     <path id="m2f39a86d81" d="M -1 1 
L 1 -1 
M -1 -1 
L 1 1 
" style="stroke: #000000"/>
    </defs>
    <g clip-path="url(#p7ecd1366c2)">
     <use xlink:href="#m2f39a86d81" x="37.161735" y="32.001563" style="stroke: #000000"/>
    </g>
   </g>
   <g id="line2d_114">
    <g clip-path="url(#p7ecd1366c2)">
     <use xlink:href="#m2f39a86d81" x="76.221735" y="31.256559" style="stroke: #000000"/>
    </g>
   </g>
   <g id="line2d_115">
    <g clip-path="url(#p7ecd1366c2)">
     <use xlink:href="#m2f39a86d81" x="115.281735" y="30.48654" style="stroke: #000000"/>
    </g>
   </g>
   <g id="line2d_116">
    <g clip-path="url(#p7ecd1366c2)">
     <use xlink:href="#m2f39a86d81" x="154.341735" y="30.38059" style="stroke: #000000"/>
    </g>
   </g>
   <g id="line2d_117">
    <g clip-path="url(#p7ecd1366c2)">
     <use xlink:href="#m2f39a86d81" x="193.401735" y="30.398801" style="stroke: #000000"/>
    </g>
   </g>
   <g id="patch_28">
    <path d="M 17.631735 168.98059 
L 17.631735 23.45059 
" style="fill: none; stroke: #000000; stroke-width: 0.5; stroke-linejoin: miter; stroke-linecap: square"/>
   </g>
   <g id="patch_29">
    <path d="M 212.931735 168.98059 
L 212.931735 23.45059 
" style="fill: none; stroke: #000000; stroke-width: 0.5; stroke-linejoin: miter; stroke-linecap: square"/>
   </g>
   <g id="patch_30">
    <path d="M 17.631735 168.98059 
L 212.931735 168.98059 
" style="fill: none; stroke: #000000; stroke-width: 0.5; stroke-linejoin: miter; stroke-linecap: square"/>
   </g>
   <g id="patch_31">
    <path d="M 17.631735 23.45059 
L 212.931735 23.45059 
" style="fill: none; stroke: #000000; stroke-width: 0.5; stroke-linejoin: miter; stroke-linecap: square"/>
   </g>
   <g id="text_15">
    <!-- Pathway of SSP2 scenario (RCP): PkBudg500 -->
    <g transform="translate(19.584735 15.162678) scale(0.05 -0.05)">
     <defs>
      <path id="LinLibertineT-50" d="M 1210 3559 
C 1210 3744 1306 3968 1766 3968 
C 2208 3968 2650 3821 2650 3014 
C 2650 2328 2317 2048 1696 2048 
C 1536 2048 1280 2048 1210 2074 
L 1210 3559 
z
M 666 3372 
L 666 780 
C 666 243 557 211 109 211 
C 70 172 70 39 109 0 
C 397 0 710 0 941 0 
C 1165 0 1542 0 1862 0 
C 1901 39 1901 172 1862 211 
C 1363 211 1210 237 1210 778 
L 1210 1888 
C 1350 1843 1504 1824 1728 1824 
C 2893 1824 3245 2583 3245 3126 
C 3245 3502 2995 4186 1811 4186 
C 1568 4186 1190 4160 934 4160 
C 698 4160 365 4160 109 4160 
C 70 4120 70 3981 109 3942 
C 557 3942 666 3910 666 3372 
z
" transform="scale(0.015625)"/>
      <path id="LinLibertineT-74" d="M 275 2752 
C 186 2752 160 2675 160 2623 
L 160 2540 
C 160 2509 166 2502 192 2502 
L 570 2502 
L 570 571 
C 570 115 768 -64 1062 -64 
C 1357 -64 1677 77 1926 360 
C 1914 424 1875 463 1811 469 
C 1645 340 1453 289 1286 289 
C 1114 289 1075 481 1075 879 
L 1075 2502 
L 1741 2502 
C 1805 2502 1894 2528 1894 2586 
L 1894 2714 
C 1894 2740 1875 2752 1843 2752 
L 1075 2752 
L 1075 3006 
C 1075 3426 1101 3685 1101 3685 
C 1101 3725 1082 3744 1050 3744 
C 1024 3744 966 3718 909 3685 
C 838 3647 774 3614 691 3594 
C 614 3569 550 3549 550 3504 
C 550 3426 570 3471 570 2752 
L 275 2752 
z
" transform="scale(0.015625)"/>
      <path id="LinLibertineT-79" d="M 1306 -1010 
C 1408 -830 1491 -650 1568 -458 
C 2080 781 2368 1443 2701 2161 
C 2829 2432 2918 2534 3219 2573 
C 3258 2611 3258 2746 3219 2784 
C 3091 2784 2944 2784 2765 2784 
C 2573 2784 2374 2784 2182 2784 
C 2144 2746 2144 2611 2182 2573 
C 2387 2553 2592 2515 2490 2284 
L 1856 815 
C 1811 713 1754 693 1702 822 
L 1133 2156 
C 1018 2425 986 2547 1344 2573 
C 1382 2611 1382 2746 1344 2784 
C 1107 2784 851 2784 621 2784 
C 403 2784 230 2784 102 2784 
C 64 2746 64 2611 102 2573 
C 358 2541 442 2483 608 2091 
L 1331 402 
C 1389 274 1485 -21 1421 -201 
C 1344 -413 1267 -593 1171 -792 
C 1101 -920 1011 -978 851 -978 
C 762 -978 736 -959 666 -959 
C 480 -959 384 -1151 384 -1235 
C 384 -1369 512 -1472 685 -1472 
C 819 -1472 1075 -1421 1306 -1010 
z
" transform="scale(0.015625)"/>
      <path id="LinLibertineT-66" d="M 1120 778 
L 1120 2502 
L 1715 2502 
C 1773 2502 1862 2528 1862 2586 
L 1862 2714 
C 1862 2740 1843 2752 1811 2752 
L 1120 2752 
L 1120 3118 
C 1120 4108 1414 4262 1626 4262 
C 1818 4262 1920 4185 2010 3959 
C 2061 3844 2131 3754 2266 3754 
C 2374 3754 2528 3889 2528 4017 
C 2528 4127 2458 4242 2323 4345 
C 2157 4460 1990 4480 1747 4480 
C 1210 4480 614 4011 614 3009 
L 614 2752 
L 288 2752 
C 173 2752 141 2675 141 2623 
L 141 2540 
C 141 2509 147 2502 173 2502 
L 614 2502 
L 614 791 
C 614 262 512 236 166 211 
C 128 172 128 39 166 0 
C 390 0 614 0 870 0 
C 1126 0 1434 0 1658 0 
C 1696 40 1696 178 1658 218 
C 1158 218 1120 244 1120 778 
z
" transform="scale(0.015625)"/>
      <path id="LinLibertineT-73" d="M 307 886 
C 333 572 352 269 352 0 
C 416 13 480 19 512 19 
C 557 19 595 19 640 6 
C 813 -38 986 -64 1222 -64 
C 1581 -64 2240 109 2240 744 
C 2240 1180 1926 1437 1491 1597 
C 1107 1745 851 1841 851 2193 
C 851 2456 1082 2604 1299 2604 
C 1440 2604 1811 2553 1894 2007 
C 1933 1969 2061 1969 2099 2008 
C 2118 2241 2131 2480 2138 2694 
C 1939 2726 1632 2816 1299 2816 
C 826 2816 397 2508 397 2097 
C 397 1629 608 1430 1101 1225 
C 1632 1007 1754 872 1754 596 
C 1754 282 1446 148 1210 148 
C 960 148 819 230 755 300 
C 614 447 544 727 506 885 
C 467 924 346 924 307 886 
z
" transform="scale(0.015625)"/>
      <path id="LinLibertineT-6e" d="M 1178 2309 
C 1139 2264 1101 2251 1101 2309 
C 1094 2482 1082 2733 1050 2798 
C 1037 2830 1024 2849 973 2849 
C 794 2778 627 2721 186 2663 
C 173 2624 186 2522 198 2483 
C 544 2451 614 2419 614 2047 
L 614 795 
C 614 270 550 244 166 212 
C 128 173 128 39 166 0 
C 358 0 614 0 870 0 
C 1126 0 1318 0 1510 0 
C 1549 39 1549 173 1510 212 
C 1184 244 1120 270 1120 795 
L 1120 1848 
C 1120 1983 1178 2060 1229 2118 
C 1472 2355 1760 2496 2010 2496 
C 2138 2496 2272 2413 2349 2265 
C 2413 2137 2426 1964 2426 1771 
L 2426 795 
C 2426 270 2362 244 2029 212 
C 1997 173 1997 39 2029 0 
C 2221 0 2426 0 2682 0 
C 2938 0 3168 0 3360 0 
C 3392 39 3392 173 3360 212 
C 3002 244 2931 270 2931 795 
L 2931 1752 
C 2931 2105 2906 2413 2758 2612 
C 2650 2753 2451 2830 2227 2830 
C 1914 2830 1555 2746 1178 2309 
z
" transform="scale(0.015625)"/>
      <path id="LinLibertineT-28" d="M 282 1616 
C 282 1328 307 -154 1638 -1308 
C 1702 -1296 1754 -1251 1773 -1199 
C 1562 -956 813 -71 813 1616 
C 813 3303 1568 4188 1773 4419 
C 1754 4483 1709 4528 1638 4534 
C 877 3880 282 2809 282 1616 
z
" transform="scale(0.015625)"/>
      <path id="LinLibertineT-52" d="M 1741 3968 
C 2131 3968 2592 3826 2592 3063 
C 2592 2255 2138 2074 1517 2074 
L 1210 2074 
L 1210 3554 
C 1210 3741 1286 3968 1741 3968 
z
M 1210 774 
L 1210 1856 
C 1747 1856 1869 1760 1958 1614 
L 2643 504 
C 2829 204 3104 -64 3488 -64 
C 3584 -64 3693 -51 3757 -19 
C 3782 26 3776 83 3750 135 
C 3462 135 3302 352 3136 626 
L 2330 1965 
C 2605 2056 3181 2393 3181 3073 
C 3181 3397 3072 3662 2842 3882 
C 2534 4173 2138 4173 1734 4173 
C 1434 4173 1165 4160 934 4160 
C 710 4160 410 4160 109 4160 
C 70 4120 70 3981 109 3942 
C 557 3942 666 3910 666 3372 
L 666 780 
C 666 243 557 211 109 211 
C 70 172 70 39 109 0 
C 397 0 698 0 941 0 
C 1184 0 1485 0 1766 0 
C 1805 39 1805 172 1766 211 
C 1318 211 1210 243 1210 774 
z
" transform="scale(0.015625)"/>
      <path id="LinLibertineT-43" d="M 2285 -64 
C 2906 -64 3475 231 3910 803 
C 3878 860 3834 899 3763 899 
C 3309 398 2874 199 2278 199 
C 1414 199 819 1175 819 2112 
C 819 2665 966 3126 1197 3415 
C 1517 3807 1888 3987 2221 3987 
C 3104 3987 3456 3461 3622 2909 
C 3699 2884 3763 2903 3834 2941 
C 3802 3275 3757 3583 3693 3936 
C 3366 3968 3078 4224 2291 4224 
C 1747 4224 1293 4025 915 3678 
C 493 3287 237 2658 237 1990 
C 237 873 909 -64 2285 -64 
z
" transform="scale(0.015625)"/>
      <path id="LinLibertineT-29" d="M 1626 1616 
C 1626 1905 1600 3386 269 4541 
C 205 4528 154 4483 134 4432 
C 346 4188 1094 3303 1094 1616 
C 1094 -71 339 -956 134 -1187 
C 154 -1251 198 -1296 269 -1302 
C 1030 -648 1626 423 1626 1616 
z
" transform="scale(0.015625)"/>
      <path id="LinLibertineT-42" d="M 1222 3546 
C 1222 3884 1222 3949 1779 3949 
C 2138 3949 2605 3756 2605 3104 
C 2605 2561 2227 2368 1696 2368 
L 1222 2368 
L 1222 3546 
z
M 1222 2150 
L 1664 2150 
C 2541 2150 2906 1652 2906 1071 
C 2906 599 2726 205 1754 205 
C 1306 205 1222 373 1222 767 
L 1222 2150 
z
M 122 4160 
C 83 4121 83 3987 122 3949 
C 570 3949 678 3917 678 3377 
L 678 776 
C 678 237 570 205 122 205 
C 83 167 83 38 122 0 
C 371 0 717 0 954 0 
C 1184 0 1350 0 1888 0 
C 3162 0 3501 644 3501 1197 
C 3501 1815 3072 2169 2515 2330 
L 2515 2343 
C 2835 2502 3123 2834 3123 3178 
C 3123 3605 2938 4160 1747 4160 
C 1523 4160 1178 4160 947 4160 
C 717 4160 371 4160 122 4160 
z
" transform="scale(0.015625)"/>
      <path id="LinLibertineT-64" d="M 2208 795 
C 2208 673 2195 622 2106 545 
C 1869 340 1664 237 1504 237 
C 1158 237 800 616 800 1417 
C 800 1879 890 2136 986 2270 
C 1184 2572 1453 2591 1581 2591 
C 1811 2591 1971 2508 2099 2360 
C 2189 2258 2208 2213 2208 2014 
L 2208 795 
z
M 2138 321 
C 2170 346 2227 359 2234 314 
C 2253 160 2304 -64 2304 -64 
C 2355 -83 2387 -77 2426 -64 
C 2566 51 2790 148 3181 192 
C 3219 231 3219 327 3181 366 
C 2771 398 2714 520 2714 835 
L 2714 3741 
C 2714 4159 2739 4416 2739 4416 
C 2739 4460 2714 4480 2656 4480 
C 2496 4414 2016 4320 1760 4300 
C 1747 4246 1760 4140 1798 4100 
C 2131 4100 2208 4132 2208 3590 
L 2208 2765 
C 2208 2719 2195 2707 2150 2707 
C 2125 2707 1862 2816 1651 2816 
C 1229 2816 947 2674 691 2431 
C 416 2155 250 1777 250 1302 
C 250 513 646 -64 1338 -64 
C 1587 -64 1824 64 2138 321 
z
" transform="scale(0.015625)"/>
     </defs>
     <use xlink:href="#LinLibertineT-50" transform="scale(0.996264)"/>
     <use xlink:href="#LinLibertineT-61" transform="translate(53.897919 0) scale(0.996264)"/>
     <use xlink:href="#LinLibertineT-74" transform="translate(99.427151 0) scale(0.996264)"/>
     <use xlink:href="#LinLibertineT-68" transform="translate(130.909085 0) scale(0.996264)"/>
     <use xlink:href="#LinLibertineT-77" transform="translate(184.508092 0) scale(0.996264)"/>
     <use xlink:href="#LinLibertineT-61" transform="translate(258.92898 0) scale(0.996264)"/>
     <use xlink:href="#LinLibertineT-79" transform="translate(304.458212 0) scale(0.996264)"/>
     <use xlink:href="#LinLibertineT-6f" transform="translate(380.672439 0) scale(0.996264)"/>
     <use xlink:href="#LinLibertineT-66" transform="translate(430.884108 0) scale(0.996264)"/>
     <use xlink:href="#LinLibertineT-53" transform="translate(486.674923 0) scale(0.996264)"/>
     <use xlink:href="#LinLibertineT-53" transform="translate(534.993682 0) scale(0.996264)"/>
     <use xlink:href="#LinLibertineT-50" transform="translate(583.312441 0) scale(0.996264)"/>
     <use xlink:href="#LinLibertineT-32" transform="translate(637.21036 0) scale(0.996264)"/>
     <use xlink:href="#LinLibertineT-73" transform="translate(708.443252 0) scale(0.996264)"/>
     <use xlink:href="#LinLibertineT-63" transform="translate(747.297579 0) scale(0.996264)"/>
     <use xlink:href="#LinLibertineT-65" transform="translate(789.937712 0) scale(0.996264)"/>
     <use xlink:href="#LinLibertineT-6e" transform="translate(834.470665 0) scale(0.996264)"/>
     <use xlink:href="#LinLibertineT-61" transform="translate(888.468156 0) scale(0.996264)"/>
     <use xlink:href="#LinLibertineT-72" transform="translate(933.997388 0) scale(0.996264)"/>
     <use xlink:href="#LinLibertineT-69" transform="translate(971.058375 0) scale(0.996264)"/>
     <use xlink:href="#LinLibertineT-6f" transform="translate(998.057121 0) scale(0.996264)"/>
     <use xlink:href="#LinLibertineT-28" transform="translate(1073.175391 0) scale(0.996264)"/>
     <use xlink:href="#LinLibertineT-52" transform="translate(1102.864092 0) scale(0.996264)"/>
     <use xlink:href="#LinLibertineT-43" transform="translate(1161.344771 0) scale(0.996264)"/>
     <use xlink:href="#LinLibertineT-50" transform="translate(1225.703417 0) scale(0.996264)"/>
     <use xlink:href="#LinLibertineT-29" transform="translate(1279.601336 0) scale(0.996264)"/>
     <use xlink:href="#LinLibertineT-3a" transform="translate(1309.290037 0) scale(0.996264)"/>
     <use xlink:href="#LinLibertineT-50" transform="translate(1357.708474 0) scale(0.996264)"/>
     <use xlink:href="#LinLibertineT-6b" transform="translate(1412.801907 0) scale(0.996264)"/>
     <use xlink:href="#LinLibertineT-42" transform="translate(1463.810622 0) scale(0.996264)"/>
     <use xlink:href="#LinLibertineT-75" transform="translate(1522.390964 0) scale(0.996264)"/>
     <use xlink:href="#LinLibertineT-64" transform="translate(1575.292589 0) scale(0.996264)"/>
     <use xlink:href="#LinLibertineT-67" transform="translate(1625.703493 0) scale(0.996264)"/>
     <use xlink:href="#LinLibertineT-35" transform="translate(1675.516693 0) scale(0.996264)"/>
     <use xlink:href="#LinLibertineT-30" transform="translate(1721.842985 0) scale(0.996264)"/>
     <use xlink:href="#LinLibertineT-30" transform="translate(1768.169277 0) scale(0.996264)"/>
    </g>
    <!-- LCA Method: (WasteAndMaterialFootprint, Electricity) -->
    <g transform="translate(19.584735 20.53999) scale(0.05 -0.05)">
     <defs>
      <path id="LinLibertineT-4c" d="M 954 0 
L 2317 0 
C 2490 0 3078 0 3078 0 
C 3142 320 3206 735 3245 1067 
C 3181 1099 3110 1112 3034 1099 
C 2906 636 2669 256 1990 256 
L 1587 256 
C 1338 256 1222 379 1222 707 
L 1222 3374 
C 1222 3910 1331 3942 1779 3942 
C 1818 3981 1818 4120 1779 4160 
C 1491 4160 1190 4160 947 4160 
C 717 4160 416 4160 122 4160 
C 83 4120 83 3981 122 3942 
C 570 3942 678 3910 678 3372 
L 678 780 
C 678 243 570 211 122 211 
C 83 172 83 39 122 0 
C 371 0 736 0 954 0 
z
" transform="scale(0.015625)"/>
      <path id="LinLibertineT-41" d="M 1683 1805 
C 1542 1805 1498 1824 1523 1888 
L 2176 3560 
L 2214 3560 
L 2816 1805 
L 1683 1805 
z
M 992 512 
L 1344 1429 
C 1376 1510 1414 1536 1568 1536 
L 2918 1536 
L 3290 454 
C 3366 237 3123 211 2816 211 
C 2778 172 2778 39 2816 0 
C 3053 0 3405 0 3654 0 
C 3917 0 4160 0 4384 0 
C 4422 39 4422 173 4384 212 
C 4134 236 3917 256 3808 564 
L 2490 4224 
C 2394 4166 2221 4096 2138 4096 
L 685 648 
C 518 250 326 211 45 211 
C 6 172 6 39 45 0 
C 211 0 422 0 614 0 
C 877 0 1197 0 1434 0 
C 1472 38 1472 170 1434 209 
C 1190 228 890 253 992 512 
z
" transform="scale(0.015625)"/>
      <path id="LinLibertineT-4d" d="M 4243 741 
C 4275 218 4250 218 3834 218 
C 3795 178 3795 40 3834 0 
C 4070 0 4326 0 4518 0 
C 4710 0 5005 0 5216 0 
C 5254 40 5254 178 5216 218 
C 4781 218 4762 244 4723 784 
L 4531 3492 
C 4506 3850 4538 3942 4973 3942 
C 5011 3981 5011 4120 4973 4160 
L 4134 4160 
L 2778 893 
C 2752 829 2733 803 2720 803 
C 2707 803 2688 835 2669 887 
L 1357 4160 
L 429 4160 
C 390 4120 390 3981 429 3942 
C 870 3942 909 3930 864 3434 
L 608 790 
C 570 404 493 244 128 212 
C 90 173 90 39 128 0 
C 320 0 525 0 678 0 
C 832 0 1088 0 1280 0 
C 1318 39 1318 173 1280 212 
C 858 244 826 443 858 802 
L 1101 3376 
L 1114 3376 
L 2438 32 
C 2458 -13 2496 -64 2534 -64 
C 2573 -64 2598 -19 2624 32 
L 4064 3440 
L 4077 3440 
L 4243 741 
z
" transform="scale(0.015625)"/>
      <path id="LinLibertineT-57" d="M 5184 3597 
L 4186 821 
L 4166 828 
L 3283 3527 
C 3174 3873 3398 3892 3616 3911 
C 3654 3948 3654 4083 3616 4122 
C 3354 4122 3072 4122 2816 4122 
C 2605 4122 2381 4122 2176 4122 
C 2138 4082 2138 3943 2176 3904 
C 2515 3904 2656 3705 2714 3538 
L 2861 3114 
C 2886 3037 2906 2973 2906 2915 
C 2906 2851 2899 2800 2848 2690 
L 2022 808 
L 1990 815 
L 1056 3648 
C 979 3872 1152 3904 1376 3904 
C 1414 3943 1414 4082 1376 4122 
C 1165 4122 883 4122 634 4122 
C 410 4122 224 4122 38 4122 
C 0 4082 0 3943 38 3904 
C 326 3904 371 3897 493 3551 
L 1696 77 
C 1728 -25 1766 -96 1837 -96 
C 1920 -96 1958 -32 2003 77 
L 2957 2225 
C 3014 2353 3034 2385 3066 2385 
C 3091 2385 3117 2315 3155 2206 
L 3891 77 
C 3930 -32 3962 -96 4038 -96 
C 4109 -96 4154 -25 4186 71 
L 5472 3532 
C 5555 3756 5670 3904 6022 3904 
C 6061 3943 6061 4082 6022 4122 
C 5837 4122 5632 4122 5466 4122 
C 5299 4122 5018 4122 4762 4122 
C 4723 4083 4723 3948 4762 3911 
C 5024 3892 5280 3873 5184 3597 
z
" transform="scale(0.015625)"/>
      <path id="LinLibertineT-46" d="M 1811 2061 
C 2355 2061 2374 1917 2394 1637 
C 2432 1600 2566 1600 2605 1637 
C 2598 1798 2592 1984 2592 2202 
C 2592 2420 2598 2587 2605 2753 
C 2566 2793 2432 2793 2394 2753 
C 2374 2391 2355 2304 1811 2304 
L 1216 2304 
L 1216 3474 
C 1216 3825 1293 3890 1574 3890 
L 1862 3890 
C 2541 3890 2701 3633 2842 3187 
C 2918 3187 2989 3200 3040 3219 
C 3008 3485 2912 4108 2899 4160 
C 2899 4160 2893 4160 2874 4160 
C 2765 4160 2733 4160 2573 4160 
L 941 4160 
C 736 4160 371 4160 115 4160 
C 77 4119 77 3975 115 3935 
C 563 3935 672 3903 672 3366 
L 672 779 
C 672 243 563 211 115 211 
C 77 172 77 39 115 0 
C 339 0 659 0 947 0 
C 1235 0 1549 0 1773 0 
C 1811 39 1811 172 1773 211 
C 1325 211 1216 243 1216 774 
L 1216 2061 
L 1811 2061 
z
" transform="scale(0.015625)"/>
      <path id="LinLibertineT-70" d="M 1120 2162 
C 1286 2367 1581 2560 1766 2560 
C 2176 2560 2528 2098 2528 1373 
C 2528 846 2342 192 1626 192 
C 1510 192 1286 224 1171 327 
C 1043 442 1018 481 1018 711 
L 1018 1880 
C 1018 2014 1043 2072 1120 2162 
z
M 998 2400 
C 992 2592 979 2758 947 2823 
C 934 2855 922 2874 870 2874 
C 691 2803 525 2746 83 2688 
C 70 2649 83 2546 96 2507 
C 442 2474 512 2442 512 2067 
L 512 -693 
C 512 -1229 442 -1261 51 -1261 
C 13 -1300 13 -1433 51 -1472 
C 275 -1472 512 -1472 768 -1472 
C 1024 -1472 1331 -1472 1542 -1472 
C 1581 -1433 1581 -1300 1542 -1261 
C 1088 -1261 1018 -1235 1018 -687 
L 1018 25 
C 1018 109 1043 102 1107 70 
C 1267 12 1459 -26 1664 -26 
C 2022 -26 2342 83 2605 333 
C 2906 628 3078 1026 3078 1546 
C 3078 2226 2598 2855 1946 2855 
C 1651 2855 1325 2656 1069 2375 
C 1030 2336 1005 2336 998 2400 
z
" transform="scale(0.015625)"/>
      <path id="LinLibertineT-2c" d="M 666 640 
C 467 640 326 506 326 326 
C 326 127 493 63 608 44 
C 730 31 838 -7 838 -155 
C 838 -290 608 -585 275 -668 
C 275 -732 288 -777 333 -822 
C 717 -751 1088 -444 1088 5 
C 1088 390 922 640 666 640 
z
" transform="scale(0.015625)"/>
      <path id="LinLibertineT-45" d="M 1798 2304 
L 1216 2304 
L 1216 3474 
C 1216 3760 1293 3890 1638 3890 
L 2118 3890 
C 2598 3890 2701 3632 2842 3187 
C 2918 3174 2989 3187 3053 3219 
C 3021 3485 2925 4108 2912 4160 
C 2912 4160 2906 4160 2886 4160 
C 2778 4160 2726 4160 2573 4160 
L 941 4160 
C 749 4160 371 4160 115 4160 
C 77 4119 77 3975 115 3935 
C 563 3935 672 3903 672 3366 
L 672 779 
C 672 243 563 211 115 211 
C 77 172 77 39 115 0 
C 352 0 736 0 947 0 
L 2323 0 
C 2630 0 3142 0 3142 0 
C 3232 318 3328 738 3379 1062 
C 3315 1101 3238 1114 3155 1094 
C 3027 634 2803 256 2317 256 
L 1574 256 
C 1306 256 1216 358 1216 656 
L 1216 2061 
L 1798 2061 
C 2342 2061 2362 1917 2381 1637 
C 2419 1600 2554 1600 2592 1637 
C 2586 1804 2579 1984 2579 2202 
C 2579 2381 2586 2600 2592 2753 
C 2554 2793 2419 2793 2381 2753 
C 2362 2391 2342 2304 1798 2304 
z
" transform="scale(0.015625)"/>
     </defs>
     <use xlink:href="#LinLibertineT-4c" transform="scale(0.996264)"/>
     <use xlink:href="#LinLibertineT-43" transform="translate(52.602728 0) scale(0.996264)"/>
     <use xlink:href="#LinLibertineT-41" transform="translate(116.961373 0) scale(0.996264)"/>
     <use xlink:href="#LinLibertineT-4d" transform="translate(211.108292 0) scale(0.996264)"/>
     <use xlink:href="#LinLibertineT-65" transform="translate(294.694806 0) scale(0.996264)"/>
     <use xlink:href="#LinLibertineT-74" transform="translate(339.227759 0) scale(0.996264)"/>
     <use xlink:href="#LinLibertineT-68" transform="translate(370.709692 0) scale(0.996264)"/>
     <use xlink:href="#LinLibertineT-6f" transform="translate(424.308699 0) scale(0.996264)"/>
     <use xlink:href="#LinLibertineT-64" transform="translate(475.21775 0) scale(0.996264)"/>
     <use xlink:href="#LinLibertineT-3a" transform="translate(525.628655 0) scale(0.996264)"/>
     <use xlink:href="#LinLibertineT-28" transform="translate(578.201541 0) scale(0.996264)"/>
     <use xlink:href="#LinLibertineT-57" transform="translate(607.890242 0) scale(0.996264)"/>
     <use xlink:href="#LinLibertineT-61" transform="translate(696.657341 0) scale(0.996264)"/>
     <use xlink:href="#LinLibertineT-73" transform="translate(742.186573 0) scale(0.996264)"/>
     <use xlink:href="#LinLibertineT-74" transform="translate(781.040899 0) scale(0.996264)"/>
     <use xlink:href="#LinLibertineT-65" transform="translate(812.522833 0) scale(0.996264)"/>
     <use xlink:href="#LinLibertineT-41" transform="translate(853.07073 0) scale(0.996264)"/>
     <use xlink:href="#LinLibertineT-6e" transform="translate(922.311048 0) scale(0.996264)"/>
     <use xlink:href="#LinLibertineT-64" transform="translate(976.308539 0) scale(0.996264)"/>
     <use xlink:href="#LinLibertineT-4d" transform="translate(1026.719443 0) scale(0.996264)"/>
     <use xlink:href="#LinLibertineT-61" transform="translate(1110.305957 0) scale(0.996264)"/>
     <use xlink:href="#LinLibertineT-74" transform="translate(1155.835189 0) scale(0.996264)"/>
     <use xlink:href="#LinLibertineT-65" transform="translate(1187.317123 0) scale(0.996264)"/>
     <use xlink:href="#LinLibertineT-72" transform="translate(1231.850075 0) scale(0.996264)"/>
     <use xlink:href="#LinLibertineT-69" transform="translate(1268.911063 0) scale(0.996264)"/>
     <use xlink:href="#LinLibertineT-61" transform="translate(1295.909808 0) scale(0.996264)"/>
     <use xlink:href="#LinLibertineT-6c" transform="translate(1341.43904 0) scale(0.996264)"/>
     <use xlink:href="#LinLibertineT-46" transform="translate(1367.740404 0) scale(0.996264)"/>
     <use xlink:href="#LinLibertineT-6f" transform="translate(1416.059163 0) scale(0.996264)"/>
     <use xlink:href="#LinLibertineT-6f" transform="translate(1466.968214 0) scale(0.996264)"/>
     <use xlink:href="#LinLibertineT-74" transform="translate(1517.179884 0) scale(0.996264)"/>
     <use xlink:href="#LinLibertineT-70" transform="translate(1548.661818 0) scale(0.996264)"/>
     <use xlink:href="#LinLibertineT-72" transform="translate(1600.367914 0) scale(0.996264)"/>
     <use xlink:href="#LinLibertineT-69" transform="translate(1637.428901 0) scale(0.996264)"/>
     <use xlink:href="#LinLibertineT-6e" transform="translate(1664.427647 0) scale(0.996264)"/>
     <use xlink:href="#LinLibertineT-74" transform="translate(1718.425138 0) scale(0.996264)"/>
     <use xlink:href="#LinLibertineT-2c" transform="translate(1749.907072 0) scale(0.996264)"/>
     <use xlink:href="#LinLibertineT-45" transform="translate(1796.731495 0) scale(0.996264)"/>
     <use xlink:href="#LinLibertineT-6c" transform="translate(1852.223413 0) scale(0.996264)"/>
     <use xlink:href="#LinLibertineT-65" transform="translate(1878.524776 0) scale(0.996264)"/>
     <use xlink:href="#LinLibertineT-63" transform="translate(1923.755111 0) scale(0.996264)"/>
     <use xlink:href="#LinLibertineT-74" transform="translate(1966.395244 0) scale(0.996264)"/>
     <use xlink:href="#LinLibertineT-72" transform="translate(1997.877178 0) scale(0.996264)"/>
     <use xlink:href="#LinLibertineT-69" transform="translate(2034.938165 0) scale(0.996264)"/>
     <use xlink:href="#LinLibertineT-63" transform="translate(2061.936911 0) scale(0.996264)"/>
     <use xlink:href="#LinLibertineT-69" transform="translate(2104.577044 0) scale(0.996264)"/>
     <use xlink:href="#LinLibertineT-74" transform="translate(2131.575789 0) scale(0.996264)"/>
     <use xlink:href="#LinLibertineT-79" transform="translate(2163.057723 0) scale(0.996264)"/>
     <use xlink:href="#LinLibertineT-29" transform="translate(2212.671674 0) scale(0.996264)"/>
    </g>
   </g>
   <g id="text_16">
    <!-- Score and top-processes for Li-ion battery `LFP' -->
    <g transform="translate(19.584735 8.71879) scale(0.07 -0.07)">
     <defs>
      <path id="LinLibertineT-2d" d="M 1734 1408 
C 1818 1408 1907 1588 1907 1665 
C 1907 1729 1882 1793 1818 1793 
L 416 1793 
C 339 1793 256 1646 256 1530 
C 256 1466 294 1408 352 1408 
L 1734 1408 
z
" transform="scale(0.015625)"/>
      <path id="LinLibertineT-62" d="M 1114 2328 
C 1280 2476 1472 2533 1658 2533 
C 2048 2533 2368 2059 2368 1437 
C 2368 706 2074 154 1466 154 
C 1267 154 1133 295 1005 455 
L 1005 2059 
C 1005 2193 1030 2258 1114 2328 
z
M 1069 2527 
C 1030 2489 1005 2501 1005 2559 
L 1005 3741 
C 1005 4159 1030 4416 1030 4416 
C 1030 4460 1005 4480 947 4480 
C 787 4414 307 4320 51 4300 
C 38 4246 51 4140 90 4100 
C 422 4100 499 4132 499 3592 
L 499 456 
C 499 205 493 90 474 0 
C 506 -42 538 -64 614 -64 
C 653 -38 717 19 768 77 
C 832 154 870 154 941 96 
C 1088 -26 1280 -64 1504 -64 
C 2157 -64 2918 532 2918 1552 
C 2918 2335 2342 2816 1786 2816 
C 1510 2816 1267 2707 1069 2527 
z
" transform="scale(0.015625)"/>
      <path id="LinLibertineT-60" d="M 890 3264 
C 1088 3264 1229 3398 1229 3578 
C 1229 3783 1062 3841 947 3860 
C 826 3873 717 3912 717 4059 
C 717 4194 947 4489 1280 4572 
C 1280 4636 1267 4681 1222 4726 
C 838 4655 467 4348 467 3899 
C 467 3514 634 3264 890 3264 
z
" transform="scale(0.015625)"/>
      <path id="LinLibertineT-27" d="M 826 4480 
C 627 4480 486 4345 486 4165 
C 486 3967 653 3903 768 3883 
C 890 3870 998 3832 998 3684 
C 998 3550 768 3255 435 3171 
C 435 3107 448 3062 493 3017 
C 877 3088 1248 3396 1248 3845 
C 1248 4230 1082 4480 826 4480 
z
" transform="scale(0.015625)"/>
     </defs>
     <use xlink:href="#LinLibertineT-53" transform="scale(0.996264)"/>
     <use xlink:href="#LinLibertineT-63" transform="translate(48.318759 0) scale(0.996264)"/>
     <use xlink:href="#LinLibertineT-6f" transform="translate(90.958892 0) scale(0.996264)"/>
     <use xlink:href="#LinLibertineT-72" transform="translate(141.170562 0) scale(0.996264)"/>
     <use xlink:href="#LinLibertineT-65" transform="translate(177.434489 0) scale(0.996264)"/>
     <use xlink:href="#LinLibertineT-61" transform="translate(246.874042 0) scale(0.996264)"/>
     <use xlink:href="#LinLibertineT-6e" transform="translate(292.403274 0) scale(0.996264)"/>
     <use xlink:href="#LinLibertineT-64" transform="translate(346.400765 0) scale(0.996264)"/>
     <use xlink:href="#LinLibertineT-74" transform="translate(421.71827 0) scale(0.996264)"/>
     <use xlink:href="#LinLibertineT-6f" transform="translate(453.200203 0) scale(0.996264)"/>
     <use xlink:href="#LinLibertineT-70" transform="translate(503.411873 0) scale(0.996264)"/>
     <use xlink:href="#LinLibertineT-2d" transform="translate(555.117969 0) scale(0.996264)"/>
     <use xlink:href="#LinLibertineT-70" transform="translate(588.791711 0) scale(0.996264)"/>
     <use xlink:href="#LinLibertineT-72" transform="translate(640.497807 0) scale(0.996264)"/>
     <use xlink:href="#LinLibertineT-6f" transform="translate(676.761735 0) scale(0.996264)"/>
     <use xlink:href="#LinLibertineT-63" transform="translate(727.670786 0) scale(0.996264)"/>
     <use xlink:href="#LinLibertineT-65" transform="translate(770.310919 0) scale(0.996264)"/>
     <use xlink:href="#LinLibertineT-73" transform="translate(814.843872 0) scale(0.996264)"/>
     <use xlink:href="#LinLibertineT-73" transform="translate(853.698198 0) scale(0.996264)"/>
     <use xlink:href="#LinLibertineT-65" transform="translate(892.552525 0) scale(0.996264)"/>
     <use xlink:href="#LinLibertineT-73" transform="translate(937.085478 0) scale(0.996264)"/>
     <use xlink:href="#LinLibertineT-66" transform="translate(1000.846405 0) scale(0.996264)"/>
     <use xlink:href="#LinLibertineT-6f" transform="translate(1031.73062 0) scale(0.996264)"/>
     <use xlink:href="#LinLibertineT-72" transform="translate(1081.942289 0) scale(0.996264)"/>
     <use xlink:href="#LinLibertineT-4c" transform="translate(1143.909877 0) scale(0.996264)"/>
     <use xlink:href="#LinLibertineT-69" transform="translate(1196.512605 0) scale(0.996264)"/>
     <use xlink:href="#LinLibertineT-2d" transform="translate(1223.51135 0) scale(0.996264)"/>
     <use xlink:href="#LinLibertineT-69" transform="translate(1257.185092 0) scale(0.996264)"/>
     <use xlink:href="#LinLibertineT-6f" transform="translate(1284.183838 0) scale(0.996264)"/>
     <use xlink:href="#LinLibertineT-6e" transform="translate(1334.395507 0) scale(0.996264)"/>
     <use xlink:href="#LinLibertineT-62" transform="translate(1413.299599 0) scale(0.996264)"/>
     <use xlink:href="#LinLibertineT-61" transform="translate(1462.415417 0) scale(0.996264)"/>
     <use xlink:href="#LinLibertineT-8b" transform="translate(1507.944649 0) scale(0.996264)"/>
     <use xlink:href="#LinLibertineT-65" transform="translate(1569.115284 0) scale(0.996264)"/>
     <use xlink:href="#LinLibertineT-72" transform="translate(1613.648236 0) scale(0.996264)"/>
     <use xlink:href="#LinLibertineT-79" transform="translate(1652.20365 0) scale(0.996264)"/>
     <use xlink:href="#LinLibertineT-60" transform="translate(1728.417878 0) scale(0.996264)"/>
     <use xlink:href="#LinLibertineT-4c" transform="translate(1755.11771 0) scale(0.996264)"/>
     <use xlink:href="#LinLibertineT-46" transform="translate(1807.720438 0) scale(0.996264)"/>
     <use xlink:href="#LinLibertineT-50" transform="translate(1856.039197 0) scale(0.996264)"/>
     <use xlink:href="#LinLibertineT-27" transform="translate(1912.328159 0) scale(0.996264)"/>
    </g>
   </g>
   <g id="legend_1">
    <g id="text_17">
     <!-- Legend: Top Processes -->
     <g transform="translate(60.3285 189.750231) scale(0.05 -0.05)">
      <defs>
       <path id="LinLibertineT-54" d="M 2240 776 
L 2240 3229 
C 2240 3641 2304 3885 2534 3885 
L 2675 3885 
C 3155 3885 3456 3718 3565 3225 
C 3635 3225 3725 3231 3782 3257 
C 3738 3549 3706 3874 3699 4160 
C 3699 4160 3686 4160 3680 4160 
C 3462 4160 2752 4160 2246 4160 
L 1696 4160 
C 1203 4160 448 4160 205 4186 
C 192 4186 179 4173 179 4167 
C 154 3878 90 3546 19 3238 
C 83 3212 160 3206 237 3206 
C 365 3718 659 3885 1082 3885 
L 1395 3885 
C 1632 3885 1696 3641 1696 3249 
L 1696 776 
C 1696 243 1587 211 1075 211 
C 1037 172 1037 39 1075 0 
C 1389 0 1715 0 1971 0 
C 2214 0 2541 0 2861 0 
C 2899 39 2899 172 2861 211 
C 2349 211 2240 243 2240 776 
z
" transform="scale(0.015625)"/>
      </defs>
      <use xlink:href="#LinLibertineT-4c" transform="scale(0.996264)"/>
      <use xlink:href="#LinLibertineT-65" transform="translate(52.602728 0) scale(0.996264)"/>
      <use xlink:href="#LinLibertineT-67" transform="translate(97.13568 0) scale(0.996264)"/>
      <use xlink:href="#LinLibertineT-65" transform="translate(146.948881 0) scale(0.996264)"/>
      <use xlink:href="#LinLibertineT-6e" transform="translate(191.481833 0) scale(0.996264)"/>
      <use xlink:href="#LinLibertineT-64" transform="translate(245.479324 0) scale(0.996264)"/>
      <use xlink:href="#LinLibertineT-3a" transform="translate(295.890229 0) scale(0.996264)"/>
      <use xlink:href="#LinLibertineT-54" transform="translate(348.463115 0) scale(0.996264)"/>
      <use xlink:href="#LinLibertineT-6f" transform="translate(401.663653 0) scale(0.996264)"/>
      <use xlink:href="#LinLibertineT-70" transform="translate(451.875322 0) scale(0.996264)"/>
      <use xlink:href="#LinLibertineT-50" transform="translate(528.488019 0) scale(0.996264)"/>
      <use xlink:href="#LinLibertineT-72" transform="translate(582.385938 0) scale(0.996264)"/>
      <use xlink:href="#LinLibertineT-6f" transform="translate(618.649866 0) scale(0.996264)"/>
      <use xlink:href="#LinLibertineT-63" transform="translate(669.558917 0) scale(0.996264)"/>
      <use xlink:href="#LinLibertineT-65" transform="translate(712.19905 0) scale(0.996264)"/>
      <use xlink:href="#LinLibertineT-73" transform="translate(756.732003 0) scale(0.996264)"/>
      <use xlink:href="#LinLibertineT-73" transform="translate(795.58633 0) scale(0.996264)"/>
      <use xlink:href="#LinLibertineT-65" transform="translate(834.440656 0) scale(0.996264)"/>
      <use xlink:href="#LinLibertineT-73" transform="translate(878.973609 0) scale(0.996264)"/>
     </g>
    </g>
    <g id="line2d_118">
     <path d="M 27.631735 194.335773 
L 28.631735 194.335773 
L 29.631735 194.335773 
" style="fill: none; stroke: #4c72b0; stroke-linecap: square"/>
    </g>
    <g id="text_18">
     <!-- aluminium production, primary, liquid, prebake -->
     <g transform="translate(33.631735 195.735773) scale(0.04 -0.04)">
      <defs>
       <path id="LinLibertineT-6d" d="M 1088 2309 
C 1082 2503 1069 2733 1037 2798 
C 1024 2830 1011 2849 960 2849 
C 781 2778 614 2721 173 2663 
C 160 2624 173 2522 186 2483 
C 531 2451 602 2419 602 2047 
L 602 795 
C 602 270 518 237 166 212 
C 128 173 128 39 166 0 
C 358 0 602 0 858 0 
C 1114 0 1312 0 1504 0 
C 1542 39 1542 173 1504 212 
C 1178 244 1107 270 1107 795 
L 1107 1848 
C 1107 1983 1165 2060 1216 2118 
C 1472 2368 1709 2496 1907 2496 
C 2150 2496 2330 2342 2330 1912 
L 2330 795 
C 2330 270 2278 237 1933 212 
C 1901 173 1901 39 1933 0 
C 2093 0 2330 0 2586 0 
C 2842 0 3053 0 3213 0 
C 3245 39 3245 173 3213 212 
C 2893 237 2835 270 2835 795 
L 2835 1814 
C 2835 1904 2835 1994 2829 2071 
C 3136 2413 3424 2496 3674 2496 
C 3917 2496 4058 2355 4058 1925 
L 4058 795 
C 4058 270 3994 237 3661 212 
C 3629 173 3629 39 3661 0 
C 3821 0 4058 0 4314 0 
C 4570 0 4794 0 4973 0 
C 5005 39 5005 173 4973 212 
C 4621 237 4563 270 4563 795 
L 4563 1810 
C 4563 2381 4467 2830 3904 2830 
C 3578 2830 3181 2708 2848 2355 
C 2829 2336 2790 2304 2778 2361 
C 2720 2624 2470 2830 2138 2830 
C 1766 2830 1434 2612 1165 2309 
C 1133 2277 1094 2232 1088 2309 
z
" transform="scale(0.015625)"/>
       <path id="LinLibertineT-71" d="M 2061 2387 
C 2189 2246 2214 2150 2214 1997 
L 2214 525 
C 2214 410 2208 378 2125 333 
C 1978 256 1805 256 1702 256 
C 1331 256 774 524 774 1488 
C 774 2151 1043 2624 1555 2624 
C 1747 2624 1920 2547 2061 2387 
z
M 2214 -690 
C 2214 -1234 2144 -1261 1754 -1261 
C 1715 -1300 1715 -1433 1754 -1472 
C 1978 -1472 2214 -1472 2470 -1472 
C 2726 -1472 2970 -1472 3181 -1472 
C 3219 -1433 3219 -1300 3181 -1261 
C 2790 -1261 2720 -1235 2720 -702 
L 2720 2687 
C 2720 2777 2694 2848 2624 2848 
C 2579 2848 2541 2810 2490 2739 
C 2406 2624 2381 2604 2304 2656 
C 2099 2784 1850 2842 1581 2842 
C 800 2842 224 2203 224 1360 
C 224 766 627 -26 1549 -26 
C 1722 -26 1933 12 2042 76 
C 2189 160 2214 173 2214 38 
L 2214 -690 
z
" transform="scale(0.015625)"/>
      </defs>
      <use xlink:href="#LinLibertineT-61" transform="scale(0.996264)"/>
      <use xlink:href="#LinLibertineT-6c" transform="translate(45.529232 0) scale(0.996264)"/>
      <use xlink:href="#LinLibertineT-75" transform="translate(71.830596 0) scale(0.996264)"/>
      <use xlink:href="#LinLibertineT-6d" transform="translate(124.732221 0) scale(0.996264)"/>
      <use xlink:href="#LinLibertineT-69" transform="translate(203.437062 0) scale(0.996264)"/>
      <use xlink:href="#LinLibertineT-6e" transform="translate(230.435808 0) scale(0.996264)"/>
      <use xlink:href="#LinLibertineT-69" transform="translate(284.433299 0) scale(0.996264)"/>
      <use xlink:href="#LinLibertineT-75" transform="translate(311.432044 0) scale(0.996264)"/>
      <use xlink:href="#LinLibertineT-6d" transform="translate(364.333669 0) scale(0.996264)"/>
      <use xlink:href="#LinLibertineT-70" transform="translate(467.945111 0) scale(0.996264)"/>
      <use xlink:href="#LinLibertineT-72" transform="translate(519.651207 0) scale(0.996264)"/>
      <use xlink:href="#LinLibertineT-6f" transform="translate(555.915135 0) scale(0.996264)"/>
      <use xlink:href="#LinLibertineT-64" transform="translate(606.824187 0) scale(0.996264)"/>
      <use xlink:href="#LinLibertineT-75" transform="translate(657.235091 0) scale(0.996264)"/>
      <use xlink:href="#LinLibertineT-63" transform="translate(710.136716 0) scale(0.996264)"/>
      <use xlink:href="#LinLibertineT-74" transform="translate(752.776849 0) scale(0.996264)"/>
      <use xlink:href="#LinLibertineT-69" transform="translate(784.258782 0) scale(0.996264)"/>
      <use xlink:href="#LinLibertineT-6f" transform="translate(811.257528 0) scale(0.996264)"/>
      <use xlink:href="#LinLibertineT-6e" transform="translate(861.469198 0) scale(0.996264)"/>
      <use xlink:href="#LinLibertineT-2c" transform="translate(915.466689 0) scale(0.996264)"/>
      <use xlink:href="#LinLibertineT-70" transform="translate(962.291112 0) scale(0.996264)"/>
      <use xlink:href="#LinLibertineT-72" transform="translate(1013.997208 0) scale(0.996264)"/>
      <use xlink:href="#LinLibertineT-69" transform="translate(1051.058196 0) scale(0.996264)"/>
      <use xlink:href="#LinLibertineT-6d" transform="translate(1078.056942 0) scale(0.996264)"/>
      <use xlink:href="#LinLibertineT-61" transform="translate(1156.761783 0) scale(0.996264)"/>
      <use xlink:href="#LinLibertineT-72" transform="translate(1202.291015 0) scale(0.996264)"/>
      <use xlink:href="#LinLibertineT-79" transform="translate(1240.846429 0) scale(0.996264)"/>
      <use xlink:href="#LinLibertineT-2c" transform="translate(1286.276089 0) scale(0.996264)"/>
      <use xlink:href="#LinLibertineT-6c" transform="translate(1333.100513 0) scale(0.996264)"/>
      <use xlink:href="#LinLibertineT-69" transform="translate(1359.401877 0) scale(0.996264)"/>
      <use xlink:href="#LinLibertineT-71" transform="translate(1386.400622 0) scale(0.996264)"/>
      <use xlink:href="#LinLibertineT-75" transform="translate(1436.51272 0) scale(0.996264)"/>
      <use xlink:href="#LinLibertineT-69" transform="translate(1489.414345 0) scale(0.996264)"/>
      <use xlink:href="#LinLibertineT-64" transform="translate(1516.413091 0) scale(0.996264)"/>
      <use xlink:href="#LinLibertineT-2c" transform="translate(1566.823995 0) scale(0.996264)"/>
      <use xlink:href="#LinLibertineT-70" transform="translate(1613.648419 0) scale(0.996264)"/>
      <use xlink:href="#LinLibertineT-72" transform="translate(1665.354515 0) scale(0.996264)"/>
      <use xlink:href="#LinLibertineT-65" transform="translate(1701.618443 0) scale(0.996264)"/>
      <use xlink:href="#LinLibertineT-62" transform="translate(1746.151395 0) scale(0.996264)"/>
      <use xlink:href="#LinLibertineT-61" transform="translate(1795.267214 0) scale(0.996264)"/>
      <use xlink:href="#LinLibertineT-6b" transform="translate(1840.796446 0) scale(0.996264)"/>
      <use xlink:href="#LinLibertineT-65" transform="translate(1891.80516 0) scale(0.996264)"/>
     </g>
    </g>
    <g id="line2d_119">
     <path d="M 27.631735 200.064282 
L 28.631735 200.064282 
L 29.631735 200.064282 
" style="fill: none; stroke: #dd8452; stroke-linecap: square"/>
    </g>
    <g id="text_19">
     <!-- electricity voltage transformation from high to medium volta[...] -->
     <g transform="translate(33.631735 201.464282) scale(0.04 -0.04)">
      <defs>
       <path id="LinLibertineT-76" d="M 2080 2573 
C 2426 2547 2464 2470 2330 2143 
L 1811 886 
C 1709 636 1677 636 1574 905 
L 1114 2143 
C 998 2451 973 2528 1312 2573 
C 1350 2611 1350 2746 1312 2784 
C 1101 2784 877 2784 666 2784 
C 454 2784 262 2784 70 2784 
C 32 2746 32 2611 70 2572 
C 410 2533 454 2431 582 2102 
L 1402 71 
C 1440 -25 1478 -64 1562 -64 
C 1626 -64 1670 -25 1715 84 
L 2566 2096 
C 2688 2379 2758 2540 3117 2572 
C 3155 2611 3155 2746 3117 2784 
C 2989 2784 2835 2784 2669 2784 
C 2458 2784 2240 2784 2080 2784 
C 2042 2746 2042 2611 2080 2573 
z
" transform="scale(0.015625)"/>
       <path id="LinLibertineT-5b" d="M 691 -1216 
L 2048 -1216 
C 2086 -1177 2086 -1062 2048 -1023 
C 1165 -952 1120 -856 1120 -297 
L 1120 3631 
C 1120 4190 1171 4286 2048 4351 
C 2086 4390 2086 4505 2048 4544 
L 691 4544 
L 691 -1216 
z
" transform="scale(0.015625)"/>
       <path id="LinLibertineT-96" d="M 365 276 
C 365 90 518 -64 704 -64 
C 890 -64 1043 90 1043 276 
C 1043 462 890 616 704 616 
C 518 616 365 462 365 276 
z
M 2061 276 
C 2061 90 2214 -64 2400 -64 
C 2586 -64 2739 90 2739 276 
C 2739 462 2586 616 2400 616 
C 2214 616 2061 462 2061 276 
z
M 3750 276 
C 3750 90 3904 -64 4090 -64 
C 4275 -64 4429 90 4429 276 
C 4429 462 4275 616 4090 616 
C 3904 616 3750 462 3750 276 
z
" transform="scale(0.015625)"/>
       <path id="LinLibertineT-5d" d="M 1587 4544 
L 230 4544 
C 192 4506 192 4390 230 4352 
C 1114 4280 1158 4184 1158 3625 
L 1158 -304 
C 1158 -863 1107 -959 230 -1024 
C 192 -1062 192 -1178 230 -1216 
L 1587 -1216 
L 1587 4544 
z
" transform="scale(0.015625)"/>
      </defs>
      <use xlink:href="#LinLibertineT-65" transform="scale(0.996264)"/>
      <use xlink:href="#LinLibertineT-6c" transform="translate(44.532953 0) scale(0.996264)"/>
      <use xlink:href="#LinLibertineT-65" transform="translate(70.834316 0) scale(0.996264)"/>
      <use xlink:href="#LinLibertineT-63" transform="translate(116.064651 0) scale(0.996264)"/>
      <use xlink:href="#LinLibertineT-74" transform="translate(158.704784 0) scale(0.996264)"/>
      <use xlink:href="#LinLibertineT-72" transform="translate(190.186717 0) scale(0.996264)"/>
      <use xlink:href="#LinLibertineT-69" transform="translate(227.247705 0) scale(0.996264)"/>
      <use xlink:href="#LinLibertineT-63" transform="translate(254.246451 0) scale(0.996264)"/>
      <use xlink:href="#LinLibertineT-69" transform="translate(296.886584 0) scale(0.996264)"/>
      <use xlink:href="#LinLibertineT-74" transform="translate(323.885329 0) scale(0.996264)"/>
      <use xlink:href="#LinLibertineT-79" transform="translate(355.367263 0) scale(0.996264)"/>
      <use xlink:href="#LinLibertineT-76" transform="translate(431.58149 0) scale(0.996264)"/>
      <use xlink:href="#LinLibertineT-6f" transform="translate(480.298718 0) scale(0.996264)"/>
      <use xlink:href="#LinLibertineT-6c" transform="translate(530.510388 0) scale(0.996264)"/>
      <use xlink:href="#LinLibertineT-74" transform="translate(556.811751 0) scale(0.996264)"/>
      <use xlink:href="#LinLibertineT-61" transform="translate(588.293685 0) scale(0.996264)"/>
      <use xlink:href="#LinLibertineT-67" transform="translate(633.822917 0) scale(0.996264)"/>
      <use xlink:href="#LinLibertineT-65" transform="translate(683.636117 0) scale(0.996264)"/>
      <use xlink:href="#LinLibertineT-74" transform="translate(753.07567 0) scale(0.996264)"/>
      <use xlink:href="#LinLibertineT-72" transform="translate(784.557604 0) scale(0.996264)"/>
      <use xlink:href="#LinLibertineT-61" transform="translate(821.618592 0) scale(0.996264)"/>
      <use xlink:href="#LinLibertineT-6e" transform="translate(867.147823 0) scale(0.996264)"/>
      <use xlink:href="#LinLibertineT-73" transform="translate(921.145314 0) scale(0.996264)"/>
      <use xlink:href="#LinLibertineT-66" transform="translate(959.999641 0) scale(0.996264)"/>
      <use xlink:href="#LinLibertineT-6f" transform="translate(990.883856 0) scale(0.996264)"/>
      <use xlink:href="#LinLibertineT-72" transform="translate(1041.095526 0) scale(0.996264)"/>
      <use xlink:href="#LinLibertineT-6d" transform="translate(1078.156513 0) scale(0.996264)"/>
      <use xlink:href="#LinLibertineT-61" transform="translate(1156.861355 0) scale(0.996264)"/>
      <use xlink:href="#LinLibertineT-74" transform="translate(1202.390587 0) scale(0.996264)"/>
      <use xlink:href="#LinLibertineT-69" transform="translate(1233.87252 0) scale(0.996264)"/>
      <use xlink:href="#LinLibertineT-6f" transform="translate(1260.871266 0) scale(0.996264)"/>
      <use xlink:href="#LinLibertineT-6e" transform="translate(1311.082935 0) scale(0.996264)"/>
      <use xlink:href="#LinLibertineT-66" transform="translate(1389.987027 0) scale(0.996264)"/>
      <use xlink:href="#LinLibertineT-72" transform="translate(1420.871242 0) scale(0.996264)"/>
      <use xlink:href="#LinLibertineT-6f" transform="translate(1457.135169 0) scale(0.996264)"/>
      <use xlink:href="#LinLibertineT-6d" transform="translate(1507.346839 0) scale(0.996264)"/>
      <use xlink:href="#LinLibertineT-68" transform="translate(1610.958281 0) scale(0.996264)"/>
      <use xlink:href="#LinLibertineT-69" transform="translate(1664.557288 0) scale(0.996264)"/>
      <use xlink:href="#LinLibertineT-67" transform="translate(1691.556033 0) scale(0.996264)"/>
      <use xlink:href="#LinLibertineT-68" transform="translate(1741.369234 0) scale(0.996264)"/>
      <use xlink:href="#LinLibertineT-74" transform="translate(1819.874841 0) scale(0.996264)"/>
      <use xlink:href="#LinLibertineT-6f" transform="translate(1851.356774 0) scale(0.996264)"/>
      <use xlink:href="#LinLibertineT-6d" transform="translate(1926.475044 0) scale(0.996264)"/>
      <use xlink:href="#LinLibertineT-65" transform="translate(2005.179886 0) scale(0.996264)"/>
      <use xlink:href="#LinLibertineT-64" transform="translate(2050.41022 0) scale(0.996264)"/>
      <use xlink:href="#LinLibertineT-69" transform="translate(2100.821124 0) scale(0.996264)"/>
      <use xlink:href="#LinLibertineT-75" transform="translate(2127.81987 0) scale(0.996264)"/>
      <use xlink:href="#LinLibertineT-6d" transform="translate(2180.721495 0) scale(0.996264)"/>
      <use xlink:href="#LinLibertineT-76" transform="translate(2284.332937 0) scale(0.996264)"/>
      <use xlink:href="#LinLibertineT-6f" transform="translate(2333.050165 0) scale(0.996264)"/>
      <use xlink:href="#LinLibertineT-6c" transform="translate(2383.261834 0) scale(0.996264)"/>
      <use xlink:href="#LinLibertineT-74" transform="translate(2409.563198 0) scale(0.996264)"/>
      <use xlink:href="#LinLibertineT-61" transform="translate(2441.045132 0) scale(0.996264)"/>
      <use xlink:href="#LinLibertineT-5b" transform="translate(2486.574363 0) scale(0.996264)"/>
      <use xlink:href="#LinLibertineT-96" transform="translate(2522.041353 0) scale(0.996264)"/>
      <use xlink:href="#LinLibertineT-5d" transform="translate(2596.661476 0) scale(0.996264)"/>
     </g>
    </g>
    <g id="line2d_120">
     <path d="M 27.631735 205.812722 
L 28.631735 205.812722 
L 29.631735 205.812722 
" style="fill: none; stroke: #55a868; stroke-linecap: square"/>
    </g>
    <g id="text_20">
     <!-- electricity voltage transformation from high to medium volta[...] -->
     <g transform="translate(33.631735 207.212722) scale(0.04 -0.04)">
      <use xlink:href="#LinLibertineT-65" transform="scale(0.996264)"/>
      <use xlink:href="#LinLibertineT-6c" transform="translate(44.532953 0) scale(0.996264)"/>
      <use xlink:href="#LinLibertineT-65" transform="translate(70.834316 0) scale(0.996264)"/>
      <use xlink:href="#LinLibertineT-63" transform="translate(116.064651 0) scale(0.996264)"/>
      <use xlink:href="#LinLibertineT-74" transform="translate(158.704784 0) scale(0.996264)"/>
      <use xlink:href="#LinLibertineT-72" transform="translate(190.186717 0) scale(0.996264)"/>
      <use xlink:href="#LinLibertineT-69" transform="translate(227.247705 0) scale(0.996264)"/>
      <use xlink:href="#LinLibertineT-63" transform="translate(254.246451 0) scale(0.996264)"/>
      <use xlink:href="#LinLibertineT-69" transform="translate(296.886584 0) scale(0.996264)"/>
      <use xlink:href="#LinLibertineT-74" transform="translate(323.885329 0) scale(0.996264)"/>
      <use xlink:href="#LinLibertineT-79" transform="translate(355.367263 0) scale(0.996264)"/>
      <use xlink:href="#LinLibertineT-76" transform="translate(431.58149 0) scale(0.996264)"/>
      <use xlink:href="#LinLibertineT-6f" transform="translate(480.298718 0) scale(0.996264)"/>
      <use xlink:href="#LinLibertineT-6c" transform="translate(530.510388 0) scale(0.996264)"/>
      <use xlink:href="#LinLibertineT-74" transform="translate(556.811751 0) scale(0.996264)"/>
      <use xlink:href="#LinLibertineT-61" transform="translate(588.293685 0) scale(0.996264)"/>
      <use xlink:href="#LinLibertineT-67" transform="translate(633.822917 0) scale(0.996264)"/>
      <use xlink:href="#LinLibertineT-65" transform="translate(683.636117 0) scale(0.996264)"/>
      <use xlink:href="#LinLibertineT-74" transform="translate(753.07567 0) scale(0.996264)"/>
      <use xlink:href="#LinLibertineT-72" transform="translate(784.557604 0) scale(0.996264)"/>
      <use xlink:href="#LinLibertineT-61" transform="translate(821.618592 0) scale(0.996264)"/>
      <use xlink:href="#LinLibertineT-6e" transform="translate(867.147823 0) scale(0.996264)"/>
      <use xlink:href="#LinLibertineT-73" transform="translate(921.145314 0) scale(0.996264)"/>
      <use xlink:href="#LinLibertineT-66" transform="translate(959.999641 0) scale(0.996264)"/>
      <use xlink:href="#LinLibertineT-6f" transform="translate(990.883856 0) scale(0.996264)"/>
      <use xlink:href="#LinLibertineT-72" transform="translate(1041.095526 0) scale(0.996264)"/>
      <use xlink:href="#LinLibertineT-6d" transform="translate(1078.156513 0) scale(0.996264)"/>
      <use xlink:href="#LinLibertineT-61" transform="translate(1156.861355 0) scale(0.996264)"/>
      <use xlink:href="#LinLibertineT-74" transform="translate(1202.390587 0) scale(0.996264)"/>
      <use xlink:href="#LinLibertineT-69" transform="translate(1233.87252 0) scale(0.996264)"/>
      <use xlink:href="#LinLibertineT-6f" transform="translate(1260.871266 0) scale(0.996264)"/>
      <use xlink:href="#LinLibertineT-6e" transform="translate(1311.082935 0) scale(0.996264)"/>
      <use xlink:href="#LinLibertineT-66" transform="translate(1389.987027 0) scale(0.996264)"/>
      <use xlink:href="#LinLibertineT-72" transform="translate(1420.871242 0) scale(0.996264)"/>
      <use xlink:href="#LinLibertineT-6f" transform="translate(1457.135169 0) scale(0.996264)"/>
      <use xlink:href="#LinLibertineT-6d" transform="translate(1507.346839 0) scale(0.996264)"/>
      <use xlink:href="#LinLibertineT-68" transform="translate(1610.958281 0) scale(0.996264)"/>
      <use xlink:href="#LinLibertineT-69" transform="translate(1664.557288 0) scale(0.996264)"/>
      <use xlink:href="#LinLibertineT-67" transform="translate(1691.556033 0) scale(0.996264)"/>
      <use xlink:href="#LinLibertineT-68" transform="translate(1741.369234 0) scale(0.996264)"/>
      <use xlink:href="#LinLibertineT-74" transform="translate(1819.874841 0) scale(0.996264)"/>
      <use xlink:href="#LinLibertineT-6f" transform="translate(1851.356774 0) scale(0.996264)"/>
      <use xlink:href="#LinLibertineT-6d" transform="translate(1926.475044 0) scale(0.996264)"/>
      <use xlink:href="#LinLibertineT-65" transform="translate(2005.179886 0) scale(0.996264)"/>
      <use xlink:href="#LinLibertineT-64" transform="translate(2050.41022 0) scale(0.996264)"/>
      <use xlink:href="#LinLibertineT-69" transform="translate(2100.821124 0) scale(0.996264)"/>
      <use xlink:href="#LinLibertineT-75" transform="translate(2127.81987 0) scale(0.996264)"/>
      <use xlink:href="#LinLibertineT-6d" transform="translate(2180.721495 0) scale(0.996264)"/>
      <use xlink:href="#LinLibertineT-76" transform="translate(2284.332937 0) scale(0.996264)"/>
      <use xlink:href="#LinLibertineT-6f" transform="translate(2333.050165 0) scale(0.996264)"/>
      <use xlink:href="#LinLibertineT-6c" transform="translate(2383.261834 0) scale(0.996264)"/>
      <use xlink:href="#LinLibertineT-74" transform="translate(2409.563198 0) scale(0.996264)"/>
      <use xlink:href="#LinLibertineT-61" transform="translate(2441.045132 0) scale(0.996264)"/>
      <use xlink:href="#LinLibertineT-5b" transform="translate(2486.574363 0) scale(0.996264)"/>
      <use xlink:href="#LinLibertineT-96" transform="translate(2522.041353 0) scale(0.996264)"/>
      <use xlink:href="#LinLibertineT-5d" transform="translate(2596.661476 0) scale(0.996264)"/>
     </g>
    </g>
   </g>
  </g>
 </g>
 <defs>
  <clipPath id="p7ecd1366c2">
   <rect x="17.631735" y="23.45059" width="195.3" height="145.53"/>
  </clipPath>
 </defs>
</svg>
